<?xml version="1.0" standalone="no"?>
<!DOCTYPE svg PUBLIC "-//W3C//DTD SVG 1.1//EN" "http://www.w3.org/Graphics/SVG/1.1/DTD/svg11.dtd" >
<svg>
<metadata>
Created by FontForge 20120731 at Mon Sep 12 20:03:54 2016
 By ,,,
Copyright 2010, 2012 Adobe Systems Incorporated. All Rights Reserved.
</metadata>
<defs>
<font id="SourceSansPro-ExtraLightIt" horiz-adv-x="456" >
  <font-face 
    font-family="Source Sans Pro ExtraLight"
    font-weight="200"
    font-style="italic"
    font-stretch="normal"
    units-per-em="1000"
    panose-1="2 11 3 3 3 4 3 9 2 4"
    ascent="750"
    descent="-250"
    x-height="478"
    cap-height="660"
    bbox="-208 -273 1056 932"
    underline-thickness="50"
    underline-position="-50"
    slope="-11"
    unicode-range="U+000D-FEFF"
  />
<missing-glyph horiz-adv-x="600" 
d="M172 660h416l-130 -660h-416zM202 610l-106 -538l198 268zM434 72l110 538l-202 -270zM96 32h318l-60 176l-40 104h-4l-82 -104zM396 456l126 172h-292l56 -172l34 -92h4z" />
    <glyph glyph-name="f_f" unicode="ff" horiz-adv-x="492" 
d="M414 598q15 71 48.5 103.5t75.5 32.5q24 0 39.5 -6t30.5 -14l-14 -24q-12 8 -25 13t-33 5q-19 0 -34 -9t-27 -24t-20.5 -35t-12.5 -42l-24 -120h108l-6 -26h-107l-91 -452h-28l91 452h-218l-91 -452h-28l91 452h-63l4 22l64 4l22 110q17 71 52.5 103.5t81.5 32.5
q28 0 45.5 -6t34.5 -14l-14 -24q-14 8 -29 13t-39 5q-21 0 -38 -9t-30 -24t-22 -35t-14 -42l-22 -110h218z" />
    <glyph glyph-name="f_t" unicode="ft" horiz-adv-x="490" 
d="M306 122q-2 -9 -3 -18t-1 -20q0 -35 14.5 -52.5t55.5 -17.5q18 0 33 6t27 12l10 -22q-14 -8 -32.5 -15t-39.5 -7q-54 0 -75 27t-21 63q0 14 1 24t3 22l68 328h-179l-91 -452h-28l91 452h-63l4 22l64 4l24 120q15 71 48.5 103.5t75.5 32.5q24 0 39.5 -6t30.5 -14l-14 -24
q-12 8 -25 13t-33 5q-19 0 -34 -9t-27 -24t-20.5 -35t-12.5 -42l-24 -120h180l32 138h24l-28 -138h132l-6 -26h-132z" />
    <glyph glyph-name=".notdef" horiz-adv-x="600" 
d="M172 660h416l-130 -660h-416zM202 610l-106 -538l198 268zM434 72l110 538l-202 -270zM96 32h318l-60 176l-40 104h-4l-82 -104zM396 456l126 172h-292l56 -172l34 -92h4z" />
    <glyph glyph-name="NULL" horiz-adv-x="0" 
 />
    <glyph glyph-name="NULL" horiz-adv-x="0" 
 />
    <glyph glyph-name="CR" unicode="&#xd;" horiz-adv-x="188" 
 />
    <glyph glyph-name="space" unicode=" " horiz-adv-x="188" 
 />
    <glyph glyph-name="A" unicode="A" horiz-adv-x="480" 
d="M372 264l-16 132q-6 56 -13 113t-13 117h-4q-30 -62 -60 -116.5t-62 -113.5l-72 -132h240zM375 238h-257l-130 -238h-34l366 660h30l84 -660h-30z" />
    <glyph glyph-name="B" unicode="B" horiz-adv-x="566" 
d="M172 660h156q92 0 141 -38t49 -104q0 -38 -14.5 -67t-37 -50t-49 -33t-49.5 -16v-4q24 -5 46.5 -16t40.5 -28.5t28.5 -42t10.5 -55.5q0 -53 -19 -91.5t-53.5 -64t-83.5 -38t-108 -12.5h-190zM260 364q114 0 171 43t57 109q0 56 -42 87t-134 31h-116l-54 -270h118zM212 26
q56 0 102.5 9.5t79.5 30.5t51.5 55t18.5 82q0 58 -48.5 96.5t-137.5 38.5h-140l-64 -312h138z" />
    <glyph glyph-name="C" unicode="C" horiz-adv-x="536" 
d="M58 246q0 72 22.5 147.5t65 137.5t104 101.5t140.5 39.5q56 0 92.5 -28t59.5 -64l-24 -16q-20 35 -51.5 58.5t-78.5 23.5q-72 0 -128 -37.5t-94 -95.5t-58 -127.5t-20 -133.5q0 -50 11 -93.5t34.5 -75.5t60 -50.5t86.5 -18.5q48 0 86 17t76 49l18 -20q-42 -35 -85 -53.5
t-97 -18.5q-56 0 -97 20t-68.5 54.5t-41 81.5t-13.5 102z" />
    <glyph glyph-name="D" unicode="D" horiz-adv-x="572" 
d="M172 660h104q68 0 119 -18.5t84.5 -52.5t50 -81t16.5 -104q0 -84 -22.5 -157.5t-66.5 -128.5t-110 -86.5t-153 -31.5h-154zM196 26q77 0 137 30.5t100.5 82.5t61.5 120t21 143q0 51 -15 93.5t-45 73.5t-75.5 48t-106.5 17h-78l-122 -608h122z" />
    <glyph glyph-name="E" unicode="E" horiz-adv-x="484" 
d="M172 660h342l-6 -26h-312l-54 -270h264l-6 -26h-262l-64 -312h322l-6 -26h-350z" />
    <glyph glyph-name="F" unicode="F" horiz-adv-x="448" 
d="M172 660h342l-6 -26h-312l-56 -282h264l-6 -26h-262l-66 -326h-30z" />
    <glyph glyph-name="G" unicode="G" horiz-adv-x="570" 
d="M58 246q0 73 22 149t65.5 137.5t107.5 100.5t147 39q56 0 92.5 -28t59.5 -64l-24 -16q-20 35 -51.5 58.5t-78.5 23.5q-75 0 -133 -37.5t-97 -95.5t-59.5 -127.5t-20.5 -133.5q0 -49 11 -92t35 -75.5t62.5 -51.5t93.5 -19q48 0 84 15.5t60 38.5l44 222h-158l6 26h188
l-54 -262q-35 -30 -77 -48t-95 -18q-59 0 -102 19t-71.5 53.5t-42.5 82t-14 103.5z" />
    <glyph glyph-name="H" unicode="H" horiz-adv-x="598" 
d="M172 660h30l-60 -296h356l60 296h30l-132 -660h-30l68 338h-356l-68 -338h-30z" />
    <glyph glyph-name="I" unicode="I" horiz-adv-x="218" 
d="M172 660h30l-132 -660h-30z" />
    <glyph glyph-name="J" unicode="J" horiz-adv-x="428" 
d="M324 168q-15 -83 -61 -131.5t-117 -48.5q-60 0 -94.5 29t-49.5 73l26 12q26 -88 120 -88q59 0 95.5 43.5t50.5 112.5l98 490h30l-98 -492v0z" />
    <glyph glyph-name="K" unicode="K" horiz-adv-x="522" 
d="M172 660h30l-74 -370h2l396 370h38l-252 -240l152 -420h-32l-144 400l-168 -156l-50 -244h-30z" />
    <glyph glyph-name="L" unicode="L" horiz-adv-x="432" 
d="M172 660h30l-126 -634h300l-6 -26h-330z" />
    <glyph glyph-name="M" unicode="M" horiz-adv-x="676" 
d="M172 660h50l66 -398l26 -150h4l78 150l220 398h50l-132 -660h-30l92 460q9 41 19 87t19 85h-4l-78 -142l-226 -414h-34l-72 414l-24 142h-4q-8 -41 -15 -86t-15 -86l-92 -460h-30z" />
    <glyph glyph-name="N" unicode="N" horiz-adv-x="600" 
d="M172 660h34l184 -486l48 -132h4q8 47 15.5 94t16.5 94l86 430h30l-132 -660h-32l-182 484l-50 138h-4q-8 -48 -16.5 -94.5t-17.5 -91.5l-86 -436h-30z" />
    <glyph glyph-name="O" unicode="O" horiz-adv-x="612" 
d="M274 -12q-54 0 -94 20.5t-66 56.5t-39 86.5t-13 110.5q0 44 9 91.5t27 93t44.5 86.5t61 72t76.5 49t92 18q54 0 94 -20.5t66 -56.5t39 -86.5t13 -110.5q0 -44 -9 -91.5t-27 -93t-44.5 -86.5t-61 -72t-77 -49t-91.5 -18zM370 646q-45 0 -83 -17.5t-69 -46.5t-54.5 -67.5
t-39.5 -80.5t-24 -85.5t-8 -82.5q0 -56 10.5 -102t33 -79.5t57 -52t83.5 -18.5q67 0 119 37.5t87.5 94t53.5 123t18 125.5q0 55 -10.5 101.5t-33 80t-57 52t-83.5 18.5z" />
    <glyph glyph-name="P" unicode="P" horiz-adv-x="524" 
d="M172 660h168q91 0 141.5 -36t50.5 -114q0 -54 -19 -94.5t-55 -67.5t-87 -40.5t-115 -13.5h-128l-58 -294h-30zM250 320q125 0 188.5 47t63.5 141q0 68 -45.5 97t-134.5 29h-126l-62 -314h116z" />
    <glyph glyph-name="Q" unicode="Q" horiz-adv-x="612" 
d="M92 266q0 -56 10.5 -102t33 -79.5t57 -52t83.5 -18.5q67 0 119 37.5t87.5 94t53.5 123t18 125.5q0 55 -10.5 101.5t-33 80t-57 52t-83.5 18.5q-45 0 -83 -17.5t-69 -46.5t-54.5 -67.5t-39.5 -80.5t-24 -85.5t-8 -82.5zM492 -144q-14 -3 -25.5 -4.5t-26.5 -1.5
q-70 0 -124 33.5t-71 106.5q-47 5 -81 27.5t-57 58t-34 83t-11 103.5q0 44 9 91.5t27 93t44.5 86.5t61 72t76.5 49t92 18q54 0 94 -20.5t66 -56.5t39 -86.5t13 -110.5q0 -44 -9 -91.5t-27 -93t-44.5 -86.5t-61 -72t-76.5 -49t-91 -18q14 -56 59 -83t108 -27q22 0 46 6z" />
    <glyph glyph-name="R" unicode="R" horiz-adv-x="522" 
d="M260 336q112 0 172 47.5t60 132.5q0 65 -44.5 91.5t-133.5 26.5h-118l-58 -298h122zM332 660q89 0 139.5 -33.5t50.5 -108.5q0 -44 -16 -80.5t-45 -63t-69 -43t-87 -20.5l129 -311h-34l-127 310h-141l-62 -310h-30l132 660h160z" />
    <glyph glyph-name="S" unicode="S" horiz-adv-x="488" 
d="M42 114q32 -48 77.5 -74t110.5 -26q37 0 69.5 11.5t56.5 32.5t38 51t14 67q0 45 -23.5 76t-62.5 54l-88 52q-20 12 -39 27t-33.5 33t-23 40t-8.5 48q0 33 13.5 63t37.5 53t58 36.5t75 13.5q60 0 105 -26t71 -62l-22 -18q-26 33 -66 56.5t-94 23.5q-34 0 -61 -12
t-46.5 -31.5t-30 -43.5t-10.5 -49q0 -48 26.5 -77t61.5 -49l86 -50q47 -27 75.5 -63.5t28.5 -90.5q0 -44 -16.5 -79t-45 -60.5t-67 -39t-83.5 -13.5q-71 0 -123 28.5t-85 81.5z" />
    <glyph glyph-name="T" unicode="T" horiz-adv-x="492" 
d="M306 632h-206l6 28h442l-6 -28h-206l-126 -632h-30z" />
    <glyph glyph-name="U" unicode="U" horiz-adv-x="594" 
d="M170 660h30l-78 -390q-6 -24 -8 -44t-2 -38q0 -83 40 -128.5t120 -45.5q32 0 63 12t57.5 39t47 69.5t32.5 103.5l84 422h30l-86 -430q-14 -68 -37.5 -114t-54.5 -74.5t-67 -41t-73 -12.5q-88 0 -137 50t-49 142q0 20 1.5 39t6.5 43z" />
    <glyph glyph-name="V" unicode="V" horiz-adv-x="450" 
d="M84 660h28l36 -400q6 -54 11.5 -110t10.5 -112h4q27 54 56 111.5t58 110.5l210 400h30l-348 -660h-34z" />
    <glyph glyph-name="W" unicode="W" horiz-adv-x="726" 
d="M108 660h30v-400q-2 -54 -1 -108t-1 -108h4q26 54 51 108t49 108l188 400h34l14 -400q3 -54 4.5 -108t3.5 -108h4q23 54 45.5 108t46.5 108l168 400h32l-284 -660h-38l-16 472q0 41 -1 78t-1 78h-4q-15 -41 -32.5 -78t-35.5 -78l-220 -472h-38z" />
    <glyph glyph-name="X" unicode="X" horiz-adv-x="446" 
d="M224 344l-114 316h30l74 -210q8 -23 14.5 -42t15.5 -42h2q18 21 35.5 44t34.5 46l152 204h32l-244 -322l124 -338h-30l-78 218q-9 24 -18 49t-18 51h-2q-21 -26 -41.5 -54t-38.5 -52l-158 -212h-32z" />
    <glyph glyph-name="Y" unicode="Y" horiz-adv-x="422" 
d="M195 273l-109 387h30l59 -215q10 -36 19 -70.5t20 -71.5h3q25 35 49 71t49 71l151 215h32l-273 -387l-55 -273h-30z" />
    <glyph glyph-name="Z" unicode="Z" horiz-adv-x="502" 
d="M6 18l480 616h-334l6 26h370l-4 -18l-478 -616h370l-6 -26h-408z" />
    <glyph glyph-name="a" unicode="a" horiz-adv-x="524" 
d="M46 160q0 69 22 129t58.5 105t83 70.5t96.5 25.5q44 0 75 -22t51 -58h4l18 68h24l-96 -478h-24l12 78h-4q-38 -39 -83.5 -64.5t-96.5 -25.5q-63 0 -101.5 43.5t-38.5 128.5zM188 14q50 0 97.5 28.5t92.5 79.5l52 250q-29 50 -59.5 71t-66.5 21q-45 0 -86.5 -26t-73.5 -68
t-51 -95.5t-19 -108.5q0 -77 30.5 -114.5t83.5 -37.5z" />
    <glyph glyph-name="b" unicode="b" horiz-adv-x="522" 
d="M44 0l144 722h28l-44 -216l-20 -98h2q39 32 85 57t97 25q63 0 101.5 -43.5t38.5 -128.5q0 -69 -22 -129t-58.5 -105t-83.5 -70.5t-96 -25.5q-44 0 -75 22t-51 58h-4l-18 -68h-24zM334 464q-21 0 -45 -7t-48.5 -19.5t-48.5 -29.5t-46 -36l-54 -266q29 -50 59.5 -71
t66.5 -21q45 0 86.5 25.5t73.5 67.5t51 95.5t19 109.5q0 76 -30.5 114t-83.5 38z" />
    <glyph glyph-name="c" unicode="c" horiz-adv-x="428" 
d="M44 176q0 70 22 128t58 99.5t81.5 64t92.5 22.5q41 0 68.5 -15.5t51.5 -42.5l-20 -20q-23 27 -45 39.5t-57 12.5q-42 0 -82.5 -22.5t-72 -61.5t-50.5 -90t-19 -108q0 -83 34.5 -125.5t105.5 -42.5q38 0 70.5 15.5t59.5 36.5l16 -22q-26 -20 -62 -38t-86 -18
q-77 0 -121.5 48.5t-44.5 139.5z" />
    <glyph glyph-name="d" unicode="d" horiz-adv-x="526" 
d="M456 506l44 216h28l-146 -722h-24l12 78h-4q-38 -39 -83.5 -64.5t-96.5 -25.5q-63 0 -101.5 43.5t-38.5 128.5q0 69 22 129t58.5 105t83 70.5t96.5 25.5q44 0 75 -22t51 -58h4zM188 14q50 0 97.5 28.5t92.5 79.5l52 250q-29 50 -59.5 71t-66.5 21q-45 0 -86.5 -26
t-73.5 -68t-51 -95.5t-19 -108.5q0 -77 30.5 -114.5t83.5 -37.5z" />
    <glyph glyph-name="e" unicode="e" horiz-adv-x="468" 
d="M44 184q0 68 21.5 124.5t56 97t78.5 62.5t90 22q38 0 65 -12.5t44 -35t25 -53t8 -67.5q0 -24 -3.5 -44.5t-8.5 -35.5h-342q-11 -60 -3 -103t29 -71t52.5 -41t69.5 -13q33 0 65 14t59 34l14 -22q-29 -21 -65 -36.5t-75 -15.5q-83 0 -131.5 49.5t-48.5 146.5zM398 268
q3 15 4.5 29t1.5 31q0 25 -6 49.5t-19.5 44t-36 31t-54.5 11.5q-34 0 -66.5 -14.5t-59.5 -40.5t-47.5 -62t-30.5 -79h314z" />
    <glyph glyph-name="f" unicode="f" horiz-adv-x="246" 
d="M80 474l64 4l24 120q15 71 48.5 103.5t75.5 32.5q24 0 40 -6.5t30 -15.5l-14 -22q-12 8 -25 13t-33 5q-19 0 -34 -9t-27 -24t-20.5 -35t-12.5 -42l-24 -120h108l-6 -26h-108l-90 -452h-28l90 452h-62z" />
    <glyph glyph-name="g" unicode="g" horiz-adv-x="518" 
d="M472 478l-106 -526q-18 -86 -68.5 -136t-131.5 -50q-53 0 -91.5 20t-68.5 46l18 22q27 -26 63 -44t81 -18q73 0 115 49t59 129l24 112h-4q-38 -36 -82.5 -61t-95.5 -25q-62 0 -100 43.5t-38 126.5q0 67 22 126t58 103t81.5 69.5t92.5 25.5q43 0 74.5 -22t51.5 -58h4
l18 68h24zM186 22q42 0 92 27.5t94 74.5l52 248q-29 50 -59.5 71t-66.5 21q-43 0 -83 -25.5t-71.5 -67t-50.5 -94t-19 -105.5q0 -75 29.5 -112.5t82.5 -37.5z" />
    <glyph glyph-name="h" unicode="h" horiz-adv-x="498" 
d="M188 722h28l-56 -278l-12 -46h4q48 41 90 66.5t86 25.5q62 0 88 -32.5t26 -83.5q0 -18 -1.5 -30.5t-6.5 -33.5l-62 -310h-28l62 306q5 23 6.5 36t1.5 28q0 47 -21 70.5t-69 23.5q-33 0 -78 -25t-102 -81l-72 -358h-28z" />
    <glyph glyph-name="i" unicode="i" horiz-adv-x="214" 
d="M140 478h28l-96 -478h-28zM180 600q-12 0 -20 8t-8 20q0 18 11 29t25 11q12 0 20 -8t8 -22q0 -17 -11 -27.5t-25 -10.5z" />
    <glyph glyph-name="j" unicode="j" horiz-adv-x="214" 
d="M52 -98q-14 -65 -40.5 -100.5t-71.5 -35.5q-21 0 -34 5t-24 11l12 24q9 -6 18.5 -10t29.5 -4q30 0 49.5 28.5t30.5 75.5l118 582h28zM180 600q-12 0 -20 8t-8 20q0 18 11 29t25 11q12 0 20 -8t8 -22q0 -17 -11 -27.5t-25 -10.5z" />
    <glyph glyph-name="k" unicode="k" horiz-adv-x="436" 
d="M188 722h28l-108 -546h2l298 302h36l-186 -192l116 -286h-30l-108 266l-138 -140l-26 -126h-28z" />
    <glyph glyph-name="l" unicode="l" horiz-adv-x="226" 
d="M188 722h28l-134 -674q-2 -8 -2 -12.5v-7.5q0 -14 14 -14q3 0 5.5 0.5t10.5 3.5l4 -24q-8 -3 -13.5 -4.5t-14.5 -1.5q-15 0 -25.5 9t-10.5 27q0 5 1 11.5t3 14.5z" />
    <glyph glyph-name="m" unicode="m" horiz-adv-x="776" 
d="M140 478h24l-12 -78h4q41 39 83 64.5t77 25.5q30 0 50.5 -8.5t33.5 -22.5t19 -32.5t7 -38.5q51 50 96 76t80 26q60 0 86 -32.5t26 -83.5q0 -18 -1.5 -30.5t-6.5 -33.5l-62 -310h-28l62 306q5 23 6.5 36t1.5 28q0 47 -20.5 70.5t-67.5 23.5q-24 0 -69.5 -25t-98.5 -81
l-72 -358h-28l62 306q5 23 6.5 36t1.5 28q0 47 -20.5 70.5t-67.5 23.5q-24 0 -69.5 -25t-98.5 -81l-72 -358h-28z" />
    <glyph glyph-name="n" unicode="n" horiz-adv-x="504" 
d="M140 478h24l-12 -78h4q45 39 86.5 64.5t85.5 25.5q62 0 88 -32.5t26 -83.5q0 -18 -1.5 -30.5t-6.5 -33.5l-62 -310h-28l62 306q5 23 6.5 36t1.5 28q0 47 -21 70.5t-69 23.5q-33 0 -78 -25t-102 -81l-72 -358h-28z" />
    <glyph glyph-name="o" unicode="o" horiz-adv-x="500" 
d="M204 -12q-72 0 -115 48.5t-43 139.5q0 67 21 124.5t55.5 99.5t79.5 66t94 24q72 0 115 -48.5t43 -139.5q0 -67 -21 -124.5t-55.5 -99.5t-79.5 -66t-94 -24zM294 464q-41 0 -80 -22.5t-70.5 -61.5t-50.5 -90t-19 -108q0 -83 34.5 -125.5t97.5 -42.5q40 0 79.5 22.5
t71 61.5t50.5 90t19 108q0 83 -34.5 125.5t-97.5 42.5z" />
    <glyph glyph-name="p" unicode="p" horiz-adv-x="520" 
d="M62 -42l-34 -180h-28l140 700h24l-12 -70h4q39 32 84 57t96 25q63 0 101.5 -44t38.5 -128q0 -69 -22 -129t-58.5 -105t-83.5 -70.5t-96 -25.5q-44 0 -76.5 22.5t-53.5 57.5h-2zM334 464q-21 0 -45 -7t-48.5 -19.5t-48.5 -30t-46 -37.5l-54 -268q29 -48 59.5 -68t66.5 -20
q45 0 86.5 25.5t73.5 67.5t51 95.5t19 109.5q0 76 -30.5 114t-83.5 38z" />
    <glyph glyph-name="q" unicode="q" horiz-adv-x="524" 
d="M370 80h-2q-38 -39 -84.5 -65.5t-97.5 -26.5q-63 0 -101.5 43.5t-38.5 128.5q0 69 22 129t58.5 105t83 70.5t96.5 25.5q44 0 75 -22t51 -58h4l18 68h24l-140 -700h-28l36 180zM188 14q42 0 93.5 28.5t96.5 79.5l52 250q-29 50 -59.5 71t-66.5 21q-45 0 -86.5 -26
t-73.5 -68t-51 -95.5t-19 -108.5q0 -77 30.5 -114.5t83.5 -37.5z" />
    <glyph glyph-name="r" unicode="r" horiz-adv-x="308" 
d="M140 478h24l-16 -90h4q30 42 66.5 72t83.5 30q9 0 19.5 -1.5t22.5 -6.5l-12 -28q-6 3 -14 5.5t-22 2.5q-39 0 -83 -37t-77 -103l-64 -322h-28z" />
    <glyph glyph-name="s" unicode="s" horiz-adv-x="384" 
d="M22 92q20 -32 56 -55t84 -23q26 0 49.5 8.5t41.5 23.5t28.5 34.5t10.5 41.5q0 15 -3.5 28t-13.5 25.5t-28 26t-47 28.5q-34 18 -57 33.5t-37 30.5t-20 30.5t-6 33.5q0 30 12 54.5t32 41.5t46.5 26.5t55.5 9.5q39 0 71.5 -15t56.5 -41l-20 -20q-20 21 -46 35.5t-64 14.5
q-24 0 -45 -8t-37 -21.5t-25 -32t-9 -38.5q0 -36 27 -58.5t63 -41.5q41 -23 65.5 -41t37 -34.5t16 -31t3.5 -29.5q0 -32 -12.5 -58t-34 -44t-51.5 -28t-64 -10q-26 0 -50.5 8t-45 20.5t-36.5 28t-26 31.5z" />
    <glyph glyph-name="t" unicode="t" horiz-adv-x="290" 
d="M146 452h-76l4 22l78 4l32 138h24l-28 -138h132l-6 -26h-132l-68 -330q-2 -9 -3 -18t-1 -20q0 -35 14.5 -52.5t55.5 -17.5q18 0 33 6t27 12l10 -22q-14 -8 -32.5 -15t-39.5 -7q-54 0 -75 27t-21 63q0 14 1 24t3 22z" />
    <glyph glyph-name="u" unicode="u" horiz-adv-x="514" 
d="M372 0h-24l12 80h-4q-45 -39 -86.5 -65.5t-85.5 -26.5q-62 0 -88 32.5t-26 83.5q0 18 1.5 30.5t6.5 33.5l62 310h28l-62 -306q-5 -23 -6.5 -36t-1.5 -28q0 -47 21 -70.5t69 -23.5q33 0 78 25t102 81l72 358h28z" />
    <glyph glyph-name="v" unicode="v" horiz-adv-x="408" 
d="M58 478h28l50 -312q6 -35 11 -71t11 -69h4q18 35 37 70t39 70l170 312h30l-264 -478h-38z" />
    <glyph glyph-name="w" unicode="w" horiz-adv-x="674" 
d="M68 478h28l28 -324q3 -33 6 -64.5t6 -63.5h4q15 32 29 63.5t29 64.5l150 324h40l24 -324q2 -33 4 -64.5t4 -63.5h4q15 32 29 63.5t31 64.5l154 324h28l-228 -478h-42l-22 312q-3 35 -4 72t-4 70h-4q-15 -33 -31 -70t-33 -72l-144 -312h-42z" />
    <glyph glyph-name="x" unicode="x" horiz-adv-x="380" 
d="M178 252l-96 226h30l52 -126q9 -23 16 -41t16 -39h4q18 20 36 39.5t36 40.5l112 126h32l-204 -232l104 -246h-30l-54 136q-9 23 -19 46t-21 46h-4q-18 -23 -37.5 -44.5t-42.5 -45.5l-122 -138h-34z" />
    <glyph glyph-name="y" unicode="y" horiz-adv-x="408" 
d="M-72 -188q16 -8 34 -8q45 0 83.5 38.5t70.5 103.5l22 44l-80 488h28l50 -312q6 -35 11.5 -72t10.5 -70h4q18 35 37 70.5t39 71.5l170 312h30l-300 -544q-14 -28 -31.5 -55.5t-39.5 -50t-48.5 -36.5t-58.5 -14q-8 0 -19 2t-25 8l12 24v0z" />
    <glyph glyph-name="z" unicode="z" horiz-adv-x="384" 
d="M-8 18l372 434h-254l6 26h290l-2 -18l-372 -434h292l-6 -26h-328z" />
    <glyph glyph-name="Agrave" unicode="&#xc0;" horiz-adv-x="480" 
d="M372 264l-16 132q-6 56 -13 113t-13 117h-4q-30 -62 -60 -116.5t-62 -113.5l-72 -132h240zM375 238h-257l-130 -238h-34l366 660h30l84 -660h-30zM252 812h34l78 -102h-26z" />
    <glyph glyph-name="Aacute" unicode="&#xc1;" horiz-adv-x="480" 
d="M372 264l-16 132q-6 56 -13 113t-13 117h-4q-30 -62 -60 -116.5t-62 -113.5l-72 -132h240zM375 238h-257l-130 -238h-34l366 660h30l84 -660h-30zM412 812h38l-120 -102h-28z" />
    <glyph glyph-name="Acircumflex" unicode="&#xc2;" horiz-adv-x="480" 
d="M372 264l-16 132q-6 56 -13 113t-13 117h-4q-30 -62 -60 -116.5t-62 -113.5l-72 -132h240zM375 238h-257l-130 -238h-34l366 660h30l84 -660h-30zM340 812h24l72 -102h-26l-58 76h-4l-90 -76h-30z" />
    <glyph glyph-name="Atilde" unicode="&#xc3;" horiz-adv-x="480" 
d="M372 264l-16 132q-6 56 -13 113t-13 117h-4q-30 -62 -60 -116.5t-62 -113.5l-72 -132h240zM375 238h-257l-130 -238h-34l366 660h30l84 -660h-30zM213 718q3 14 10 29t17.5 27t24 20t29.5 8t28 -9.5t22.5 -21.5t21 -21.5t25.5 -9.5q19 0 32.5 17t21.5 43h22
q-3 -14 -10 -29t-17.5 -27t-24 -20t-29.5 -8q-17 0 -28.5 9.5t-22 21.5t-21 21.5t-25.5 9.5q-19 0 -32.5 -17t-21.5 -43h-22z" />
    <glyph glyph-name="Adieresis" unicode="&#xc4;" horiz-adv-x="480" 
d="M372 264l-16 132q-6 56 -13 113t-13 117h-4q-30 -62 -60 -116.5t-62 -113.5l-72 -132h240zM375 238h-257l-130 -238h-34l366 660h30l84 -660h-30zM266 726q-26 0 -26 26q0 17 10 27.5t22 10.5q26 0 26 -28q0 -15 -10 -25.5t-22 -10.5zM412 726q-26 0 -26 26q0 17 10 27.5
t22 10.5q26 0 26 -28q0 -15 -10 -25.5t-22 -10.5z" />
    <glyph glyph-name="Amacron" unicode="&#x100;" horiz-adv-x="480" 
d="M372 264l-16 132q-6 56 -13 113t-13 117h-4q-30 -62 -60 -116.5t-62 -113.5l-72 -132h240zM375 238h-257l-130 -238h-34l366 660h30l84 -660h-30zM238 762h210l-6 -26h-210z" />
    <glyph glyph-name="Abreve" unicode="&#x102;" horiz-adv-x="480" 
d="M372 264l-16 132q-6 56 -13 113t-13 117h-4q-30 -62 -60 -116.5t-62 -113.5l-72 -132h240zM375 238h-257l-130 -238h-34l366 660h30l84 -660h-30zM332 710q-26 0 -43.5 10t-27 25.5t-13 33.5t-2.5 33h22q-1 -14 2.5 -28t11.5 -24.5t21 -17t33 -6.5q38 0 61.5 24.5
t34.5 51.5h24q-5 -17 -15.5 -35t-25.5 -33t-36 -24.5t-47 -9.5z" />
    <glyph glyph-name="Aring" unicode="&#xc5;" horiz-adv-x="480" 
d="M372 264l-16 132q-6 56 -13 113t-13 117h-4q-30 -62 -60 -116.5t-62 -113.5l-72 -132h240zM375 238h-257l-130 -238h-34l366 660h30l84 -660h-30zM336 698q-30 0 -50 18t-20 56t25.5 64t60.5 26q30 0 50 -18t20 -56t-25.5 -64t-60.5 -26zM350 840q-24 0 -42 -18.5
t-18 -47.5q0 -26 12.5 -40t35.5 -14q24 0 42 18.5t18 47.5q0 26 -12.5 40t-35.5 14z" />
    <glyph glyph-name="uni01CD" unicode="&#x1cd;" horiz-adv-x="480" 
d="M372 264l-16 132q-6 56 -13 113t-13 117h-4q-30 -62 -60 -116.5t-62 -113.5l-72 -132h240zM375 238h-257l-130 -238h-34l366 660h30l84 -660h-30zM346 710h-24l-72 102h26l58 -76h4l90 76h30z" />
    <glyph glyph-name="uni1EA0" unicode="&#x1ea0;" horiz-adv-x="480" 
d="M372 264l-16 132q-6 56 -13 113t-13 117h-4q-30 -62 -60 -116.5t-62 -113.5l-72 -132h240zM375 238h-257l-130 -238h-34l366 660h30l84 -660h-30zM182 -192q-12 0 -20 8t-8 20q0 18 11 29t25 11q12 0 20 -8t8 -22q0 -17 -11 -27.5t-25 -10.5z" />
    <glyph glyph-name="uni1EA2" unicode="&#x1ea2;" horiz-adv-x="480" 
d="M372 264l-16 132q-6 56 -13 113t-13 117h-4q-30 -62 -60 -116.5t-62 -113.5l-72 -132h240zM375 238h-257l-130 -238h-34l366 660h30l84 -660h-30zM296 858q51 -3 73.5 -20.5t22.5 -41.5q0 -38 -28 -59t-72 -35l-8 20q41 14 61.5 29t20.5 39q0 20 -14.5 30.5t-59.5 15.5z
" />
    <glyph glyph-name="uni1EA4" unicode="&#x1ea4;" horiz-adv-x="480" 
d="M372 264l-16 132q-6 56 -13 113t-13 117h-4q-30 -62 -60 -116.5t-62 -113.5l-72 -132h240zM375 238h-257l-130 -238h-34l366 660h30l84 -660h-30zM504 872h32l-92 -104h-26zM340 806h24l70 -96h-26l-56 70h-4l-84 -70h-30z" />
    <glyph glyph-name="uni1EA6" unicode="&#x1ea6;" horiz-adv-x="480" 
d="M372 264l-16 132q-6 56 -13 113t-13 117h-4q-30 -62 -60 -116.5t-62 -113.5l-72 -132h240zM375 238h-257l-130 -238h-34l366 660h30l84 -660h-30zM484 768h-22l-62 104h30zM340 806h24l70 -96h-26l-56 70h-4l-84 -70h-30z" />
    <glyph glyph-name="uni1EA8" unicode="&#x1ea8;" horiz-adv-x="480" 
d="M372 264l-16 132q-6 56 -13 113t-13 117h-4q-30 -62 -60 -116.5t-62 -113.5l-72 -132h240zM375 238h-257l-130 -238h-34l366 660h30l84 -660h-30zM340 806h24l70 -96h-26l-56 70h-4l-84 -70h-30zM442 896q42 0 64 -15.5t22 -36.5q0 -35 -23 -55.5t-65 -32.5l-8 20
q38 10 54 25.5t16 36.5q0 17 -14 25.5t-50 10.5z" />
    <glyph glyph-name="uni1EAA" unicode="&#x1eaa;" horiz-adv-x="480" 
d="M372 264l-16 132q-6 56 -13 113t-13 117h-4q-30 -62 -60 -116.5t-62 -113.5l-72 -132h240zM375 238h-257l-130 -238h-34l366 660h30l84 -660h-30zM340 806h24l70 -96h-26l-56 70h-4l-84 -70h-30zM245 840q3 14 9 28.5t16 26t22.5 18.5t27.5 7q17 0 29.5 -9t23 -20t21 -20
t25.5 -9q19 0 30.5 15t19.5 41h22q-3 -14 -9 -28.5t-16 -26t-22.5 -18.5t-27.5 -7q-17 0 -29.5 9t-23 20t-21 20t-25.5 9q-19 0 -30.5 -15t-19.5 -41h-22z" />
    <glyph glyph-name="uni1EAC" unicode="&#x1eac;" horiz-adv-x="480" 
d="M372 264l-16 132q-6 56 -13 113t-13 117h-4q-30 -62 -60 -116.5t-62 -113.5l-72 -132h240zM375 238h-257l-130 -238h-34l366 660h30l84 -660h-30zM340 812h24l72 -102h-26l-58 76h-4l-90 -76h-30zM182 -192q-12 0 -20 8t-8 20q0 18 11 29t25 11q12 0 20 -8t8 -22
q0 -17 -11 -27.5t-25 -10.5z" />
    <glyph glyph-name="uni1EAE" unicode="&#x1eae;" horiz-adv-x="480" 
d="M372 264l-16 132q-6 56 -13 113t-13 117h-4q-30 -62 -60 -116.5t-62 -113.5l-72 -132h240zM375 238h-257l-130 -238h-34l366 660h30l84 -660h-30zM414 890h36l-108 -94h-26zM334 710q-26 0 -43.5 9.5t-27 24t-13 32t-2.5 32.5h22q-1 -14 2.5 -27.5t11 -24t20.5 -16.5
t32 -6q39 0 63 23.5t35 50.5h24q-5 -16 -15 -33t-25.5 -31.5t-36.5 -24t-47 -9.5z" />
    <glyph glyph-name="uni1EB0" unicode="&#x1eb0;" horiz-adv-x="480" 
d="M372 264l-16 132q-6 56 -13 113t-13 117h-4q-30 -62 -60 -116.5t-62 -113.5l-72 -132h240zM375 238h-257l-130 -238h-34l366 660h30l84 -660h-30zM380 796h-24l-62 94h30zM334 710q-26 0 -43.5 9.5t-27 24t-13 32t-2.5 32.5h22q-1 -14 2.5 -27.5t11 -24t20.5 -16.5t32 -6
q39 0 63 23.5t35 50.5h24q-5 -16 -15 -33t-25.5 -31.5t-36.5 -24t-47 -9.5z" />
    <glyph glyph-name="uni1EB2" unicode="&#x1eb2;" horiz-adv-x="480" 
d="M372 264l-16 132q-6 56 -13 113t-13 117h-4q-30 -62 -60 -116.5t-62 -113.5l-72 -132h240zM375 238h-257l-130 -238h-34l366 660h30l84 -660h-30zM334 710q-26 0 -43.5 9.5t-27 24t-13 32t-2.5 32.5h22q-1 -14 2.5 -27.5t11 -24t20.5 -16.5t32 -6q39 0 63 23.5t35 50.5
h24q-5 -16 -15 -33t-25.5 -31.5t-36.5 -24t-47 -9.5zM330 932q42 0 64 -15.5t22 -36.5q0 -35 -23 -55.5t-65 -32.5l-8 20q38 10 54 25.5t16 36.5q0 17 -14 25.5t-50 10.5z" />
    <glyph glyph-name="uni1EB4" unicode="&#x1eb4;" horiz-adv-x="480" 
d="M372 264l-16 132q-6 56 -13 113t-13 117h-4q-30 -62 -60 -116.5t-62 -113.5l-72 -132h240zM375 238h-257l-130 -238h-34l366 660h30l84 -660h-30zM334 710q-26 0 -43.5 9.5t-27 24t-13 32t-2.5 32.5h22q-1 -14 2.5 -27.5t11 -24t20.5 -16.5t32 -6q39 0 63 23.5t35 50.5
h24q-5 -16 -15 -33t-25.5 -31.5t-36.5 -24t-47 -9.5zM245 840q3 14 9 28.5t16 26t22.5 18.5t27.5 7q17 0 29.5 -9t23 -20t21 -20t25.5 -9q19 0 30.5 15t19.5 41h22q-3 -14 -9 -28.5t-16 -26t-22.5 -18.5t-27.5 -7q-17 0 -29.5 9t-23 20t-21 20t-25.5 9q-19 0 -30.5 -15
t-19.5 -41h-22z" />
    <glyph glyph-name="uni1EB6" unicode="&#x1eb6;" horiz-adv-x="480" 
d="M372 264l-16 132q-6 56 -13 113t-13 117h-4q-30 -62 -60 -116.5t-62 -113.5l-72 -132h240zM375 238h-257l-130 -238h-34l366 660h30l84 -660h-30zM332 710q-26 0 -43.5 10t-27 25.5t-13 33.5t-2.5 33h22q-1 -14 2.5 -28t11.5 -24.5t21 -17t33 -6.5q38 0 61.5 24.5
t34.5 51.5h24q-5 -17 -15.5 -35t-25.5 -33t-36 -24.5t-47 -9.5zM182 -192q-12 0 -20 8t-8 20q0 18 11 29t25 11q12 0 20 -8t8 -22q0 -17 -11 -27.5t-25 -10.5z" />
    <glyph glyph-name="Aogonek" unicode="&#x104;" horiz-adv-x="480" 
d="M372 264l-16 132q-6 56 -13 113t-13 117h-4q-30 -62 -60 -116.5t-62 -113.5l-72 -132h240zM434 0q-39 -30 -65.5 -64.5t-26.5 -69.5q0 -20 10.5 -31t27.5 -11q12 0 21.5 3t20.5 9l10 -22q-29 -16 -54 -16q-29 0 -47.5 15t-18.5 47q0 19 8 38.5t21 38t30 34.5t35 29h-2
l-29 238h-257l-130 -238h-34l366 660h30z" />
    <glyph glyph-name="AE" unicode="&#xc6;" horiz-adv-x="774" 
d="M470 632h-4l-174 -240l-103 -140h205zM500 634l-54 -270h250l-6 -26h-248l-64 -312h308l-6 -26h-336l45 226h-219l-166 -226h-36l490 660h346l-6 -26h-298z" />
    <glyph glyph-name="Ccedilla" unicode="&#xc7;" horiz-adv-x="536" 
d="M58 246q0 72 22.5 147.5t65 137.5t104 101.5t140.5 39.5q56 0 92.5 -28t59.5 -64l-24 -16q-20 35 -51.5 58.5t-78.5 23.5q-72 0 -128 -37.5t-94 -95.5t-58 -127.5t-20 -133.5q0 -50 11 -93.5t34.5 -75.5t60 -50.5t86.5 -18.5q48 0 86 17t76 49l18 -20q-42 -35 -85 -53.5
t-97 -18.5q-56 0 -97 20t-68.5 54.5t-41 81.5t-13.5 102zM262 2h28l-44 -62q18 -6 32 -18.5t14 -35.5q0 -21 -10 -37t-26.5 -27.5t-38.5 -18.5t-45 -11l-4 20q42 9 70 25t28 43q0 20 -14 29t-44 17z" />
    <glyph glyph-name="Cacute" unicode="&#x106;" horiz-adv-x="536" 
d="M58 246q0 72 22.5 147.5t65 137.5t104 101.5t140.5 39.5q56 0 92.5 -28t59.5 -64l-24 -16q-20 35 -51.5 58.5t-78.5 23.5q-72 0 -128 -37.5t-94 -95.5t-58 -127.5t-20 -133.5q0 -50 11 -93.5t34.5 -75.5t60 -50.5t86.5 -18.5q48 0 86 17t76 49l18 -20q-42 -35 -85 -53.5
t-97 -18.5q-56 0 -97 20t-68.5 54.5t-41 81.5t-13.5 102zM474 812h38l-120 -102h-28z" />
    <glyph glyph-name="Ccircumflex" unicode="&#x108;" horiz-adv-x="536" 
d="M58 246q0 72 22.5 147.5t65 137.5t104 101.5t140.5 39.5q56 0 92.5 -28t59.5 -64l-24 -16q-20 35 -51.5 58.5t-78.5 23.5q-72 0 -128 -37.5t-94 -95.5t-58 -127.5t-20 -133.5q0 -50 11 -93.5t34.5 -75.5t60 -50.5t86.5 -18.5q48 0 86 17t76 49l18 -20q-42 -35 -85 -53.5
t-97 -18.5q-56 0 -97 20t-68.5 54.5t-41 81.5t-13.5 102zM402 812h24l72 -102h-26l-58 76h-4l-90 -76h-30z" />
    <glyph glyph-name="Ccaron" unicode="&#x10c;" horiz-adv-x="536" 
d="M58 246q0 72 22.5 147.5t65 137.5t104 101.5t140.5 39.5q56 0 92.5 -28t59.5 -64l-24 -16q-20 35 -51.5 58.5t-78.5 23.5q-72 0 -128 -37.5t-94 -95.5t-58 -127.5t-20 -133.5q0 -50 11 -93.5t34.5 -75.5t60 -50.5t86.5 -18.5q48 0 86 17t76 49l18 -20q-42 -35 -85 -53.5
t-97 -18.5q-56 0 -97 20t-68.5 54.5t-41 81.5t-13.5 102zM408 710h-24l-72 102h26l58 -76h4l90 76h30z" />
    <glyph glyph-name="Cdotaccent" unicode="&#x10a;" horiz-adv-x="536" 
d="M58 246q0 72 22.5 147.5t65 137.5t104 101.5t140.5 39.5q56 0 92.5 -28t59.5 -64l-24 -16q-20 35 -51.5 58.5t-78.5 23.5q-72 0 -128 -37.5t-94 -95.5t-58 -127.5t-20 -133.5q0 -50 11 -93.5t34.5 -75.5t60 -50.5t86.5 -18.5q48 0 86 17t76 49l18 -20q-42 -35 -85 -53.5
t-97 -18.5q-56 0 -97 20t-68.5 54.5t-41 81.5t-13.5 102zM400 726q-12 0 -20 8t-8 20q0 18 11 29t25 11q12 0 20 -8t8 -22q0 -17 -11 -27.5t-25 -10.5z" />
    <glyph glyph-name="Dcaron" unicode="&#x10e;" horiz-adv-x="572" 
d="M172 660h104q68 0 119 -18.5t84.5 -52.5t50 -81t16.5 -104q0 -84 -22.5 -157.5t-66.5 -128.5t-110 -86.5t-153 -31.5h-154zM196 26q77 0 137 30.5t100.5 82.5t61.5 120t21 143q0 51 -15 93.5t-45 73.5t-75.5 48t-106.5 17h-78l-122 -608h122zM372 710h-24l-72 102h26
l58 -76h4l90 76h30z" />
    <glyph glyph-name="uni1E0C" unicode="&#x1e0c;" horiz-adv-x="572" 
d="M172 660h104q68 0 119 -18.5t84.5 -52.5t50 -81t16.5 -104q0 -84 -22.5 -157.5t-66.5 -128.5t-110 -86.5t-153 -31.5h-154zM196 26q77 0 137 30.5t100.5 82.5t61.5 120t21 143q0 51 -15 93.5t-45 73.5t-75.5 48t-106.5 17h-78l-122 -608h122zM212 -192q-12 0 -20 8t-8 20
q0 18 11 29t25 11q12 0 20 -8t8 -22q0 -17 -11 -27.5t-25 -10.5z" />
    <glyph glyph-name="uni1E0E" unicode="&#x1e0e;" horiz-adv-x="572" 
d="M172 660h104q68 0 119 -18.5t84.5 -52.5t50 -81t16.5 -104q0 -84 -22.5 -157.5t-66.5 -128.5t-110 -86.5t-153 -31.5h-154zM196 26q77 0 137 30.5t100.5 82.5t61.5 120t21 143q0 51 -15 93.5t-45 73.5t-75.5 48t-106.5 17h-78l-122 -608h122zM116 -128h212l-4 -26h-212z
" />
    <glyph glyph-name="Dcroat" unicode="&#x110;" horiz-adv-x="590" 
d="M214 26q77 0 137 30.5t100.5 82.5t61.5 120t21 143q0 51 -15 93.5t-45 73.5t-75.5 48t-106.5 17h-78l-54 -270h170l-6 -26h-169l-63 -312h122zM294 660q68 0 119 -18.5t84.5 -52.5t50 -81t16.5 -104q0 -84 -22.5 -157.5t-66.5 -128.5t-110 -86.5t-153 -31.5h-154l68 338
h-72l6 24l71 2l59 296h104z" />
    <glyph glyph-name="Egrave" unicode="&#xc8;" horiz-adv-x="484" 
d="M172 660h342l-6 -26h-312l-54 -270h264l-6 -26h-262l-64 -312h322l-6 -26h-350zM270 812h34l78 -102h-26z" />
    <glyph glyph-name="Eacute" unicode="&#xc9;" horiz-adv-x="484" 
d="M172 660h342l-6 -26h-312l-54 -270h264l-6 -26h-262l-64 -312h322l-6 -26h-350zM430 812h38l-120 -102h-28z" />
    <glyph glyph-name="Ecircumflex" unicode="&#xca;" horiz-adv-x="484" 
d="M172 660h342l-6 -26h-312l-54 -270h264l-6 -26h-262l-64 -312h322l-6 -26h-350zM358 812h24l72 -102h-26l-58 76h-4l-90 -76h-30z" />
    <glyph glyph-name="Ecaron" unicode="&#x11a;" horiz-adv-x="484" 
d="M172 660h342l-6 -26h-312l-54 -270h264l-6 -26h-262l-64 -312h322l-6 -26h-350zM364 710h-24l-72 102h26l58 -76h4l90 76h30z" />
    <glyph glyph-name="Edieresis" unicode="&#xcb;" horiz-adv-x="484" 
d="M172 660h342l-6 -26h-312l-54 -270h264l-6 -26h-262l-64 -312h322l-6 -26h-350zM284 726q-26 0 -26 26q0 17 10 27.5t22 10.5q26 0 26 -28q0 -15 -10 -25.5t-22 -10.5zM430 726q-26 0 -26 26q0 17 10 27.5t22 10.5q26 0 26 -28q0 -15 -10 -25.5t-22 -10.5z" />
    <glyph glyph-name="Emacron" unicode="&#x112;" horiz-adv-x="484" 
d="M172 660h342l-6 -26h-312l-54 -270h264l-6 -26h-262l-64 -312h322l-6 -26h-350zM256 762h210l-6 -26h-210z" />
    <glyph glyph-name="Ebreve" unicode="&#x114;" horiz-adv-x="484" 
d="M172 660h342l-6 -26h-312l-54 -270h264l-6 -26h-262l-64 -312h322l-6 -26h-350zM350 710q-26 0 -43.5 10t-27 25.5t-13 33.5t-2.5 33h22q-1 -14 2.5 -28t11.5 -24.5t21 -17t33 -6.5q38 0 61.5 24.5t34.5 51.5h24q-5 -17 -15.5 -35t-25.5 -33t-36 -24.5t-47 -9.5z" />
    <glyph glyph-name="Edotaccent" unicode="&#x116;" horiz-adv-x="484" 
d="M172 660h342l-6 -26h-312l-54 -270h264l-6 -26h-262l-64 -312h322l-6 -26h-350zM356 726q-12 0 -20 8t-8 20q0 18 11 29t25 11q12 0 20 -8t8 -22q0 -17 -11 -27.5t-25 -10.5z" />
    <glyph glyph-name="uni1EB8" unicode="&#x1eb8;" horiz-adv-x="484" 
d="M172 660h342l-6 -26h-312l-54 -270h264l-6 -26h-262l-64 -312h322l-6 -26h-350zM204 -192q-12 0 -20 8t-8 20q0 18 11 29t25 11q12 0 20 -8t8 -22q0 -17 -11 -27.5t-25 -10.5z" />
    <glyph glyph-name="uni1EBA" unicode="&#x1eba;" horiz-adv-x="484" 
d="M172 660h342l-6 -26h-312l-54 -270h264l-6 -26h-262l-64 -312h322l-6 -26h-350zM314 858q51 -3 73.5 -20.5t22.5 -41.5q0 -38 -28 -59t-72 -35l-8 20q41 14 61.5 29t20.5 39q0 20 -14.5 30.5t-59.5 15.5z" />
    <glyph glyph-name="uni1EBC" unicode="&#x1ebc;" horiz-adv-x="484" 
d="M172 660h342l-6 -26h-312l-54 -270h264l-6 -26h-262l-64 -312h322l-6 -26h-350zM231 718q3 14 10 29t17.5 27t24 20t29.5 8t28 -9.5t22.5 -21.5t21 -21.5t25.5 -9.5q19 0 32.5 17t21.5 43h22q-3 -14 -10 -29t-17.5 -27t-24 -20t-29.5 -8q-17 0 -28.5 9.5t-22 21.5
t-21 21.5t-25.5 9.5q-19 0 -32.5 -17t-21.5 -43h-22z" />
    <glyph glyph-name="uni1EBE" unicode="&#x1ebe;" horiz-adv-x="484" 
d="M172 660h342l-6 -26h-312l-54 -270h264l-6 -26h-262l-64 -312h322l-6 -26h-350zM522 872h32l-92 -104h-26zM358 806h24l70 -96h-26l-56 70h-4l-84 -70h-30z" />
    <glyph glyph-name="uni1EC0" unicode="&#x1ec0;" horiz-adv-x="484" 
d="M172 660h342l-6 -26h-312l-54 -270h264l-6 -26h-262l-64 -312h322l-6 -26h-350zM502 768h-22l-62 104h30zM358 806h24l70 -96h-26l-56 70h-4l-84 -70h-30z" />
    <glyph glyph-name="uni1EC2" unicode="&#x1ec2;" horiz-adv-x="484" 
d="M172 660h342l-6 -26h-312l-54 -270h264l-6 -26h-262l-64 -312h322l-6 -26h-350zM358 806h24l70 -96h-26l-56 70h-4l-84 -70h-30zM460 896q42 0 64 -15.5t22 -36.5q0 -35 -23 -55.5t-65 -32.5l-8 20q38 10 54 25.5t16 36.5q0 17 -14 25.5t-50 10.5z" />
    <glyph glyph-name="uni1EC4" unicode="&#x1ec4;" horiz-adv-x="484" 
d="M172 660h342l-6 -26h-312l-54 -270h264l-6 -26h-262l-64 -312h322l-6 -26h-350zM358 806h24l70 -96h-26l-56 70h-4l-84 -70h-30zM263 840q3 14 9 28.5t16 26t22.5 18.5t27.5 7q17 0 29.5 -9t23 -20t21 -20t25.5 -9q19 0 30.5 15t19.5 41h22q-3 -14 -9 -28.5t-16 -26
t-22.5 -18.5t-27.5 -7q-17 0 -29.5 9t-23 20t-21 20t-25.5 9q-19 0 -30.5 -15t-19.5 -41h-22z" />
    <glyph glyph-name="uni1EC6" unicode="&#x1ec6;" horiz-adv-x="484" 
d="M172 660h342l-6 -26h-312l-54 -270h264l-6 -26h-262l-64 -312h322l-6 -26h-350zM358 812h24l72 -102h-26l-58 76h-4l-90 -76h-30zM204 -192q-12 0 -20 8t-8 20q0 18 11 29t25 11q12 0 20 -8t8 -22q0 -17 -11 -27.5t-25 -10.5z" />
    <glyph glyph-name="Eogonek" unicode="&#x118;" horiz-adv-x="484" 
d="M172 660h342l-6 -26h-312l-54 -270h264l-6 -26h-262l-64 -312h322l-6 -26q-23 -2 -45 -16.5t-39 -34t-27.5 -42t-10.5 -41.5q0 -20 10.5 -31t27.5 -11q12 0 21.5 3t20.5 9l10 -22q-29 -16 -54 -16q-29 0 -47.5 15t-18.5 47q0 19 8 39.5t21.5 39t29.5 34.5t33 27h-290z
" />
    <glyph glyph-name="Gcircumflex" unicode="&#x11c;" horiz-adv-x="570" 
d="M58 246q0 73 22 149t65.5 137.5t107.5 100.5t147 39q56 0 92.5 -28t59.5 -64l-24 -16q-20 35 -51.5 58.5t-78.5 23.5q-75 0 -133 -37.5t-97 -95.5t-59.5 -127.5t-20.5 -133.5q0 -49 11 -92t35 -75.5t62.5 -51.5t93.5 -19q48 0 84 15.5t60 38.5l44 222h-158l6 26h188
l-54 -262q-35 -30 -77 -48t-95 -18q-59 0 -102 19t-71.5 53.5t-42.5 82t-14 103.5zM402 812h24l72 -102h-26l-58 76h-4l-90 -76h-30z" />
    <glyph glyph-name="Gbreve" unicode="&#x11e;" horiz-adv-x="570" 
d="M58 246q0 73 22 149t65.5 137.5t107.5 100.5t147 39q56 0 92.5 -28t59.5 -64l-24 -16q-20 35 -51.5 58.5t-78.5 23.5q-75 0 -133 -37.5t-97 -95.5t-59.5 -127.5t-20.5 -133.5q0 -49 11 -92t35 -75.5t62.5 -51.5t93.5 -19q48 0 84 15.5t60 38.5l44 222h-158l6 26h188
l-54 -262q-35 -30 -77 -48t-95 -18q-59 0 -102 19t-71.5 53.5t-42.5 82t-14 103.5zM394 710q-26 0 -43.5 10t-27 25.5t-13 33.5t-2.5 33h22q-1 -14 2.5 -28t11.5 -24.5t21 -17t33 -6.5q38 0 61.5 24.5t34.5 51.5h24q-5 -17 -15.5 -35t-25.5 -33t-36 -24.5t-47 -9.5z" />
    <glyph glyph-name="Gdotaccent" unicode="&#x120;" horiz-adv-x="570" 
d="M58 246q0 73 22 149t65.5 137.5t107.5 100.5t147 39q56 0 92.5 -28t59.5 -64l-24 -16q-20 35 -51.5 58.5t-78.5 23.5q-75 0 -133 -37.5t-97 -95.5t-59.5 -127.5t-20.5 -133.5q0 -49 11 -92t35 -75.5t62.5 -51.5t93.5 -19q48 0 84 15.5t60 38.5l44 222h-158l6 26h188
l-54 -262q-35 -30 -77 -48t-95 -18q-59 0 -102 19t-71.5 53.5t-42.5 82t-14 103.5zM400 726q-12 0 -20 8t-8 20q0 18 11 29t25 11q12 0 20 -8t8 -22q0 -17 -11 -27.5t-25 -10.5z" />
    <glyph glyph-name="uni0122" unicode="&#x122;" horiz-adv-x="570" 
d="M58 246q0 73 22 149t65.5 137.5t107.5 100.5t147 39q56 0 92.5 -28t59.5 -64l-24 -16q-20 35 -51.5 58.5t-78.5 23.5q-75 0 -133 -37.5t-97 -95.5t-59.5 -127.5t-20.5 -133.5q0 -49 11 -92t35 -75.5t62.5 -51.5t93.5 -19q48 0 84 15.5t60 38.5l44 222h-158l6 26h188
l-54 -262q-35 -30 -77 -48t-95 -18q-59 0 -102 19t-71.5 53.5t-42.5 82t-14 103.5zM258 -50q23 -8 39.5 -20.5t16.5 -35.5q0 -21 -10.5 -37t-28 -27.5t-40 -18.5t-45.5 -11l-4 20q42 9 72 25t30 43q0 20 -13.5 27.5t-28.5 12.5z" />
    <glyph glyph-name="Gcaron" unicode="&#x1e6;" horiz-adv-x="570" 
d="M58 246q0 73 22 149t65.5 137.5t107.5 100.5t147 39q56 0 92.5 -28t59.5 -64l-24 -16q-20 35 -51.5 58.5t-78.5 23.5q-75 0 -133 -37.5t-97 -95.5t-59.5 -127.5t-20.5 -133.5q0 -49 11 -92t35 -75.5t62.5 -51.5t93.5 -19q48 0 84 15.5t60 38.5l44 222h-158l6 26h188
l-54 -262q-35 -30 -77 -48t-95 -18q-59 0 -102 19t-71.5 53.5t-42.5 82t-14 103.5zM408 710h-24l-72 102h26l58 -76h4l90 76h30z" />
    <glyph glyph-name="uni1E20" unicode="&#x1e20;" horiz-adv-x="570" 
d="M58 246q0 73 22 149t65.5 137.5t107.5 100.5t147 39q56 0 92.5 -28t59.5 -64l-24 -16q-20 35 -51.5 58.5t-78.5 23.5q-75 0 -133 -37.5t-97 -95.5t-59.5 -127.5t-20.5 -133.5q0 -49 11 -92t35 -75.5t62.5 -51.5t93.5 -19q48 0 84 15.5t60 38.5l44 222h-158l6 26h188
l-54 -262q-35 -30 -77 -48t-95 -18q-59 0 -102 19t-71.5 53.5t-42.5 82t-14 103.5zM300 762h210l-6 -26h-210z" />
    <glyph glyph-name="uni00470303" horiz-adv-x="570" 
d="M58 246q0 73 22 149t65.5 137.5t107.5 100.5t147 39q56 0 92.5 -28t59.5 -64l-24 -16q-20 35 -51.5 58.5t-78.5 23.5q-75 0 -133 -37.5t-97 -95.5t-59.5 -127.5t-20.5 -133.5q0 -49 11 -92t35 -75.5t62.5 -51.5t93.5 -19q48 0 84 15.5t60 38.5l44 222h-158l6 26h188
l-54 -262q-35 -30 -77 -48t-95 -18q-59 0 -102 19t-71.5 53.5t-42.5 82t-14 103.5zM275 718q3 14 10 29t17.5 27t24 20t29.5 8t28 -9.5t22.5 -21.5t21 -21.5t25.5 -9.5q19 0 32.5 17t21.5 43h22q-3 -14 -10 -29t-17.5 -27t-24 -20t-29.5 -8q-17 0 -28.5 9.5t-22 21.5
t-21 21.5t-25.5 9.5q-19 0 -32.5 -17t-21.5 -43h-22z" />
    <glyph glyph-name="Hcircumflex" unicode="&#x124;" horiz-adv-x="598" 
d="M172 660h30l-60 -296h356l60 296h30l-132 -660h-30l68 338h-356l-68 -338h-30zM384 812h24l72 -102h-26l-58 76h-4l-90 -76h-30z" />
    <glyph glyph-name="uni1E24" unicode="&#x1e24;" horiz-adv-x="598" 
d="M172 660h30l-60 -296h356l60 296h30l-132 -660h-30l68 338h-356l-68 -338h-30zM236 -192q-12 0 -20 8t-8 20q0 18 11 29t25 11q12 0 20 -8t8 -22q0 -17 -11 -27.5t-25 -10.5z" />
    <glyph glyph-name="uni1E2A" unicode="&#x1e2a;" horiz-adv-x="598" 
d="M172 660h30l-60 -296h356l60 296h30l-132 -660h-30l68 338h-356l-68 -338h-30zM226 -206q-29 0 -46.5 10.5t-26.5 27t-12 36.5t-1 40h22q-3 -41 12.5 -65.5t53.5 -24.5t65 26t41 64h24q-7 -20 -17.5 -40t-26.5 -36.5t-38 -27t-50 -10.5z" />
    <glyph glyph-name="Hbar" unicode="&#x126;" horiz-adv-x="630" 
d="M539 496h-356l-27 -132h356zM642 496h-73l-99 -496h-30l68 338h-356l-68 -338h-30l99 496h-73l6 24l72 2l28 138h30l-28 -138h356l28 138h30l-28 -138h74z" />
    <glyph glyph-name="Igrave" unicode="&#xcc;" horiz-adv-x="218" 
d="M172 660h30l-132 -660h-30zM110 812h34l78 -102h-26z" />
    <glyph glyph-name="Iacute" unicode="&#xcd;" horiz-adv-x="218" 
d="M172 660h30l-132 -660h-30zM270 812h38l-120 -102h-28z" />
    <glyph glyph-name="Icircumflex" unicode="&#xce;" horiz-adv-x="218" 
d="M172 660h30l-132 -660h-30zM198 812h24l72 -102h-26l-58 76h-4l-90 -76h-30z" />
    <glyph glyph-name="Itilde" unicode="&#x128;" horiz-adv-x="218" 
d="M172 660h30l-132 -660h-30zM71 718q3 14 10 29t17.5 27t24 20t29.5 8t28 -9.5t22.5 -21.5t21 -21.5t25.5 -9.5q19 0 32.5 17t21.5 43h22q-3 -14 -10 -29t-17.5 -27t-24 -20t-29.5 -8q-17 0 -28.5 9.5t-22 21.5t-21 21.5t-25.5 9.5q-19 0 -32.5 -17t-21.5 -43h-22z" />
    <glyph glyph-name="Idieresis" unicode="&#xcf;" horiz-adv-x="218" 
d="M172 660h30l-132 -660h-30zM124 726q-26 0 -26 26q0 17 10 27.5t22 10.5q26 0 26 -28q0 -15 -10 -25.5t-22 -10.5zM270 726q-26 0 -26 26q0 17 10 27.5t22 10.5q26 0 26 -28q0 -15 -10 -25.5t-22 -10.5z" />
    <glyph glyph-name="Imacron" unicode="&#x12a;" horiz-adv-x="218" 
d="M172 660h30l-132 -660h-30zM96 762h210l-6 -26h-210z" />
    <glyph glyph-name="Idotaccent" unicode="&#x130;" horiz-adv-x="218" 
d="M172 660h30l-132 -660h-30zM196 726q-12 0 -20 8t-8 20q0 18 11 29t25 11q12 0 20 -8t8 -22q0 -17 -11 -27.5t-25 -10.5z" />
    <glyph glyph-name="uni01CF" unicode="&#x1cf;" horiz-adv-x="218" 
d="M172 660h30l-132 -660h-30zM204 710h-24l-72 102h26l58 -76h4l90 76h30z" />
    <glyph glyph-name="uni1EC8" unicode="&#x1ec8;" horiz-adv-x="218" 
d="M172 660h30l-132 -660h-30zM154 858q51 -3 73.5 -20.5t22.5 -41.5q0 -38 -28 -59t-72 -35l-8 20q41 14 61.5 29t20.5 39q0 20 -14.5 30.5t-59.5 15.5z" />
    <glyph glyph-name="uni1ECA" unicode="&#x1eca;" horiz-adv-x="218" 
d="M172 660h30l-132 -660h-30zM32 -200q-12 0 -20 8t-8 20q0 18 11 29t25 11q12 0 20 -8t8 -22q0 -17 -11 -27.5t-25 -10.5z" />
    <glyph glyph-name="Iogonek" unicode="&#x12e;" horiz-adv-x="218" 
d="M-12 -134q0 -20 10.5 -31t27.5 -11q12 0 21.5 3t20.5 9l10 -18q-12 -9 -28.5 -14.5t-27.5 -5.5q-27 0 -45.5 15t-18.5 47q0 19 8 39.5t20.5 39t27 34.5t28.5 27h-2l132 660h30l-132 -660q-15 -14 -29.5 -30t-26.5 -33.5t-19 -35.5t-7 -35z" />
    <glyph glyph-name="Jcircumflex" unicode="&#x134;" horiz-adv-x="428" 
d="M324 168q-15 -83 -61 -131.5t-117 -48.5q-60 0 -94.5 29t-49.5 73l26 12q26 -88 120 -88q59 0 95.5 43.5t50.5 112.5l98 490h30l-98 -492v0zM418 812h24l72 -102h-26l-58 76h-4l-90 -76h-30z" />
    <glyph glyph-name="uni0136" unicode="&#x136;" horiz-adv-x="522" 
d="M172 660h30l-74 -370h2l396 370h38l-252 -240l152 -420h-32l-144 400l-168 -156l-50 -244h-30zM234 -50q23 -8 39.5 -20.5t16.5 -35.5q0 -21 -10.5 -37t-28 -27.5t-40 -18.5t-45.5 -11l-4 20q42 9 72 25t30 43q0 20 -13.5 27.5t-28.5 12.5z" />
    <glyph glyph-name="Lacute" unicode="&#x139;" horiz-adv-x="432" 
d="M172 660h30l-126 -634h300l-6 -26h-330zM270 812h38l-120 -102h-28z" />
    <glyph glyph-name="Lcaron" unicode="&#x13d;" horiz-adv-x="432" 
d="M172 660h30l-126 -634h300l-6 -26h-330zM353 517l40 204h28l-8 -48l-38 -156h-22z" />
    <glyph glyph-name="uni013B" unicode="&#x13b;" horiz-adv-x="432" 
d="M172 660h30l-126 -634h300l-6 -26h-330zM190 -50q23 -8 39.5 -20.5t16.5 -35.5q0 -21 -10.5 -37t-28 -27.5t-40 -18.5t-45.5 -11l-4 20q42 9 72 25t30 43q0 20 -13.5 27.5t-28.5 12.5z" />
    <glyph glyph-name="Ldot" unicode="&#x13f;" horiz-adv-x="432" 
d="M172 660h30l-126 -634h300l-6 -26h-330zM338 292q-14 0 -21 9t-7 21q0 17 12.5 31.5t29.5 14.5q14 0 20 -9t6 -23q0 -17 -11.5 -30.5t-28.5 -13.5z" />
    <glyph glyph-name="uni1E36" unicode="&#x1e36;" horiz-adv-x="432" 
d="M172 660h30l-126 -634h300l-6 -26h-330zM188 -192q-12 0 -20 8t-8 20q0 18 11 29t25 11q12 0 20 -8t8 -22q0 -17 -11 -27.5t-25 -10.5z" />
    <glyph glyph-name="uni1E38" unicode="&#x1e38;" horiz-adv-x="432" 
d="M172 660h30l-126 -634h300l-6 -26h-330zM96 762h210l-6 -26h-210zM188 -192q-12 0 -20 8t-8 20q0 18 11 29t25 11q12 0 20 -8t8 -22q0 -17 -11 -27.5t-25 -10.5z" />
    <glyph glyph-name="uni1E3A" unicode="&#x1e3a;" horiz-adv-x="432" 
d="M172 660h30l-126 -634h300l-6 -26h-330zM92 -128h212l-4 -26h-212z" />
    <glyph glyph-name="Lslash" unicode="&#x141;" horiz-adv-x="432" 
d="M376 26l-6 -26h-330l52 260l-94 -44l6 32l94 44l74 368h30l-70 -352l210 100l-6 -32l-210 -100l-50 -250h300z" />
    <glyph glyph-name="uni1E42" unicode="&#x1e42;" horiz-adv-x="676" 
d="M172 660h50l66 -398l26 -150h4l78 150l220 398h50l-132 -660h-30l92 460q9 41 19 87t19 85h-4l-78 -142l-226 -414h-34l-72 414l-24 142h-4q-8 -41 -15 -86t-15 -86l-92 -460h-30zM268 -200q-12 0 -20 8t-8 20q0 18 11 29t25 11q12 0 20 -8t8 -22q0 -17 -11 -27.5
t-25 -10.5z" />
    <glyph glyph-name="Nacute" unicode="&#x143;" horiz-adv-x="600" 
d="M172 660h34l184 -486l48 -132h4q8 47 15.5 94t16.5 94l86 430h30l-132 -660h-32l-182 484l-50 138h-4q-8 -48 -16.5 -94.5t-17.5 -91.5l-86 -436h-30zM464 812h38l-120 -102h-28z" />
    <glyph glyph-name="Ncaron" unicode="&#x147;" horiz-adv-x="600" 
d="M172 660h34l184 -486l48 -132h4q8 47 15.5 94t16.5 94l86 430h30l-132 -660h-32l-182 484l-50 138h-4q-8 -48 -16.5 -94.5t-17.5 -91.5l-86 -436h-30zM398 710h-24l-72 102h26l58 -76h4l90 76h30z" />
    <glyph glyph-name="Ntilde" unicode="&#xd1;" horiz-adv-x="600" 
d="M172 660h34l184 -486l48 -132h4q8 47 15.5 94t16.5 94l86 430h30l-132 -660h-32l-182 484l-50 138h-4q-8 -48 -16.5 -94.5t-17.5 -91.5l-86 -436h-30zM265 718q3 14 10 29t17.5 27t24 20t29.5 8t28 -9.5t22.5 -21.5t21 -21.5t25.5 -9.5q19 0 32.5 17t21.5 43h22
q-3 -14 -10 -29t-17.5 -27t-24 -20t-29.5 -8q-17 0 -28.5 9.5t-22 21.5t-21 21.5t-25.5 9.5q-19 0 -32.5 -17t-21.5 -43h-22z" />
    <glyph glyph-name="uni0145" unicode="&#x145;" horiz-adv-x="600" 
d="M172 660h34l184 -486l48 -132h4q8 47 15.5 94t16.5 94l86 430h30l-132 -660h-32l-182 484l-50 138h-4q-8 -48 -16.5 -94.5t-17.5 -91.5l-86 -436h-30zM228 -58q23 -8 39.5 -20.5t16.5 -35.5q0 -21 -10.5 -37t-28 -27.5t-40 -18.5t-45.5 -11l-4 20q42 9 72 25t30 43
q0 20 -13.5 27.5t-28.5 12.5z" />
    <glyph glyph-name="uni1E44" unicode="&#x1e44;" horiz-adv-x="600" 
d="M172 660h34l184 -486l48 -132h4q8 47 15.5 94t16.5 94l86 430h30l-132 -660h-32l-182 484l-50 138h-4q-8 -48 -16.5 -94.5t-17.5 -91.5l-86 -436h-30zM390 726q-12 0 -20 8t-8 20q0 18 11 29t25 11q12 0 20 -8t8 -22q0 -17 -11 -27.5t-25 -10.5z" />
    <glyph glyph-name="uni1E46" unicode="&#x1e46;" horiz-adv-x="600" 
d="M172 660h34l184 -486l48 -132h4q8 47 15.5 94t16.5 94l86 430h30l-132 -660h-32l-182 484l-50 138h-4q-8 -48 -16.5 -94.5t-17.5 -91.5l-86 -436h-30zM226 -200q-12 0 -20 8t-8 20q0 18 11 29t25 11q12 0 20 -8t8 -22q0 -17 -11 -27.5t-25 -10.5z" />
    <glyph glyph-name="uni1E48" unicode="&#x1e48;" horiz-adv-x="600" 
d="M172 660h34l184 -486l48 -132h4q8 47 15.5 94t16.5 94l86 430h30l-132 -660h-32l-182 484l-50 138h-4q-8 -48 -16.5 -94.5t-17.5 -91.5l-86 -436h-30zM130 -136h212l-4 -26h-212z" />
    <glyph glyph-name="Ograve" unicode="&#xd2;" horiz-adv-x="612" 
d="M274 -12q-54 0 -94 20.5t-66 56.5t-39 86.5t-13 110.5q0 44 9 91.5t27 93t44.5 86.5t61 72t76.5 49t92 18q54 0 94 -20.5t66 -56.5t39 -86.5t13 -110.5q0 -44 -9 -91.5t-27 -93t-44.5 -86.5t-61 -72t-77 -49t-91.5 -18zM370 646q-45 0 -83 -17.5t-69 -46.5t-54.5 -67.5
t-39.5 -80.5t-24 -85.5t-8 -82.5q0 -56 10.5 -102t33 -79.5t57 -52t83.5 -18.5q67 0 119 37.5t87.5 94t53.5 123t18 125.5q0 55 -10.5 101.5t-33 80t-57 52t-83.5 18.5zM314 812h34l78 -102h-26z" />
    <glyph glyph-name="Oacute" unicode="&#xd3;" horiz-adv-x="612" 
d="M274 -12q-54 0 -94 20.5t-66 56.5t-39 86.5t-13 110.5q0 44 9 91.5t27 93t44.5 86.5t61 72t76.5 49t92 18q54 0 94 -20.5t66 -56.5t39 -86.5t13 -110.5q0 -44 -9 -91.5t-27 -93t-44.5 -86.5t-61 -72t-77 -49t-91.5 -18zM370 646q-45 0 -83 -17.5t-69 -46.5t-54.5 -67.5
t-39.5 -80.5t-24 -85.5t-8 -82.5q0 -56 10.5 -102t33 -79.5t57 -52t83.5 -18.5q67 0 119 37.5t87.5 94t53.5 123t18 125.5q0 55 -10.5 101.5t-33 80t-57 52t-83.5 18.5zM474 812h38l-120 -102h-28z" />
    <glyph glyph-name="Ocircumflex" unicode="&#xd4;" horiz-adv-x="612" 
d="M274 -12q-54 0 -94 20.5t-66 56.5t-39 86.5t-13 110.5q0 44 9 91.5t27 93t44.5 86.5t61 72t76.5 49t92 18q54 0 94 -20.5t66 -56.5t39 -86.5t13 -110.5q0 -44 -9 -91.5t-27 -93t-44.5 -86.5t-61 -72t-77 -49t-91.5 -18zM370 646q-45 0 -83 -17.5t-69 -46.5t-54.5 -67.5
t-39.5 -80.5t-24 -85.5t-8 -82.5q0 -56 10.5 -102t33 -79.5t57 -52t83.5 -18.5q67 0 119 37.5t87.5 94t53.5 123t18 125.5q0 55 -10.5 101.5t-33 80t-57 52t-83.5 18.5zM402 812h24l72 -102h-26l-58 76h-4l-90 -76h-30z" />
    <glyph glyph-name="Otilde" unicode="&#xd5;" horiz-adv-x="612" 
d="M274 -12q-54 0 -94 20.5t-66 56.5t-39 86.5t-13 110.5q0 44 9 91.5t27 93t44.5 86.5t61 72t76.5 49t92 18q54 0 94 -20.5t66 -56.5t39 -86.5t13 -110.5q0 -44 -9 -91.5t-27 -93t-44.5 -86.5t-61 -72t-77 -49t-91.5 -18zM370 646q-45 0 -83 -17.5t-69 -46.5t-54.5 -67.5
t-39.5 -80.5t-24 -85.5t-8 -82.5q0 -56 10.5 -102t33 -79.5t57 -52t83.5 -18.5q67 0 119 37.5t87.5 94t53.5 123t18 125.5q0 55 -10.5 101.5t-33 80t-57 52t-83.5 18.5zM275 718q3 14 10 29t17.5 27t24 20t29.5 8t28 -9.5t22.5 -21.5t21 -21.5t25.5 -9.5q19 0 32.5 17
t21.5 43h22q-3 -14 -10 -29t-17.5 -27t-24 -20t-29.5 -8q-17 0 -28.5 9.5t-22 21.5t-21 21.5t-25.5 9.5q-19 0 -32.5 -17t-21.5 -43h-22z" />
    <glyph glyph-name="Odieresis" unicode="&#xd6;" horiz-adv-x="612" 
d="M274 -12q-54 0 -94 20.5t-66 56.5t-39 86.5t-13 110.5q0 44 9 91.5t27 93t44.5 86.5t61 72t76.5 49t92 18q54 0 94 -20.5t66 -56.5t39 -86.5t13 -110.5q0 -44 -9 -91.5t-27 -93t-44.5 -86.5t-61 -72t-77 -49t-91.5 -18zM370 646q-45 0 -83 -17.5t-69 -46.5t-54.5 -67.5
t-39.5 -80.5t-24 -85.5t-8 -82.5q0 -56 10.5 -102t33 -79.5t57 -52t83.5 -18.5q67 0 119 37.5t87.5 94t53.5 123t18 125.5q0 55 -10.5 101.5t-33 80t-57 52t-83.5 18.5zM328 726q-26 0 -26 26q0 17 10 27.5t22 10.5q26 0 26 -28q0 -15 -10 -25.5t-22 -10.5zM474 726
q-26 0 -26 26q0 17 10 27.5t22 10.5q26 0 26 -28q0 -15 -10 -25.5t-22 -10.5z" />
    <glyph glyph-name="Omacron" unicode="&#x14c;" horiz-adv-x="612" 
d="M274 -12q-54 0 -94 20.5t-66 56.5t-39 86.5t-13 110.5q0 44 9 91.5t27 93t44.5 86.5t61 72t76.5 49t92 18q54 0 94 -20.5t66 -56.5t39 -86.5t13 -110.5q0 -44 -9 -91.5t-27 -93t-44.5 -86.5t-61 -72t-77 -49t-91.5 -18zM370 646q-45 0 -83 -17.5t-69 -46.5t-54.5 -67.5
t-39.5 -80.5t-24 -85.5t-8 -82.5q0 -56 10.5 -102t33 -79.5t57 -52t83.5 -18.5q67 0 119 37.5t87.5 94t53.5 123t18 125.5q0 55 -10.5 101.5t-33 80t-57 52t-83.5 18.5zM300 762h210l-6 -26h-210z" />
    <glyph glyph-name="Ohungarumlaut" unicode="&#x150;" horiz-adv-x="612" 
d="M274 -12q-54 0 -94 20.5t-66 56.5t-39 86.5t-13 110.5q0 44 9 91.5t27 93t44.5 86.5t61 72t76.5 49t92 18q54 0 94 -20.5t66 -56.5t39 -86.5t13 -110.5q0 -44 -9 -91.5t-27 -93t-44.5 -86.5t-61 -72t-77 -49t-91.5 -18zM370 646q-45 0 -83 -17.5t-69 -46.5t-54.5 -67.5
t-39.5 -80.5t-24 -85.5t-8 -82.5q0 -56 10.5 -102t33 -79.5t57 -52t83.5 -18.5q67 0 119 37.5t87.5 94t53.5 123t18 125.5q0 55 -10.5 101.5t-33 80t-57 52t-83.5 18.5zM400 814h34l-98 -104h-26zM532 814h34l-98 -104h-26z" />
    <glyph glyph-name="uni01D1" unicode="&#x1d1;" horiz-adv-x="612" 
d="M274 -12q-54 0 -94 20.5t-66 56.5t-39 86.5t-13 110.5q0 44 9 91.5t27 93t44.5 86.5t61 72t76.5 49t92 18q54 0 94 -20.5t66 -56.5t39 -86.5t13 -110.5q0 -44 -9 -91.5t-27 -93t-44.5 -86.5t-61 -72t-77 -49t-91.5 -18zM370 646q-45 0 -83 -17.5t-69 -46.5t-54.5 -67.5
t-39.5 -80.5t-24 -85.5t-8 -82.5q0 -56 10.5 -102t33 -79.5t57 -52t83.5 -18.5q67 0 119 37.5t87.5 94t53.5 123t18 125.5q0 55 -10.5 101.5t-33 80t-57 52t-83.5 18.5zM408 710h-24l-72 102h26l58 -76h4l90 76h30z" />
    <glyph glyph-name="uni1ECC" unicode="&#x1ecc;" horiz-adv-x="612" 
d="M274 -12q-54 0 -94 20.5t-66 56.5t-39 86.5t-13 110.5q0 44 9 91.5t27 93t44.5 86.5t61 72t76.5 49t92 18q54 0 94 -20.5t66 -56.5t39 -86.5t13 -110.5q0 -44 -9 -91.5t-27 -93t-44.5 -86.5t-61 -72t-77 -49t-91.5 -18zM370 646q-45 0 -83 -17.5t-69 -46.5t-54.5 -67.5
t-39.5 -80.5t-24 -85.5t-8 -82.5q0 -56 10.5 -102t33 -79.5t57 -52t83.5 -18.5q67 0 119 37.5t87.5 94t53.5 123t18 125.5q0 55 -10.5 101.5t-33 80t-57 52t-83.5 18.5zM240 -192q-12 0 -20 8t-8 20q0 18 11 29t25 11q12 0 20 -8t8 -22q0 -17 -11 -27.5t-25 -10.5z" />
    <glyph glyph-name="uni1ECE" unicode="&#x1ece;" horiz-adv-x="612" 
d="M274 -12q-54 0 -94 20.5t-66 56.5t-39 86.5t-13 110.5q0 44 9 91.5t27 93t44.5 86.5t61 72t76.5 49t92 18q54 0 94 -20.5t66 -56.5t39 -86.5t13 -110.5q0 -44 -9 -91.5t-27 -93t-44.5 -86.5t-61 -72t-77 -49t-91.5 -18zM370 646q-45 0 -83 -17.5t-69 -46.5t-54.5 -67.5
t-39.5 -80.5t-24 -85.5t-8 -82.5q0 -56 10.5 -102t33 -79.5t57 -52t83.5 -18.5q67 0 119 37.5t87.5 94t53.5 123t18 125.5q0 55 -10.5 101.5t-33 80t-57 52t-83.5 18.5zM358 858q51 -3 73.5 -20.5t22.5 -41.5q0 -38 -28 -59t-72 -35l-8 20q41 14 61.5 29t20.5 39
q0 20 -14.5 30.5t-59.5 15.5z" />
    <glyph glyph-name="uni1ED0" unicode="&#x1ed0;" horiz-adv-x="612" 
d="M274 -12q-54 0 -94 20.5t-66 56.5t-39 86.5t-13 110.5q0 44 9 91.5t27 93t44.5 86.5t61 72t76.5 49t92 18q54 0 94 -20.5t66 -56.5t39 -86.5t13 -110.5q0 -44 -9 -91.5t-27 -93t-44.5 -86.5t-61 -72t-77 -49t-91.5 -18zM370 646q-45 0 -83 -17.5t-69 -46.5t-54.5 -67.5
t-39.5 -80.5t-24 -85.5t-8 -82.5q0 -56 10.5 -102t33 -79.5t57 -52t83.5 -18.5q67 0 119 37.5t87.5 94t53.5 123t18 125.5q0 55 -10.5 101.5t-33 80t-57 52t-83.5 18.5zM566 872h32l-92 -104h-26zM402 806h24l70 -96h-26l-56 70h-4l-84 -70h-30z" />
    <glyph glyph-name="uni1ED2" unicode="&#x1ed2;" horiz-adv-x="612" 
d="M274 -12q-54 0 -94 20.5t-66 56.5t-39 86.5t-13 110.5q0 44 9 91.5t27 93t44.5 86.5t61 72t76.5 49t92 18q54 0 94 -20.5t66 -56.5t39 -86.5t13 -110.5q0 -44 -9 -91.5t-27 -93t-44.5 -86.5t-61 -72t-77 -49t-91.5 -18zM370 646q-45 0 -83 -17.5t-69 -46.5t-54.5 -67.5
t-39.5 -80.5t-24 -85.5t-8 -82.5q0 -56 10.5 -102t33 -79.5t57 -52t83.5 -18.5q67 0 119 37.5t87.5 94t53.5 123t18 125.5q0 55 -10.5 101.5t-33 80t-57 52t-83.5 18.5zM546 768h-22l-62 104h30zM402 806h24l70 -96h-26l-56 70h-4l-84 -70h-30z" />
    <glyph glyph-name="uni1ED4" unicode="&#x1ed4;" horiz-adv-x="612" 
d="M274 -12q-54 0 -94 20.5t-66 56.5t-39 86.5t-13 110.5q0 44 9 91.5t27 93t44.5 86.5t61 72t76.5 49t92 18q54 0 94 -20.5t66 -56.5t39 -86.5t13 -110.5q0 -44 -9 -91.5t-27 -93t-44.5 -86.5t-61 -72t-77 -49t-91.5 -18zM370 646q-45 0 -83 -17.5t-69 -46.5t-54.5 -67.5
t-39.5 -80.5t-24 -85.5t-8 -82.5q0 -56 10.5 -102t33 -79.5t57 -52t83.5 -18.5q67 0 119 37.5t87.5 94t53.5 123t18 125.5q0 55 -10.5 101.5t-33 80t-57 52t-83.5 18.5zM402 806h24l70 -96h-26l-56 70h-4l-84 -70h-30zM504 896q42 0 64 -15.5t22 -36.5q0 -35 -23 -55.5
t-65 -32.5l-8 20q38 10 54 25.5t16 36.5q0 17 -14 25.5t-50 10.5z" />
    <glyph glyph-name="uni1ED6" unicode="&#x1ed6;" horiz-adv-x="612" 
d="M274 -12q-54 0 -94 20.5t-66 56.5t-39 86.5t-13 110.5q0 44 9 91.5t27 93t44.5 86.5t61 72t76.5 49t92 18q54 0 94 -20.5t66 -56.5t39 -86.5t13 -110.5q0 -44 -9 -91.5t-27 -93t-44.5 -86.5t-61 -72t-77 -49t-91.5 -18zM370 646q-45 0 -83 -17.5t-69 -46.5t-54.5 -67.5
t-39.5 -80.5t-24 -85.5t-8 -82.5q0 -56 10.5 -102t33 -79.5t57 -52t83.5 -18.5q67 0 119 37.5t87.5 94t53.5 123t18 125.5q0 55 -10.5 101.5t-33 80t-57 52t-83.5 18.5zM402 806h24l70 -96h-26l-56 70h-4l-84 -70h-30zM307 840q3 14 9 28.5t16 26t22.5 18.5t27.5 7
q17 0 29.5 -9t23 -20t21 -20t25.5 -9q19 0 30.5 15t19.5 41h22q-3 -14 -9 -28.5t-16 -26t-22.5 -18.5t-27.5 -7q-17 0 -29.5 9t-23 20t-21 20t-25.5 9q-19 0 -30.5 -15t-19.5 -41h-22z" />
    <glyph glyph-name="uni1ED8" unicode="&#x1ed8;" horiz-adv-x="612" 
d="M274 -12q-54 0 -94 20.5t-66 56.5t-39 86.5t-13 110.5q0 44 9 91.5t27 93t44.5 86.5t61 72t76.5 49t92 18q54 0 94 -20.5t66 -56.5t39 -86.5t13 -110.5q0 -44 -9 -91.5t-27 -93t-44.5 -86.5t-61 -72t-77 -49t-91.5 -18zM370 646q-45 0 -83 -17.5t-69 -46.5t-54.5 -67.5
t-39.5 -80.5t-24 -85.5t-8 -82.5q0 -56 10.5 -102t33 -79.5t57 -52t83.5 -18.5q67 0 119 37.5t87.5 94t53.5 123t18 125.5q0 55 -10.5 101.5t-33 80t-57 52t-83.5 18.5zM402 812h24l72 -102h-26l-58 76h-4l-90 -76h-30zM240 -192q-12 0 -20 8t-8 20q0 18 11 29t25 11
q12 0 20 -8t8 -22q0 -17 -11 -27.5t-25 -10.5z" />
    <glyph glyph-name="Oslash" unicode="&#xd8;" horiz-adv-x="612" 
d="M129 94q23 -38 58.5 -59t88.5 -21q67 0 119 37.5t87.5 94t53.5 123t18 125.5q0 42 -5.5 78t-17.5 65zM519 561q-22 40 -58.5 62.5t-90.5 22.5q-45 0 -83 -17.5t-69 -46.5t-54.5 -67.5t-39.5 -80.5t-24 -85.5t-8 -82.5q0 -85 24 -145zM552 561q17 -34 24.5 -74.5
t7.5 -88.5q0 -44 -9 -91.5t-27 -93t-44.5 -86.5t-61 -72t-77 -49t-91.5 -18q-57 0 -98 22t-67 62l-85 -94l-22 18l93 101q-33 67 -33 165q0 44 9 91.5t27 93t44.5 86.5t61 72t76.5 49t92 18q58 0 100 -23t68 -65l86 94l16 -18z" />
    <glyph glyph-name="OE" unicode="&#x152;" horiz-adv-x="802" 
d="M62 256q0 84 22.5 157.5t66.5 128.5t110 86.5t153 31.5h418l-6 -26h-288l-54 -270h240l-6 -26h-238l-64 -312h298l-6 -26h-376q-68 0 -119 18.5t-84.5 52.5t-50 81t-16.5 104zM412 634q-77 0 -137 -30.5t-100.5 -82.5t-61.5 -120t-21 -143q0 -51 14.5 -93.5t44.5 -73.5
t75.5 -48t107.5 -17h54l122 608h-98z" />
    <glyph glyph-name="Ohorn" unicode="&#x1a0;" horiz-adv-x="612" 
d="M276 14q67 0 119 37.5t87.5 94t53.5 123t18 125.5q0 55 -10.5 101.5t-33 80t-57 52t-83.5 18.5q-45 0 -83 -17.5t-69 -46.5t-54.5 -67.5t-39.5 -80.5t-24 -85.5t-8 -82.5q0 -56 10.5 -102t33 -79.5t57 -52t83.5 -18.5zM620 758q8 -19 8 -36q0 -40 -31 -69t-82 -37
q35 -37 52 -93t17 -125q0 -44 -9 -91.5t-27 -93t-44.5 -86.5t-61 -72t-77 -49t-91.5 -18q-54 0 -94 20.5t-66 56.5t-39 86.5t-13 110.5q0 44 9 91.5t27 93t44.5 86.5t61 72t76.5 49t92 18q67 0 114 -32q23 0 43.5 5.5t35.5 15t24 23.5t9 32q0 8 -0.5 13.5t-3.5 16.5z" />
    <glyph glyph-name="uni1EDA" unicode="&#x1eda;" horiz-adv-x="612" 
d="M276 14q67 0 119 37.5t87.5 94t53.5 123t18 125.5q0 55 -10.5 101.5t-33 80t-57 52t-83.5 18.5q-45 0 -83 -17.5t-69 -46.5t-54.5 -67.5t-39.5 -80.5t-24 -85.5t-8 -82.5q0 -56 10.5 -102t33 -79.5t57 -52t83.5 -18.5zM620 758q8 -19 8 -36q0 -40 -31 -69t-82 -37
q35 -37 52 -93t17 -125q0 -44 -9 -91.5t-27 -93t-44.5 -86.5t-61 -72t-77 -49t-91.5 -18q-54 0 -94 20.5t-66 56.5t-39 86.5t-13 110.5q0 44 9 91.5t27 93t44.5 86.5t61 72t76.5 49t92 18q67 0 114 -32q23 0 43.5 5.5t35.5 15t24 23.5t9 32q0 8 -0.5 13.5t-3.5 16.5z
M472 812h38l-120 -102h-28z" />
    <glyph glyph-name="uni1EDC" unicode="&#x1edc;" horiz-adv-x="612" 
d="M276 14q67 0 119 37.5t87.5 94t53.5 123t18 125.5q0 55 -10.5 101.5t-33 80t-57 52t-83.5 18.5q-45 0 -83 -17.5t-69 -46.5t-54.5 -67.5t-39.5 -80.5t-24 -85.5t-8 -82.5q0 -56 10.5 -102t33 -79.5t57 -52t83.5 -18.5zM620 758q8 -19 8 -36q0 -40 -31 -69t-82 -37
q35 -37 52 -93t17 -125q0 -44 -9 -91.5t-27 -93t-44.5 -86.5t-61 -72t-77 -49t-91.5 -18q-54 0 -94 20.5t-66 56.5t-39 86.5t-13 110.5q0 44 9 91.5t27 93t44.5 86.5t61 72t76.5 49t92 18q67 0 114 -32q23 0 43.5 5.5t35.5 15t24 23.5t9 32q0 8 -0.5 13.5t-3.5 16.5z
M312 812h34l78 -102h-26z" />
    <glyph glyph-name="uni1EDE" unicode="&#x1ede;" horiz-adv-x="612" 
d="M276 14q67 0 119 37.5t87.5 94t53.5 123t18 125.5q0 55 -10.5 101.5t-33 80t-57 52t-83.5 18.5q-45 0 -83 -17.5t-69 -46.5t-54.5 -67.5t-39.5 -80.5t-24 -85.5t-8 -82.5q0 -56 10.5 -102t33 -79.5t57 -52t83.5 -18.5zM620 758q8 -19 8 -36q0 -40 -31 -69t-82 -37
q35 -37 52 -93t17 -125q0 -44 -9 -91.5t-27 -93t-44.5 -86.5t-61 -72t-77 -49t-91.5 -18q-54 0 -94 20.5t-66 56.5t-39 86.5t-13 110.5q0 44 9 91.5t27 93t44.5 86.5t61 72t76.5 49t92 18q67 0 114 -32q23 0 43.5 5.5t35.5 15t24 23.5t9 32q0 8 -0.5 13.5t-3.5 16.5z
M356 858q51 -3 73.5 -20.5t22.5 -41.5q0 -38 -28 -59t-72 -35l-8 20q41 14 61.5 29t20.5 39q0 20 -14.5 30.5t-59.5 15.5z" />
    <glyph glyph-name="uni1EE0" unicode="&#x1ee0;" horiz-adv-x="612" 
d="M276 14q67 0 119 37.5t87.5 94t53.5 123t18 125.5q0 55 -10.5 101.5t-33 80t-57 52t-83.5 18.5q-45 0 -83 -17.5t-69 -46.5t-54.5 -67.5t-39.5 -80.5t-24 -85.5t-8 -82.5q0 -56 10.5 -102t33 -79.5t57 -52t83.5 -18.5zM620 758q8 -19 8 -36q0 -40 -31 -69t-82 -37
q35 -37 52 -93t17 -125q0 -44 -9 -91.5t-27 -93t-44.5 -86.5t-61 -72t-77 -49t-91.5 -18q-54 0 -94 20.5t-66 56.5t-39 86.5t-13 110.5q0 44 9 91.5t27 93t44.5 86.5t61 72t76.5 49t92 18q67 0 114 -32q23 0 43.5 5.5t35.5 15t24 23.5t9 32q0 8 -0.5 13.5t-3.5 16.5z
M273 718q3 14 10 29t17.5 27t24 20t29.5 8t28 -9.5t22.5 -21.5t21 -21.5t25.5 -9.5q19 0 32.5 17t21.5 43h22q-3 -14 -10 -29t-17.5 -27t-24 -20t-29.5 -8q-17 0 -28.5 9.5t-22 21.5t-21 21.5t-25.5 9.5q-19 0 -32.5 -17t-21.5 -43h-22z" />
    <glyph glyph-name="uni1EE2" unicode="&#x1ee2;" horiz-adv-x="612" 
d="M276 14q67 0 119 37.5t87.5 94t53.5 123t18 125.5q0 55 -10.5 101.5t-33 80t-57 52t-83.5 18.5q-45 0 -83 -17.5t-69 -46.5t-54.5 -67.5t-39.5 -80.5t-24 -85.5t-8 -82.5q0 -56 10.5 -102t33 -79.5t57 -52t83.5 -18.5zM620 758q8 -19 8 -36q0 -40 -31 -69t-82 -37
q35 -37 52 -93t17 -125q0 -44 -9 -91.5t-27 -93t-44.5 -86.5t-61 -72t-77 -49t-91.5 -18q-54 0 -94 20.5t-66 56.5t-39 86.5t-13 110.5q0 44 9 91.5t27 93t44.5 86.5t61 72t76.5 49t92 18q67 0 114 -32q23 0 43.5 5.5t35.5 15t24 23.5t9 32q0 8 -0.5 13.5t-3.5 16.5z
M236 -192q-12 0 -20 8t-8 20q0 18 11 29t25 11q12 0 20 -8t8 -22q0 -17 -11 -27.5t-25 -10.5z" />
    <glyph glyph-name="uni01EA" unicode="&#x1ea;" horiz-adv-x="612" 
d="M370 646q-45 0 -83 -17.5t-69 -46.5t-54.5 -67.5t-39.5 -80.5t-24 -85.5t-8 -82.5q0 -56 10.5 -102t33 -79.5t57 -52t83.5 -18.5q67 0 119 37.5t87.5 94t53.5 123t18 125.5q0 55 -10.5 101.5t-33 80t-57 52t-83.5 18.5zM584 398q0 -61 -16 -124t-47 -118.5t-76 -97.5
t-103 -60q-68 -23 -99 -60t-31 -72q0 -20 10.5 -31t27.5 -11q12 0 21.5 3t20.5 9l10 -22q-29 -16 -54 -16q-29 0 -47.5 15t-18.5 47q0 19 8 39t20 37t26.5 30.5t27.5 21.5q-50 2 -88 22.5t-63.5 56.5t-38 85.5t-12.5 109.5q0 44 9 91.5t27 93t44.5 86.5t61 72t76.5 49t92 18
q54 0 94 -20.5t66 -56.5t39 -86.5t13 -110.5z" />
    <glyph glyph-name="Racute" unicode="&#x154;" horiz-adv-x="522" 
d="M260 336q112 0 172 47.5t60 132.5q0 65 -44.5 91.5t-133.5 26.5h-118l-58 -298h122zM332 660q89 0 139.5 -33.5t50.5 -108.5q0 -44 -16 -80.5t-45 -63t-69 -43t-87 -20.5l129 -311h-34l-127 310h-141l-62 -310h-30l132 660h160zM430 812h38l-120 -102h-28z" />
    <glyph glyph-name="Rcaron" unicode="&#x158;" horiz-adv-x="522" 
d="M260 336q112 0 172 47.5t60 132.5q0 65 -44.5 91.5t-133.5 26.5h-118l-58 -298h122zM332 660q89 0 139.5 -33.5t50.5 -108.5q0 -44 -16 -80.5t-45 -63t-69 -43t-87 -20.5l129 -311h-34l-127 310h-141l-62 -310h-30l132 660h160zM364 710h-24l-72 102h26l58 -76h4l90 76
h30z" />
    <glyph glyph-name="uni0156" unicode="&#x156;" horiz-adv-x="522" 
d="M260 336q112 0 172 47.5t60 132.5q0 65 -44.5 91.5t-133.5 26.5h-118l-58 -298h122zM332 660q89 0 139.5 -33.5t50.5 -108.5q0 -44 -16 -80.5t-45 -63t-69 -43t-87 -20.5l129 -311h-34l-127 310h-141l-62 -310h-30l132 660h160zM212 -58q23 -8 39.5 -20.5t16.5 -35.5
q0 -21 -10.5 -37t-28 -27.5t-40 -18.5t-45.5 -11l-4 20q42 9 72 25t30 43q0 20 -13.5 27.5t-28.5 12.5z" />
    <glyph glyph-name="uni1E5A" unicode="&#x1e5a;" horiz-adv-x="522" 
d="M260 336q112 0 172 47.5t60 132.5q0 65 -44.5 91.5t-133.5 26.5h-118l-58 -298h122zM332 660q89 0 139.5 -33.5t50.5 -108.5q0 -44 -16 -80.5t-45 -63t-69 -43t-87 -20.5l129 -311h-34l-127 310h-141l-62 -310h-30l132 660h160zM210 -200q-12 0 -20 8t-8 20q0 18 11 29
t25 11q12 0 20 -8t8 -22q0 -17 -11 -27.5t-25 -10.5z" />
    <glyph glyph-name="uni1E5C" unicode="&#x1e5c;" horiz-adv-x="522" 
d="M260 336q112 0 172 47.5t60 132.5q0 65 -44.5 91.5t-133.5 26.5h-118l-58 -298h122zM332 660q89 0 139.5 -33.5t50.5 -108.5q0 -44 -16 -80.5t-45 -63t-69 -43t-87 -20.5l129 -311h-34l-127 310h-141l-62 -310h-30l132 660h160zM256 762h210l-6 -26h-210zM210 -200
q-12 0 -20 8t-8 20q0 18 11 29t25 11q12 0 20 -8t8 -22q0 -17 -11 -27.5t-25 -10.5z" />
    <glyph glyph-name="uni1E5E" unicode="&#x1e5e;" horiz-adv-x="522" 
d="M260 336q112 0 172 47.5t60 132.5q0 65 -44.5 91.5t-133.5 26.5h-118l-58 -298h122zM332 660q89 0 139.5 -33.5t50.5 -108.5q0 -44 -16 -80.5t-45 -63t-69 -43t-87 -20.5l129 -311h-34l-127 310h-141l-62 -310h-30l132 660h160zM114 -136h212l-4 -26h-212z" />
    <glyph glyph-name="Sacute" unicode="&#x15a;" horiz-adv-x="488" 
d="M42 114q32 -48 77.5 -74t110.5 -26q37 0 69.5 11.5t56.5 32.5t38 51t14 67q0 45 -23.5 76t-62.5 54l-88 52q-20 12 -39 27t-33.5 33t-23 40t-8.5 48q0 33 13.5 63t37.5 53t58 36.5t75 13.5q60 0 105 -26t71 -62l-22 -18q-26 33 -66 56.5t-94 23.5q-34 0 -61 -12
t-46.5 -31.5t-30 -43.5t-10.5 -49q0 -48 26.5 -77t61.5 -49l86 -50q47 -27 75.5 -63.5t28.5 -90.5q0 -44 -16.5 -79t-45 -60.5t-67 -39t-83.5 -13.5q-71 0 -123 28.5t-85 81.5zM418 811h38l-120 -102h-28z" />
    <glyph glyph-name="Scircumflex" unicode="&#x15c;" horiz-adv-x="488" 
d="M42 114q32 -48 77.5 -74t110.5 -26q37 0 69.5 11.5t56.5 32.5t38 51t14 67q0 45 -23.5 76t-62.5 54l-88 52q-20 12 -39 27t-33.5 33t-23 40t-8.5 48q0 33 13.5 63t37.5 53t58 36.5t75 13.5q60 0 105 -26t71 -62l-22 -18q-26 33 -66 56.5t-94 23.5q-34 0 -61 -12
t-46.5 -31.5t-30 -43.5t-10.5 -49q0 -48 26.5 -77t61.5 -49l86 -50q47 -27 75.5 -63.5t28.5 -90.5q0 -44 -16.5 -79t-45 -60.5t-67 -39t-83.5 -13.5q-71 0 -123 28.5t-85 81.5zM346 811h24l72 -102h-26l-58 76h-4l-90 -76h-30z" />
    <glyph glyph-name="Scaron" unicode="&#x160;" horiz-adv-x="488" 
d="M42 114q32 -48 77.5 -74t110.5 -26q37 0 69.5 11.5t56.5 32.5t38 51t14 67q0 45 -23.5 76t-62.5 54l-88 52q-20 12 -39 27t-33.5 33t-23 40t-8.5 48q0 33 13.5 63t37.5 53t58 36.5t75 13.5q60 0 105 -26t71 -62l-22 -18q-26 33 -66 56.5t-94 23.5q-34 0 -61 -12
t-46.5 -31.5t-30 -43.5t-10.5 -49q0 -48 26.5 -77t61.5 -49l86 -50q47 -27 75.5 -63.5t28.5 -90.5q0 -44 -16.5 -79t-45 -60.5t-67 -39t-83.5 -13.5q-71 0 -123 28.5t-85 81.5zM352 709h-24l-72 102h26l58 -76h4l90 76h30z" />
    <glyph glyph-name="uni015E" unicode="&#x15e;" horiz-adv-x="488" 
d="M42 114q32 -48 77.5 -74t110.5 -26q37 0 69.5 11.5t56.5 32.5t38 51t14 67q0 45 -23.5 76t-62.5 54l-88 52q-20 12 -39 27t-33.5 33t-23 40t-8.5 48q0 33 13.5 63t37.5 53t58 36.5t75 13.5q60 0 105 -26t71 -62l-22 -18q-26 33 -66 56.5t-94 23.5q-34 0 -61 -12
t-46.5 -31.5t-30 -43.5t-10.5 -49q0 -48 26.5 -77t61.5 -49l86 -50q47 -27 75.5 -63.5t28.5 -90.5q0 -44 -16.5 -79t-45 -60.5t-67 -39t-83.5 -13.5q-71 0 -123 28.5t-85 81.5zM204 2h28l-44 -62q18 -6 32 -18.5t14 -35.5q0 -21 -10 -37t-26.5 -27.5t-38.5 -18.5t-45 -11
l-4 20q42 9 70 25t28 43q0 20 -14 29t-44 17z" />
    <glyph glyph-name="uni0218" unicode="&#x218;" horiz-adv-x="488" 
d="M42 114q32 -48 77.5 -74t110.5 -26q37 0 69.5 11.5t56.5 32.5t38 51t14 67q0 45 -23.5 76t-62.5 54l-88 52q-20 12 -39 27t-33.5 33t-23 40t-8.5 48q0 33 13.5 63t37.5 53t58 36.5t75 13.5q60 0 105 -26t71 -62l-22 -18q-26 33 -66 56.5t-94 23.5q-34 0 -61 -12
t-46.5 -31.5t-30 -43.5t-10.5 -49q0 -48 26.5 -77t61.5 -49l86 -50q47 -27 75.5 -63.5t28.5 -90.5q0 -44 -16.5 -79t-45 -60.5t-67 -39t-83.5 -13.5q-71 0 -123 28.5t-85 81.5zM182 -58q23 -8 39.5 -20.5t16.5 -35.5q0 -21 -10.5 -37t-28 -27.5t-40 -18.5t-45.5 -11l-4 20
q42 9 72 25t30 43q0 20 -13.5 27.5t-28.5 12.5z" />
    <glyph glyph-name="uni1E60" unicode="&#x1e60;" horiz-adv-x="488" 
d="M42 114q32 -48 77.5 -74t110.5 -26q37 0 69.5 11.5t56.5 32.5t38 51t14 67q0 45 -23.5 76t-62.5 54l-88 52q-20 12 -39 27t-33.5 33t-23 40t-8.5 48q0 33 13.5 63t37.5 53t58 36.5t75 13.5q60 0 105 -26t71 -62l-22 -18q-26 33 -66 56.5t-94 23.5q-34 0 -61 -12
t-46.5 -31.5t-30 -43.5t-10.5 -49q0 -48 26.5 -77t61.5 -49l86 -50q47 -27 75.5 -63.5t28.5 -90.5q0 -44 -16.5 -79t-45 -60.5t-67 -39t-83.5 -13.5q-71 0 -123 28.5t-85 81.5zM344 725q-12 0 -20 8t-8 20q0 18 11 29t25 11q12 0 20 -8t8 -22q0 -17 -11 -27.5t-25 -10.5z
" />
    <glyph glyph-name="uni1E62" unicode="&#x1e62;" horiz-adv-x="488" 
d="M42 114q32 -48 77.5 -74t110.5 -26q37 0 69.5 11.5t56.5 32.5t38 51t14 67q0 45 -23.5 76t-62.5 54l-88 52q-20 12 -39 27t-33.5 33t-23 40t-8.5 48q0 33 13.5 63t37.5 53t58 36.5t75 13.5q60 0 105 -26t71 -62l-22 -18q-26 33 -66 56.5t-94 23.5q-34 0 -61 -12
t-46.5 -31.5t-30 -43.5t-10.5 -49q0 -48 26.5 -77t61.5 -49l86 -50q47 -27 75.5 -63.5t28.5 -90.5q0 -44 -16.5 -79t-45 -60.5t-67 -39t-83.5 -13.5q-71 0 -123 28.5t-85 81.5zM180 -200q-12 0 -20 8t-8 20q0 18 11 29t25 11q12 0 20 -8t8 -22q0 -17 -11 -27.5t-25 -10.5z
" />
    <glyph glyph-name="uni1E9E" unicode="&#x1e9e;" horiz-adv-x="602" 
d="M128 440q10 52 31.5 94.5t52.5 73t71.5 47.5t90.5 17q75 0 119.5 -33.5t68.5 -114.5l-190 -162q47 -13 82 -33t57.5 -44t33.5 -50.5t11 -52.5q0 -41 -13.5 -76t-38.5 -61.5t-59.5 -41.5t-76.5 -15q-59 0 -103 25.5t-71 70.5l24 16q27 -42 62.5 -64t89.5 -22q33 0 61.5 13
t49.5 35.5t33 52t12 61.5q0 24 -9 48t-31.5 46t-59.5 41t-92 33l4 24l192 164q-20 59 -59 86.5t-99 27.5q-78 0 -136.5 -53.5t-81.5 -168.5l-84 -424h-30z" />
    <glyph glyph-name="Tcaron" unicode="&#x164;" horiz-adv-x="492" 
d="M306 632h-206l6 28h442l-6 -28h-206l-126 -632h-30zM338 710h-24l-72 102h26l58 -76h4l90 76h30z" />
    <glyph glyph-name="uni0162" unicode="&#x162;" horiz-adv-x="492" 
d="M306 632h-206l6 28h442l-6 -28h-206l-126 -632h-30zM172 2h28l-44 -62q18 -6 32 -18.5t14 -35.5q0 -21 -10 -37t-26.5 -27.5t-38.5 -18.5t-45 -11l-4 20q42 9 70 25t28 43q0 20 -14 29t-44 17z" />
    <glyph glyph-name="uni021A" unicode="&#x21a;" horiz-adv-x="492" 
d="M306 632h-206l6 28h442l-6 -28h-206l-126 -632h-30zM172 -50q23 -8 39.5 -20.5t16.5 -35.5q0 -21 -10.5 -37t-28 -27.5t-40 -18.5t-45.5 -11l-4 20q42 9 72 25t30 43q0 20 -13.5 27.5t-28.5 12.5z" />
    <glyph glyph-name="uni1E6C" unicode="&#x1e6c;" horiz-adv-x="492" 
d="M306 632h-206l6 28h442l-6 -28h-206l-126 -632h-30zM170 -192q-12 0 -20 8t-8 20q0 18 11 29t25 11q12 0 20 -8t8 -22q0 -17 -11 -27.5t-25 -10.5z" />
    <glyph glyph-name="uni1E6E" unicode="&#x1e6e;" horiz-adv-x="492" 
d="M306 632h-206l6 28h442l-6 -28h-206l-126 -632h-30zM74 -128h212l-4 -26h-212z" />
    <glyph glyph-name="Ugrave" unicode="&#xd9;" horiz-adv-x="594" 
d="M170 660h30l-78 -390q-6 -24 -8 -44t-2 -38q0 -83 40 -128.5t120 -45.5q32 0 63 12t57.5 39t47 69.5t32.5 103.5l84 422h30l-86 -430q-14 -68 -37.5 -114t-54.5 -74.5t-67 -41t-73 -12.5q-88 0 -137 50t-49 142q0 20 1.5 39t6.5 43zM302 812h34l78 -102h-26z" />
    <glyph glyph-name="Uacute" unicode="&#xda;" horiz-adv-x="594" 
d="M170 660h30l-78 -390q-6 -24 -8 -44t-2 -38q0 -83 40 -128.5t120 -45.5q32 0 63 12t57.5 39t47 69.5t32.5 103.5l84 422h30l-86 -430q-14 -68 -37.5 -114t-54.5 -74.5t-67 -41t-73 -12.5q-88 0 -137 50t-49 142q0 20 1.5 39t6.5 43zM462 812h38l-120 -102h-28z" />
    <glyph glyph-name="Ucircumflex" unicode="&#xdb;" horiz-adv-x="594" 
d="M170 660h30l-78 -390q-6 -24 -8 -44t-2 -38q0 -83 40 -128.5t120 -45.5q32 0 63 12t57.5 39t47 69.5t32.5 103.5l84 422h30l-86 -430q-14 -68 -37.5 -114t-54.5 -74.5t-67 -41t-73 -12.5q-88 0 -137 50t-49 142q0 20 1.5 39t6.5 43zM390 812h24l72 -102h-26l-58 76h-4
l-90 -76h-30z" />
    <glyph glyph-name="Utilde" unicode="&#x168;" horiz-adv-x="594" 
d="M170 660h30l-78 -390q-6 -24 -8 -44t-2 -38q0 -83 40 -128.5t120 -45.5q32 0 63 12t57.5 39t47 69.5t32.5 103.5l84 422h30l-86 -430q-14 -68 -37.5 -114t-54.5 -74.5t-67 -41t-73 -12.5q-88 0 -137 50t-49 142q0 20 1.5 39t6.5 43zM263 718q3 14 10 29t17.5 27t24 20
t29.5 8t28 -9.5t22.5 -21.5t21 -21.5t25.5 -9.5q19 0 32.5 17t21.5 43h22q-3 -14 -10 -29t-17.5 -27t-24 -20t-29.5 -8q-17 0 -28.5 9.5t-22 21.5t-21 21.5t-25.5 9.5q-19 0 -32.5 -17t-21.5 -43h-22z" />
    <glyph glyph-name="Udieresis" unicode="&#xdc;" horiz-adv-x="594" 
d="M170 660h30l-78 -390q-6 -24 -8 -44t-2 -38q0 -83 40 -128.5t120 -45.5q32 0 63 12t57.5 39t47 69.5t32.5 103.5l84 422h30l-86 -430q-14 -68 -37.5 -114t-54.5 -74.5t-67 -41t-73 -12.5q-88 0 -137 50t-49 142q0 20 1.5 39t6.5 43zM316 726q-26 0 -26 26q0 17 10 27.5
t22 10.5q26 0 26 -28q0 -15 -10 -25.5t-22 -10.5zM462 726q-26 0 -26 26q0 17 10 27.5t22 10.5q26 0 26 -28q0 -15 -10 -25.5t-22 -10.5z" />
    <glyph glyph-name="Umacron" unicode="&#x16a;" horiz-adv-x="594" 
d="M170 660h30l-78 -390q-6 -24 -8 -44t-2 -38q0 -83 40 -128.5t120 -45.5q32 0 63 12t57.5 39t47 69.5t32.5 103.5l84 422h30l-86 -430q-14 -68 -37.5 -114t-54.5 -74.5t-67 -41t-73 -12.5q-88 0 -137 50t-49 142q0 20 1.5 39t6.5 43zM288 762h210l-6 -26h-210z" />
    <glyph glyph-name="Ubreve" unicode="&#x16c;" horiz-adv-x="594" 
d="M170 660h30l-78 -390q-6 -24 -8 -44t-2 -38q0 -83 40 -128.5t120 -45.5q32 0 63 12t57.5 39t47 69.5t32.5 103.5l84 422h30l-86 -430q-14 -68 -37.5 -114t-54.5 -74.5t-67 -41t-73 -12.5q-88 0 -137 50t-49 142q0 20 1.5 39t6.5 43zM382 710q-26 0 -43.5 10t-27 25.5
t-13 33.5t-2.5 33h22q-1 -14 2.5 -28t11.5 -24.5t21 -17t33 -6.5q38 0 61.5 24.5t34.5 51.5h24q-5 -17 -15.5 -35t-25.5 -33t-36 -24.5t-47 -9.5z" />
    <glyph glyph-name="Uring" unicode="&#x16e;" horiz-adv-x="594" 
d="M170 660h30l-78 -390q-6 -24 -8 -44t-2 -38q0 -83 40 -128.5t120 -45.5q32 0 63 12t57.5 39t47 69.5t32.5 103.5l84 422h30l-86 -430q-14 -68 -37.5 -114t-54.5 -74.5t-67 -41t-73 -12.5q-88 0 -137 50t-49 142q0 20 1.5 39t6.5 43zM386 698q-30 0 -50 18t-20 56t25.5 64
t60.5 26q30 0 50 -18t20 -56t-25.5 -64t-60.5 -26zM400 840q-24 0 -42 -18.5t-18 -47.5q0 -26 12.5 -40t35.5 -14q24 0 42 18.5t18 47.5q0 26 -12.5 40t-35.5 14z" />
    <glyph glyph-name="Uhungarumlaut" unicode="&#x170;" horiz-adv-x="594" 
d="M170 660h30l-78 -390q-6 -24 -8 -44t-2 -38q0 -83 40 -128.5t120 -45.5q32 0 63 12t57.5 39t47 69.5t32.5 103.5l84 422h30l-86 -430q-14 -68 -37.5 -114t-54.5 -74.5t-67 -41t-73 -12.5q-88 0 -137 50t-49 142q0 20 1.5 39t6.5 43zM388 814h34l-98 -104h-26zM520 814h34
l-98 -104h-26z" />
    <glyph glyph-name="uni01D3" unicode="&#x1d3;" horiz-adv-x="594" 
d="M170 660h30l-78 -390q-6 -24 -8 -44t-2 -38q0 -83 40 -128.5t120 -45.5q32 0 63 12t57.5 39t47 69.5t32.5 103.5l84 422h30l-86 -430q-14 -68 -37.5 -114t-54.5 -74.5t-67 -41t-73 -12.5q-88 0 -137 50t-49 142q0 20 1.5 39t6.5 43zM396 710h-24l-72 102h26l58 -76h4
l90 76h30z" />
    <glyph glyph-name="uni01D5" unicode="&#x1d5;" horiz-adv-x="594" 
d="M170 660h30l-78 -390q-6 -24 -8 -44t-2 -38q0 -83 40 -128.5t120 -45.5q32 0 63 12t57.5 39t47 69.5t32.5 103.5l84 422h30l-86 -430q-14 -68 -37.5 -114t-54.5 -74.5t-67 -41t-73 -12.5q-88 0 -137 50t-49 142q0 20 1.5 39t6.5 43zM320 726q-26 0 -26 28q0 14 9.5 26
t24.5 12q12 0 19 -8t7 -20q0 -15 -9.5 -26.5t-24.5 -11.5zM466 726q-11 0 -18.5 7t-7.5 21t10.5 26t25.5 12q11 0 18.5 -8t7.5 -20q0 -15 -10.5 -26.5t-25.5 -11.5zM314 878h210l-6 -26h-210z" />
    <glyph glyph-name="uni01D7" unicode="&#x1d7;" horiz-adv-x="594" 
d="M170 660h30l-78 -390q-6 -24 -8 -44t-2 -38q0 -83 40 -128.5t120 -45.5q32 0 63 12t57.5 39t47 69.5t32.5 103.5l84 422h30l-86 -430q-14 -68 -37.5 -114t-54.5 -74.5t-67 -41t-73 -12.5q-88 0 -137 50t-49 142q0 20 1.5 39t6.5 43zM486 928h36l-118 -102h-28zM314 726
q-11 0 -18.5 7t-7.5 21t10.5 26t25.5 12q11 0 18.5 -8t7.5 -20q0 -15 -9.5 -26.5t-26.5 -11.5zM462 726q-26 0 -26 28q0 14 9.5 26t26.5 12q11 0 18.5 -8t7.5 -20q0 -15 -10.5 -26.5t-25.5 -11.5z" />
    <glyph glyph-name="uni01D9" unicode="&#x1d9;" horiz-adv-x="594" 
d="M170 660h30l-78 -390q-6 -24 -8 -44t-2 -38q0 -83 40 -128.5t120 -45.5q32 0 63 12t57.5 39t47 69.5t32.5 103.5l84 422h30l-86 -430q-14 -68 -37.5 -114t-54.5 -74.5t-67 -41t-73 -12.5q-88 0 -137 50t-49 142q0 20 1.5 39t6.5 43zM314 726q-11 0 -18.5 7t-7.5 21
t10.5 26t25.5 12q11 0 18.5 -8t7.5 -20q0 -15 -9.5 -26.5t-26.5 -11.5zM462 726q-26 0 -26 28q0 14 9.5 26t26.5 12q11 0 18.5 -8t7.5 -20q0 -15 -10.5 -26.5t-25.5 -11.5zM322 928h26l58 -76h4l90 76h30l-112 -102h-24z" />
    <glyph glyph-name="uni01DB" unicode="&#x1db;" horiz-adv-x="594" 
d="M170 660h30l-78 -390q-6 -24 -8 -44t-2 -38q0 -83 40 -128.5t120 -45.5q32 0 63 12t57.5 39t47 69.5t32.5 103.5l84 422h30l-86 -430q-14 -68 -37.5 -114t-54.5 -74.5t-67 -41t-73 -12.5q-88 0 -137 50t-49 142q0 20 1.5 39t6.5 43zM328 928h32l80 -102h-26zM314 726
q-11 0 -18.5 7t-7.5 21t10.5 26t25.5 12q11 0 18.5 -8t7.5 -20q0 -15 -9.5 -26.5t-26.5 -11.5zM462 726q-26 0 -26 28q0 14 9.5 26t26.5 12q11 0 18.5 -8t7.5 -20q0 -15 -10.5 -26.5t-25.5 -11.5z" />
    <glyph glyph-name="uni1EE4" unicode="&#x1ee4;" horiz-adv-x="594" 
d="M170 660h30l-78 -390q-6 -24 -8 -44t-2 -38q0 -83 40 -128.5t120 -45.5q32 0 63 12t57.5 39t47 69.5t32.5 103.5l84 422h30l-86 -430q-14 -68 -37.5 -114t-54.5 -74.5t-67 -41t-73 -12.5q-88 0 -137 50t-49 142q0 20 1.5 39t6.5 43zM218 -192q-12 0 -20 8t-8 20
q0 18 11 29t25 11q12 0 20 -8t8 -22q0 -17 -11 -27.5t-25 -10.5z" />
    <glyph glyph-name="uni1EE6" unicode="&#x1ee6;" horiz-adv-x="594" 
d="M170 660h30l-78 -390q-6 -24 -8 -44t-2 -38q0 -83 40 -128.5t120 -45.5q32 0 63 12t57.5 39t47 69.5t32.5 103.5l84 422h30l-86 -430q-14 -68 -37.5 -114t-54.5 -74.5t-67 -41t-73 -12.5q-88 0 -137 50t-49 142q0 20 1.5 39t6.5 43zM346 858q51 -3 73.5 -20.5t22.5 -41.5
q0 -38 -28 -59t-72 -35l-8 20q41 14 61.5 29t20.5 39q0 20 -14.5 30.5t-59.5 15.5z" />
    <glyph glyph-name="Uogonek" unicode="&#x172;" horiz-adv-x="594" 
d="M500 230q-11 -56 -28.5 -95.5t-40.5 -67.5t-52 -46t-63 -29q-31 -10 -53 -25.5t-36.5 -32.5t-21.5 -35t-7 -33q0 -20 10.5 -31t27.5 -11q12 0 21.5 3t20.5 9l10 -22q-29 -16 -54 -16q-29 0 -47.5 15t-18.5 47t23.5 67t58.5 61q-81 8 -124.5 57t-43.5 135q0 20 1.5 39
t6.5 43l80 398h30l-78 -390q-6 -24 -8 -44t-2 -38q0 -83 40 -128.5t120 -45.5q32 0 63 12t57.5 39t47 69.5t32.5 103.5l84 422h30z" />
    <glyph glyph-name="Uhorn" unicode="&#x1af;" horiz-adv-x="600" 
d="M690 778q8 -19 8 -36q0 -37 -30 -67.5t-87 -37.5l-81 -407q-14 -68 -37.5 -114t-54.5 -74.5t-67 -41t-73 -12.5q-88 0 -137 50t-49 142q0 20 1.5 39t6.5 43l80 398h30l-78 -390q-6 -24 -8 -44t-2 -38q0 -83 40 -128.5t120 -45.5q32 0 63 12t57.5 39t47 69.5t32.5 103.5
l84 422h2q22 0 42 5.5t35 15.5t24 24t9 31q0 8 -0.5 13.5t-3.5 16.5z" />
    <glyph glyph-name="uni1EE8" unicode="&#x1ee8;" horiz-adv-x="600" 
d="M690 778q8 -19 8 -36q0 -37 -30 -67.5t-87 -37.5l-81 -407q-14 -68 -37.5 -114t-54.5 -74.5t-67 -41t-73 -12.5q-88 0 -137 50t-49 142q0 20 1.5 39t6.5 43l80 398h30l-78 -390q-6 -24 -8 -44t-2 -38q0 -83 40 -128.5t120 -45.5q32 0 63 12t57.5 39t47 69.5t32.5 103.5
l84 422h2q22 0 42 5.5t35 15.5t24 24t9 31q0 8 -0.5 13.5t-3.5 16.5zM460 812h38l-120 -102h-28z" />
    <glyph glyph-name="uni1EEA" unicode="&#x1eea;" horiz-adv-x="600" 
d="M690 778q8 -19 8 -36q0 -37 -30 -67.5t-87 -37.5l-81 -407q-14 -68 -37.5 -114t-54.5 -74.5t-67 -41t-73 -12.5q-88 0 -137 50t-49 142q0 20 1.5 39t6.5 43l80 398h30l-78 -390q-6 -24 -8 -44t-2 -38q0 -83 40 -128.5t120 -45.5q32 0 63 12t57.5 39t47 69.5t32.5 103.5
l84 422h2q22 0 42 5.5t35 15.5t24 24t9 31q0 8 -0.5 13.5t-3.5 16.5zM300 812h34l78 -102h-26z" />
    <glyph glyph-name="uni1EEC" unicode="&#x1eec;" horiz-adv-x="600" 
d="M690 778q8 -19 8 -36q0 -37 -30 -67.5t-87 -37.5l-81 -407q-14 -68 -37.5 -114t-54.5 -74.5t-67 -41t-73 -12.5q-88 0 -137 50t-49 142q0 20 1.5 39t6.5 43l80 398h30l-78 -390q-6 -24 -8 -44t-2 -38q0 -83 40 -128.5t120 -45.5q32 0 63 12t57.5 39t47 69.5t32.5 103.5
l84 422h2q22 0 42 5.5t35 15.5t24 24t9 31q0 8 -0.5 13.5t-3.5 16.5zM344 858q51 -3 73.5 -20.5t22.5 -41.5q0 -38 -28 -59t-72 -35l-8 20q41 14 61.5 29t20.5 39q0 20 -14.5 30.5t-59.5 15.5z" />
    <glyph glyph-name="uni1EEE" unicode="&#x1eee;" horiz-adv-x="600" 
d="M690 778q8 -19 8 -36q0 -37 -30 -67.5t-87 -37.5l-81 -407q-14 -68 -37.5 -114t-54.5 -74.5t-67 -41t-73 -12.5q-88 0 -137 50t-49 142q0 20 1.5 39t6.5 43l80 398h30l-78 -390q-6 -24 -8 -44t-2 -38q0 -83 40 -128.5t120 -45.5q32 0 63 12t57.5 39t47 69.5t32.5 103.5
l84 422h2q22 0 42 5.5t35 15.5t24 24t9 31q0 8 -0.5 13.5t-3.5 16.5zM261 718q3 14 10 29t17.5 27t24 20t29.5 8t28 -9.5t22.5 -21.5t21 -21.5t25.5 -9.5q19 0 32.5 17t21.5 43h22q-3 -14 -10 -29t-17.5 -27t-24 -20t-29.5 -8q-17 0 -28.5 9.5t-22 21.5t-21 21.5t-25.5 9.5
q-19 0 -32.5 -17t-21.5 -43h-22z" />
    <glyph glyph-name="uni1EF0" unicode="&#x1ef0;" horiz-adv-x="600" 
d="M690 778q8 -19 8 -36q0 -37 -30 -67.5t-87 -37.5l-81 -407q-14 -68 -37.5 -114t-54.5 -74.5t-67 -41t-73 -12.5q-88 0 -137 50t-49 142q0 20 1.5 39t6.5 43l80 398h30l-78 -390q-6 -24 -8 -44t-2 -38q0 -83 40 -128.5t120 -45.5q32 0 63 12t57.5 39t47 69.5t32.5 103.5
l84 422h2q22 0 42 5.5t35 15.5t24 24t9 31q0 8 -0.5 13.5t-3.5 16.5zM220 -192q-12 0 -20 8t-8 20q0 18 11 29t25 11q12 0 20 -8t8 -22q0 -17 -11 -27.5t-25 -10.5z" />
    <glyph glyph-name="Wgrave" unicode="&#x1e80;" horiz-adv-x="726" 
d="M108 660h30v-400q-2 -54 -1 -108t-1 -108h4q26 54 51 108t49 108l188 400h34l14 -400q3 -54 4.5 -108t3.5 -108h4q23 54 45.5 108t46.5 108l168 400h32l-284 -660h-38l-16 472q0 41 -1 78t-1 78h-4q-15 -41 -32.5 -78t-35.5 -78l-220 -472h-38zM364 812h34l78 -102h-26z
" />
    <glyph glyph-name="Wacute" unicode="&#x1e82;" horiz-adv-x="726" 
d="M108 660h30v-400q-2 -54 -1 -108t-1 -108h4q26 54 51 108t49 108l188 400h34l14 -400q3 -54 4.5 -108t3.5 -108h4q23 54 45.5 108t46.5 108l168 400h32l-284 -660h-38l-16 472q0 41 -1 78t-1 78h-4q-15 -41 -32.5 -78t-35.5 -78l-220 -472h-38zM524 812h38l-120 -102h-28
z" />
    <glyph glyph-name="Wcircumflex" unicode="&#x174;" horiz-adv-x="726" 
d="M108 660h30v-400q-2 -54 -1 -108t-1 -108h4q26 54 51 108t49 108l188 400h34l14 -400q3 -54 4.5 -108t3.5 -108h4q23 54 45.5 108t46.5 108l168 400h32l-284 -660h-38l-16 472q0 41 -1 78t-1 78h-4q-15 -41 -32.5 -78t-35.5 -78l-220 -472h-38zM452 812h24l72 -102h-26
l-58 76h-4l-90 -76h-30z" />
    <glyph glyph-name="Wdieresis" unicode="&#x1e84;" horiz-adv-x="726" 
d="M108 660h30v-400q-2 -54 -1 -108t-1 -108h4q26 54 51 108t49 108l188 400h34l14 -400q3 -54 4.5 -108t3.5 -108h4q23 54 45.5 108t46.5 108l168 400h32l-284 -660h-38l-16 472q0 41 -1 78t-1 78h-4q-15 -41 -32.5 -78t-35.5 -78l-220 -472h-38zM378 726q-26 0 -26 26
q0 17 10 27.5t22 10.5q26 0 26 -28q0 -15 -10 -25.5t-22 -10.5zM524 726q-26 0 -26 26q0 17 10 27.5t22 10.5q26 0 26 -28q0 -15 -10 -25.5t-22 -10.5z" />
    <glyph glyph-name="Ygrave" unicode="&#x1ef2;" horiz-adv-x="422" 
d="M195 273l-109 387h30l59 -215q10 -36 19 -70.5t20 -71.5h3q25 35 49 71t49 71l151 215h32l-273 -387l-55 -273h-30zM208 812h34l78 -102h-26z" />
    <glyph glyph-name="Yacute" unicode="&#xdd;" horiz-adv-x="422" 
d="M195 273l-109 387h30l59 -215q10 -36 19 -70.5t20 -71.5h3q25 35 49 71t49 71l151 215h32l-273 -387l-55 -273h-30zM368 812h38l-120 -102h-28z" />
    <glyph glyph-name="Ycircumflex" unicode="&#x176;" horiz-adv-x="422" 
d="M195 273l-109 387h30l59 -215q10 -36 19 -70.5t20 -71.5h3q25 35 49 71t49 71l151 215h32l-273 -387l-55 -273h-30zM296 812h24l72 -102h-26l-58 76h-4l-90 -76h-30z" />
    <glyph glyph-name="Ydieresis" unicode="&#x178;" horiz-adv-x="422" 
d="M195 273l-109 387h30l59 -215q10 -36 19 -70.5t20 -71.5h3q25 35 49 71t49 71l151 215h32l-273 -387l-55 -273h-30zM222 726q-26 0 -26 26q0 17 10 27.5t22 10.5q26 0 26 -28q0 -15 -10 -25.5t-22 -10.5zM368 726q-26 0 -26 26q0 17 10 27.5t22 10.5q26 0 26 -28
q0 -15 -10 -25.5t-22 -10.5z" />
    <glyph glyph-name="uni1E8E" unicode="&#x1e8e;" horiz-adv-x="422" 
d="M195 273l-109 387h30l59 -215q10 -36 19 -70.5t20 -71.5h3q25 35 49 71t49 71l151 215h32l-273 -387l-55 -273h-30zM294 726q-12 0 -20 8t-8 20q0 18 11 29t25 11q12 0 20 -8t8 -22q0 -17 -11 -27.5t-25 -10.5z" />
    <glyph glyph-name="uni1EF4" unicode="&#x1ef4;" horiz-adv-x="422" 
d="M195 273l-109 387h30l59 -215q10 -36 19 -70.5t20 -71.5h3q25 35 49 71t49 71l151 215h32l-273 -387l-55 -273h-30zM136 -200q-12 0 -20 8t-8 20q0 18 11 29t25 11q12 0 20 -8t8 -22q0 -17 -11 -27.5t-25 -10.5z" />
    <glyph glyph-name="uni1EF6" unicode="&#x1ef6;" horiz-adv-x="422" 
d="M195 273l-109 387h30l59 -215q10 -36 19 -70.5t20 -71.5h3q25 35 49 71t49 71l151 215h32l-273 -387l-55 -273h-30zM252 858q51 -3 73.5 -20.5t22.5 -41.5q0 -38 -28 -59t-72 -35l-8 20q41 14 61.5 29t20.5 39q0 20 -14.5 30.5t-59.5 15.5z" />
    <glyph glyph-name="uni1EF8" unicode="&#x1ef8;" horiz-adv-x="422" 
d="M195 273l-109 387h30l59 -215q10 -36 19 -70.5t20 -71.5h3q25 35 49 71t49 71l151 215h32l-273 -387l-55 -273h-30zM169 718q3 14 10 29t17.5 27t24 20t29.5 8t28 -9.5t22.5 -21.5t21 -21.5t25.5 -9.5q19 0 32.5 17t21.5 43h22q-3 -14 -10 -29t-17.5 -27t-24 -20
t-29.5 -8q-17 0 -28.5 9.5t-22 21.5t-21 21.5t-25.5 9.5q-19 0 -32.5 -17t-21.5 -43h-22z" />
    <glyph glyph-name="Zacute" unicode="&#x179;" horiz-adv-x="502" 
d="M6 18l480 616h-334l6 26h370l-4 -18l-478 -616h370l-6 -26h-408zM420 812h38l-120 -102h-28z" />
    <glyph glyph-name="Zcaron" unicode="&#x17d;" horiz-adv-x="502" 
d="M6 18l480 616h-334l6 26h370l-4 -18l-478 -616h370l-6 -26h-408zM354 710h-24l-72 102h26l58 -76h4l90 76h30z" />
    <glyph glyph-name="Zdotaccent" unicode="&#x17b;" horiz-adv-x="502" 
d="M6 18l480 616h-334l6 26h370l-4 -18l-478 -616h370l-6 -26h-408zM346 726q-12 0 -20 8t-8 20q0 18 11 29t25 11q12 0 20 -8t8 -22q0 -17 -11 -27.5t-25 -10.5z" />
    <glyph glyph-name="uni1E92" unicode="&#x1e92;" horiz-adv-x="502" 
d="M6 18l480 616h-334l6 26h370l-4 -18l-478 -616h370l-6 -26h-408zM176 -200q-12 0 -20 8t-8 20q0 18 11 29t25 11q12 0 20 -8t8 -22q0 -17 -11 -27.5t-25 -10.5z" />
    <glyph glyph-name="Eth" unicode="&#xd0;" horiz-adv-x="590" 
d="M214 26q77 0 137 30.5t100.5 82.5t61.5 120t21 143q0 51 -15 93.5t-45 73.5t-75.5 48t-106.5 17h-78l-54 -270h170l-6 -26h-169l-63 -312h122zM294 660q68 0 119 -18.5t84.5 -52.5t50 -81t16.5 -104q0 -84 -22.5 -157.5t-66.5 -128.5t-110 -86.5t-153 -31.5h-154l68 338
h-72l6 24l71 2l59 296h104z" />
    <glyph glyph-name="Thorn" unicode="&#xde;" horiz-adv-x="536" 
d="M172 660h30l-24 -124h136q91 0 141.5 -36t50.5 -114q0 -54 -19 -94.5t-55 -67.5t-87 -40.5t-115 -13.5h-126l-34 -170h-30zM224 196q125 0 188.5 47t63.5 141q0 68 -45.5 97t-134.5 29h-124l-62 -314h114z" />
    <glyph glyph-name="uni018F" unicode="&#x18f;" horiz-adv-x="610" 
d="M94 296q-9 -66 -1.5 -118.5t30 -88.5t57.5 -55.5t82 -19.5q52 0 98 21t83 58.5t63.5 89t38.5 113.5h-451zM194 594q35 33 84 55.5t102 22.5t91.5 -20t63.5 -56t37 -86.5t12 -111.5q0 -89 -25.5 -164t-69.5 -129.5t-103 -85.5t-126 -31q-48 0 -85 18t-62 50t-38 75.5
t-13 94.5q0 29 2.5 50.5t7.5 45.5h477q2 17 3.5 34.5t1.5 35.5q0 57 -9 104t-30 80t-54.5 51.5t-82.5 18.5q-47 0 -90 -20t-76 -52z" />
    <glyph glyph-name="agrave" unicode="&#xe0;" horiz-adv-x="524" 
d="M46 160q0 69 22 129t58.5 105t83 70.5t96.5 25.5q44 0 75 -22t51 -58h4l18 68h24l-96 -478h-24l12 78h-4q-38 -39 -83.5 -64.5t-96.5 -25.5q-63 0 -101.5 43.5t-38.5 128.5zM188 14q50 0 97.5 28.5t92.5 79.5l52 250q-29 50 -59.5 71t-66.5 21q-45 0 -86.5 -26t-73.5 -68
t-51 -95.5t-19 -108.5q0 -77 30.5 -114.5t83.5 -37.5zM276 704h34l60 -134h-24z" />
    <glyph glyph-name="aacute" unicode="&#xe1;" horiz-adv-x="524" 
d="M46 160q0 69 22 129t58.5 105t83 70.5t96.5 25.5q44 0 75 -22t51 -58h4l18 68h24l-96 -478h-24l12 78h-4q-38 -39 -83.5 -64.5t-96.5 -25.5q-63 0 -101.5 43.5t-38.5 128.5zM188 14q50 0 97.5 28.5t92.5 79.5l52 250q-29 50 -59.5 71t-66.5 21q-45 0 -86.5 -26t-73.5 -68
t-51 -95.5t-19 -108.5q0 -77 30.5 -114.5t83.5 -37.5zM386 704h38l-126 -134h-28z" />
    <glyph glyph-name="acircumflex" unicode="&#xe2;" horiz-adv-x="524" 
d="M46 160q0 69 22 129t58.5 105t83 70.5t96.5 25.5q44 0 75 -22t51 -58h4l18 68h24l-96 -478h-24l12 78h-4q-38 -39 -83.5 -64.5t-96.5 -25.5q-63 0 -101.5 43.5t-38.5 128.5zM188 14q50 0 97.5 28.5t92.5 79.5l52 250q-29 50 -59.5 71t-66.5 21q-45 0 -86.5 -26t-73.5 -68
t-51 -95.5t-19 -108.5q0 -77 30.5 -114.5t83.5 -37.5zM340 704h18l68 -134h-24l-56 100h-4l-96 -100h-28z" />
    <glyph glyph-name="atilde" unicode="&#xe3;" horiz-adv-x="524" 
d="M46 160q0 69 22 129t58.5 105t83 70.5t96.5 25.5q44 0 75 -22t51 -58h4l18 68h24l-96 -478h-24l12 78h-4q-38 -39 -83.5 -64.5t-96.5 -25.5q-63 0 -101.5 43.5t-38.5 128.5zM188 14q50 0 97.5 28.5t92.5 79.5l52 250q-29 50 -59.5 71t-66.5 21q-45 0 -86.5 -26t-73.5 -68
t-51 -95.5t-19 -108.5q0 -77 30.5 -114.5t83.5 -37.5zM208 582q4 15 11 29.5t16 26.5t21 19t26 7q21 0 33.5 -9.5t23 -20.5t20.5 -20.5t27 -9.5q14 0 26.5 17t21.5 41h22q-9 -30 -27.5 -56t-46.5 -26q-21 0 -33.5 9.5t-23 20.5t-21 20.5t-26.5 9.5q-14 0 -26.5 -17
t-21.5 -41h-22z" />
    <glyph glyph-name="adieresis" unicode="&#xe4;" horiz-adv-x="524" 
d="M46 160q0 69 22 129t58.5 105t83 70.5t96.5 25.5q44 0 75 -22t51 -58h4l18 68h24l-96 -478h-24l12 78h-4q-38 -39 -83.5 -64.5t-96.5 -25.5q-63 0 -101.5 43.5t-38.5 128.5zM188 14q50 0 97.5 28.5t92.5 79.5l52 250q-29 50 -59.5 71t-66.5 21q-45 0 -86.5 -26t-73.5 -68
t-51 -95.5t-19 -108.5q0 -77 30.5 -114.5t83.5 -37.5zM260 602q-26 0 -26 26q0 17 10 27.5t22 10.5q26 0 26 -28q0 -15 -10 -25.5t-22 -10.5zM406 602q-26 0 -26 26q0 17 10 27.5t22 10.5q26 0 26 -28q0 -15 -10 -25.5t-22 -10.5z" />
    <glyph glyph-name="amacron" unicode="&#x101;" horiz-adv-x="524" 
d="M46 160q0 69 22 129t58.5 105t83 70.5t96.5 25.5q44 0 75 -22t51 -58h4l18 68h24l-96 -478h-24l12 78h-4q-38 -39 -83.5 -64.5t-96.5 -25.5q-63 0 -101.5 43.5t-38.5 128.5zM188 14q50 0 97.5 28.5t92.5 79.5l52 250q-29 50 -59.5 71t-66.5 21q-45 0 -86.5 -26t-73.5 -68
t-51 -95.5t-19 -108.5q0 -77 30.5 -114.5t83.5 -37.5zM228 634h212l-4 -26h-212z" />
    <glyph glyph-name="abreve" unicode="&#x103;" horiz-adv-x="524" 
d="M46 160q0 69 22 129t58.5 105t83 70.5t96.5 25.5q44 0 75 -22t51 -58h4l18 68h24l-96 -478h-24l12 78h-4q-38 -39 -83.5 -64.5t-96.5 -25.5q-63 0 -101.5 43.5t-38.5 128.5zM188 14q50 0 97.5 28.5t92.5 79.5l52 250q-29 50 -59.5 71t-66.5 21q-45 0 -86.5 -26t-73.5 -68
t-51 -95.5t-19 -108.5q0 -77 30.5 -114.5t83.5 -37.5zM324 576q-29 0 -46.5 10.5t-26.5 27t-12 36.5t-1 40h22q-3 -41 12.5 -65.5t53.5 -24.5t65 26t41 64h24q-7 -20 -17.5 -40t-26.5 -36.5t-38 -27t-50 -10.5z" />
    <glyph glyph-name="aring" unicode="&#xe5;" horiz-adv-x="524" 
d="M46 160q0 69 22 129t58.5 105t83 70.5t96.5 25.5q44 0 75 -22t51 -58h4l18 68h24l-96 -478h-24l12 78h-4q-38 -39 -83.5 -64.5t-96.5 -25.5q-63 0 -101.5 43.5t-38.5 128.5zM188 14q50 0 97.5 28.5t92.5 79.5l52 250q-29 50 -59.5 71t-66.5 21q-45 0 -86.5 -26t-73.5 -68
t-51 -95.5t-19 -108.5q0 -77 30.5 -114.5t83.5 -37.5zM324 534q-30 0 -50 19t-20 57q0 19 7 36t19 30t27.5 20.5t32.5 7.5q30 0 50 -19t20 -57q0 -19 -7 -36t-19 -30t-27.5 -20.5t-32.5 -7.5zM338 682q-24 0 -42 -20.5t-18 -49.5q0 -26 12.5 -41t35.5 -15q24 0 42 20.5
t18 49.5q0 26 -12.5 41t-35.5 15z" />
    <glyph glyph-name="uni01CE" unicode="&#x1ce;" horiz-adv-x="524" 
d="M46 160q0 69 22 129t58.5 105t83 70.5t96.5 25.5q44 0 75 -22t51 -58h4l18 68h24l-96 -478h-24l12 78h-4q-38 -39 -83.5 -64.5t-96.5 -25.5q-63 0 -101.5 43.5t-38.5 128.5zM188 14q50 0 97.5 28.5t92.5 79.5l52 250q-29 50 -59.5 71t-66.5 21q-45 0 -86.5 -26t-73.5 -68
t-51 -95.5t-19 -108.5q0 -77 30.5 -114.5t83.5 -37.5zM332 570h-18l-68 134h24l56 -100h4l96 100h28z" />
    <glyph glyph-name="uni1EA1" unicode="&#x1ea1;" horiz-adv-x="524" 
d="M46 160q0 69 22 129t58.5 105t83 70.5t96.5 25.5q44 0 75 -22t51 -58h4l18 68h24l-96 -478h-24l12 78h-4q-38 -39 -83.5 -64.5t-96.5 -25.5q-63 0 -101.5 43.5t-38.5 128.5zM188 14q50 0 97.5 28.5t92.5 79.5l52 250q-29 50 -59.5 71t-66.5 21q-45 0 -86.5 -26t-73.5 -68
t-51 -95.5t-19 -108.5q0 -77 30.5 -114.5t83.5 -37.5zM194 -192q-12 0 -20 8t-8 20q0 18 11 29t25 11q12 0 20 -8t8 -22q0 -17 -11 -27.5t-25 -10.5z" />
    <glyph glyph-name="uni1EA3" unicode="&#x1ea3;" horiz-adv-x="524" 
d="M46 160q0 69 22 129t58.5 105t83 70.5t96.5 25.5q44 0 75 -22t51 -58h4l18 68h24l-96 -478h-24l12 78h-4q-38 -39 -83.5 -64.5t-96.5 -25.5q-63 0 -101.5 43.5t-38.5 128.5zM188 14q50 0 97.5 28.5t92.5 79.5l52 250q-29 50 -59.5 71t-66.5 21q-45 0 -86.5 -26t-73.5 -68
t-51 -95.5t-19 -108.5q0 -77 30.5 -114.5t83.5 -37.5zM308 706q51 -3 73.5 -20.5t22.5 -41.5q0 -38 -28 -59t-72 -35l-8 20q41 14 61.5 29t20.5 39q0 20 -14.5 30.5t-59.5 15.5z" />
    <glyph glyph-name="uni1EA5" unicode="&#x1ea5;" horiz-adv-x="524" 
d="M46 160q0 69 22 129t58.5 105t83 70.5t96.5 25.5q44 0 75 -22t51 -58h4l18 68h24l-96 -478h-24l12 78h-4q-38 -39 -83.5 -64.5t-96.5 -25.5q-63 0 -101.5 43.5t-38.5 128.5zM188 14q50 0 97.5 28.5t92.5 79.5l52 250q-29 50 -59.5 71t-66.5 21q-45 0 -86.5 -26t-73.5 -68
t-51 -95.5t-19 -108.5q0 -77 30.5 -114.5t83.5 -37.5zM334 682h18l60 -112h-24l-48 78h-4l-80 -78h-28zM506 744h36l-102 -110h-28z" />
    <glyph glyph-name="uni1EA7" unicode="&#x1ea7;" horiz-adv-x="524" 
d="M46 160q0 69 22 129t58.5 105t83 70.5t96.5 25.5q44 0 75 -22t51 -58h4l18 68h24l-96 -478h-24l12 78h-4q-38 -39 -83.5 -64.5t-96.5 -25.5q-63 0 -101.5 43.5t-38.5 128.5zM188 14q50 0 97.5 28.5t92.5 79.5l52 250q-29 50 -59.5 71t-66.5 21q-45 0 -86.5 -26t-73.5 -68
t-51 -95.5t-19 -108.5q0 -77 30.5 -114.5t83.5 -37.5zM486 634h-24l-60 110h32zM334 682h18l60 -112h-24l-48 78h-4l-80 -78h-28z" />
    <glyph glyph-name="uni1EA9" unicode="&#x1ea9;" horiz-adv-x="524" 
d="M46 160q0 69 22 129t58.5 105t83 70.5t96.5 25.5q44 0 75 -22t51 -58h4l18 68h24l-96 -478h-24l12 78h-4q-38 -39 -83.5 -64.5t-96.5 -25.5q-63 0 -101.5 43.5t-38.5 128.5zM188 14q50 0 97.5 28.5t92.5 79.5l52 250q-29 50 -59.5 71t-66.5 21q-45 0 -86.5 -26t-73.5 -68
t-51 -95.5t-19 -108.5q0 -77 30.5 -114.5t83.5 -37.5zM430 774q42 -3 64 -19.5t22 -40.5q0 -35 -23.5 -55.5t-64.5 -32.5l-8 20q38 11 54 26t16 36q0 20 -14 29.5t-50 14.5zM334 682h18l60 -112h-24l-48 78h-4l-80 -78h-28z" />
    <glyph glyph-name="uni1EAB" unicode="&#x1eab;" horiz-adv-x="524" 
d="M46 160q0 69 22 129t58.5 105t83 70.5t96.5 25.5q44 0 75 -22t51 -58h4l18 68h24l-96 -478h-24l12 78h-4q-38 -39 -83.5 -64.5t-96.5 -25.5q-63 0 -101.5 43.5t-38.5 128.5zM188 14q50 0 97.5 28.5t92.5 79.5l52 250q-29 50 -59.5 71t-66.5 21q-45 0 -86.5 -26t-73.5 -68
t-51 -95.5t-19 -108.5q0 -77 30.5 -114.5t83.5 -37.5zM424 570h-24l-62 64h-4l-86 -64h-30l110 94h24zM238 702q8 27 27 49.5t43 22.5q20 0 32.5 -8t22 -17t19 -17t24.5 -8q12 0 26 14t20 34h22q-8 -27 -27 -49.5t-43 -22.5q-20 0 -32.5 8t-22 17t-19 17t-24.5 8
q-12 0 -26 -14t-20 -34h-22z" />
    <glyph glyph-name="uni1EAD" unicode="&#x1ead;" horiz-adv-x="524" 
d="M46 160q0 69 22 129t58.5 105t83 70.5t96.5 25.5q44 0 75 -22t51 -58h4l18 68h24l-96 -478h-24l12 78h-4q-38 -39 -83.5 -64.5t-96.5 -25.5q-63 0 -101.5 43.5t-38.5 128.5zM188 14q50 0 97.5 28.5t92.5 79.5l52 250q-29 50 -59.5 71t-66.5 21q-45 0 -86.5 -26t-73.5 -68
t-51 -95.5t-19 -108.5q0 -77 30.5 -114.5t83.5 -37.5zM340 704h18l68 -134h-24l-56 100h-4l-96 -100h-28zM194 -192q-12 0 -20 8t-8 20q0 18 11 29t25 11q12 0 20 -8t8 -22q0 -17 -11 -27.5t-25 -10.5z" />
    <glyph glyph-name="uni1EAF" unicode="&#x1eaf;" horiz-adv-x="524" 
d="M46 160q0 69 22 129t58.5 105t83 70.5t96.5 25.5q44 0 75 -22t51 -58h4l18 68h24l-96 -478h-24l12 78h-4q-38 -39 -83.5 -64.5t-96.5 -25.5q-63 0 -101.5 43.5t-38.5 128.5zM188 14q50 0 97.5 28.5t92.5 79.5l52 250q-29 50 -59.5 71t-66.5 21q-45 0 -86.5 -26t-73.5 -68
t-51 -95.5t-19 -108.5q0 -77 30.5 -114.5t83.5 -37.5zM407 772h36l-106 -108h-28zM323 576q-29 0 -46.5 10.5t-26.5 27t-12 36.5t-1 40h22q-3 -41 12.5 -65.5t53.5 -24.5t65 26t41 64h24q-7 -20 -17.5 -40t-26.5 -36.5t-38 -27t-50 -10.5z" />
    <glyph glyph-name="uni1EB1" unicode="&#x1eb1;" horiz-adv-x="524" 
d="M46 160q0 69 22 129t58.5 105t83 70.5t96.5 25.5q44 0 75 -22t51 -58h4l18 68h24l-96 -478h-24l12 78h-4q-38 -39 -83.5 -64.5t-96.5 -25.5q-63 0 -101.5 43.5t-38.5 128.5zM188 14q50 0 97.5 28.5t92.5 79.5l52 250q-29 50 -59.5 71t-66.5 21q-45 0 -86.5 -26t-73.5 -68
t-51 -95.5t-19 -108.5q0 -77 30.5 -114.5t83.5 -37.5zM323 576q-29 0 -46.5 10.5t-26.5 27t-12 36.5t-1 40h22q-3 -41 12.5 -65.5t53.5 -24.5t65 26t41 64h24q-7 -20 -17.5 -40t-26.5 -36.5t-38 -27t-50 -10.5zM369 664h-24l-60 108h30z" />
    <glyph glyph-name="uni1EB3" unicode="&#x1eb3;" horiz-adv-x="524" 
d="M46 160q0 69 22 129t58.5 105t83 70.5t96.5 25.5q44 0 75 -22t51 -58h4l18 68h24l-96 -478h-24l12 78h-4q-38 -39 -83.5 -64.5t-96.5 -25.5q-63 0 -101.5 43.5t-38.5 128.5zM188 14q50 0 97.5 28.5t92.5 79.5l52 250q-29 50 -59.5 71t-66.5 21q-45 0 -86.5 -26t-73.5 -68
t-51 -95.5t-19 -108.5q0 -77 30.5 -114.5t83.5 -37.5zM325 814q41 -3 61.5 -18.5t20.5 -39.5q0 -34 -22 -53t-60 -33l-8 20q35 12 49.5 26t14.5 34t-12.5 28.5t-47.5 13.5zM323 576q-29 0 -46.5 10.5t-26.5 27t-12 36.5t-1 40h22q-3 -41 12.5 -65.5t53.5 -24.5t65 26t41 64
h24q-7 -20 -17.5 -40t-26.5 -36.5t-38 -27t-50 -10.5z" />
    <glyph glyph-name="uni1EB5" unicode="&#x1eb5;" horiz-adv-x="524" 
d="M46 160q0 69 22 129t58.5 105t83 70.5t96.5 25.5q44 0 75 -22t51 -58h4l18 68h24l-96 -478h-24l12 78h-4q-38 -39 -83.5 -64.5t-96.5 -25.5q-63 0 -101.5 43.5t-38.5 128.5zM188 14q50 0 97.5 28.5t92.5 79.5l52 250q-29 50 -59.5 71t-66.5 21q-45 0 -86.5 -26t-73.5 -68
t-51 -95.5t-19 -108.5q0 -77 30.5 -114.5t83.5 -37.5zM322 576q-27 0 -44 9.5t-26.5 24t-13 31.5t-2.5 33h22q-2 -32 14.5 -53t51.5 -21t63.5 22.5t42.5 51.5h24q-7 -16 -18 -33t-27.5 -31.5t-38 -24t-48.5 -9.5zM238 702q8 27 27 49.5t43 22.5q20 0 32.5 -8t22 -17t19 -17
t24.5 -8q12 0 26 14t20 34h22q-8 -27 -27 -49.5t-43 -22.5q-20 0 -32.5 8t-22 17t-19 17t-24.5 8q-12 0 -26 -14t-20 -34h-22z" />
    <glyph glyph-name="uni1EB7" unicode="&#x1eb7;" horiz-adv-x="524" 
d="M46 160q0 69 22 129t58.5 105t83 70.5t96.5 25.5q44 0 75 -22t51 -58h4l18 68h24l-96 -478h-24l12 78h-4q-38 -39 -83.5 -64.5t-96.5 -25.5q-63 0 -101.5 43.5t-38.5 128.5zM188 14q50 0 97.5 28.5t92.5 79.5l52 250q-29 50 -59.5 71t-66.5 21q-45 0 -86.5 -26t-73.5 -68
t-51 -95.5t-19 -108.5q0 -77 30.5 -114.5t83.5 -37.5zM324 576q-29 0 -46.5 10.5t-26.5 27t-12 36.5t-1 40h22q-3 -41 12.5 -65.5t53.5 -24.5t65 26t41 64h24q-7 -20 -17.5 -40t-26.5 -36.5t-38 -27t-50 -10.5zM194 -192q-12 0 -20 8t-8 20q0 18 11 29t25 11q12 0 20 -8
t8 -22q0 -17 -11 -27.5t-25 -10.5z" />
    <glyph glyph-name="aogonek" unicode="&#x105;" horiz-adv-x="524" 
d="M46 160q0 69 22 129t58.5 105t83 70.5t96.5 25.5q44 0 76 -23t52 -59h2l18 70h24l-96 -478q-53 -30 -83.5 -64.5t-30.5 -69.5q0 -20 10.5 -31t27.5 -11q12 0 21.5 3t20.5 9l10 -22q-29 -16 -54 -16q-29 0 -47.5 15t-18.5 47q0 21 10 42.5t26.5 41t38.5 36.5t47 30l10 70
h-2q-38 -39 -84.5 -65.5t-97.5 -26.5q-63 0 -101.5 43.5t-38.5 128.5zM188 14q42 0 93.5 28.5t96.5 79.5l52 252q-29 50 -59.5 70t-66.5 20q-45 0 -86.5 -26t-73.5 -68t-51 -95.5t-19 -108.5q0 -77 30.5 -114.5t83.5 -37.5z" />
    <glyph glyph-name="ae" unicode="&#xe6;" horiz-adv-x="766" 
d="M40 102q0 49 23.5 84.5t66.5 58t104 34.5t136 15q5 20 6.5 33.5t1.5 28.5q0 51 -22 79.5t-76 28.5q-35 0 -72 -13.5t-72 -34.5l-12 24q33 20 75 35t83 15q54 0 87.5 -29t36.5 -89q35 54 83 86t99 32q38 0 65 -12.5t44 -35t25 -53t8 -67.5q0 -24 -3.5 -44.5t-8.5 -35.5
h-328q-10 -50 -4.5 -91.5t23.5 -72t46.5 -47.5t66.5 -17q35 0 67 14t59 34l14 -22q-29 -21 -65 -36.5t-77 -15.5q-53 0 -94 30.5t-56 77.5q-51 -51 -104.5 -79.5t-107.5 -28.5q-23 0 -44.5 7t-38 21.5t-26 35.5t-9.5 50zM696 268q3 15 4.5 29t1.5 31q0 25 -6 49.5t-19.5 44
t-36 31t-54.5 11.5q-29 0 -59 -14.5t-55.5 -40.5t-45.5 -62t-30 -79h300zM366 268q-67 -2 -122 -12t-94 -29.5t-60.5 -49t-21.5 -69.5q0 -47 27.5 -70.5t68.5 -23.5q39 0 91.5 26t106.5 82q-3 21 -4 39t-0.5 35t2.5 34.5t6 37.5z" />
    <glyph glyph-name="ccedilla" unicode="&#xe7;" horiz-adv-x="428" 
d="M44 176q0 70 22 128t58 99.5t81.5 64t92.5 22.5q41 0 68.5 -15.5t51.5 -42.5l-20 -20q-23 27 -45 39.5t-57 12.5q-42 0 -82.5 -22.5t-72 -61.5t-50.5 -90t-19 -108q0 -83 34.5 -125.5t105.5 -42.5q38 0 70.5 15.5t59.5 36.5l16 -22q-26 -20 -62 -38t-86 -18
q-77 0 -121.5 48.5t-44.5 139.5zM192 2h28l-44 -62q18 -6 32 -18.5t14 -35.5q0 -21 -10 -37t-26.5 -27.5t-38.5 -18.5t-45 -11l-4 20q42 9 70 25t28 43q0 20 -14 29t-44 17z" />
    <glyph glyph-name="cacute" unicode="&#x107;" horiz-adv-x="428" 
d="M44 176q0 70 22 128t58 99.5t81.5 64t92.5 22.5q41 0 68.5 -15.5t51.5 -42.5l-20 -20q-23 27 -45 39.5t-57 12.5q-42 0 -82.5 -22.5t-72 -61.5t-50.5 -90t-19 -108q0 -83 34.5 -125.5t105.5 -42.5q38 0 70.5 15.5t59.5 36.5l16 -22q-26 -20 -62 -38t-86 -18
q-77 0 -121.5 48.5t-44.5 139.5zM374 704h38l-126 -134h-28z" />
    <glyph glyph-name="ccircumflex" unicode="&#x109;" horiz-adv-x="428" 
d="M44 176q0 70 22 128t58 99.5t81.5 64t92.5 22.5q41 0 68.5 -15.5t51.5 -42.5l-20 -20q-23 27 -45 39.5t-57 12.5q-42 0 -82.5 -22.5t-72 -61.5t-50.5 -90t-19 -108q0 -83 34.5 -125.5t105.5 -42.5q38 0 70.5 15.5t59.5 36.5l16 -22q-26 -20 -62 -38t-86 -18
q-77 0 -121.5 48.5t-44.5 139.5zM328 704h18l68 -134h-24l-56 100h-4l-96 -100h-28z" />
    <glyph glyph-name="ccaron" unicode="&#x10d;" horiz-adv-x="428" 
d="M44 176q0 70 22 128t58 99.5t81.5 64t92.5 22.5q41 0 68.5 -15.5t51.5 -42.5l-20 -20q-23 27 -45 39.5t-57 12.5q-42 0 -82.5 -22.5t-72 -61.5t-50.5 -90t-19 -108q0 -83 34.5 -125.5t105.5 -42.5q38 0 70.5 15.5t59.5 36.5l16 -22q-26 -20 -62 -38t-86 -18
q-77 0 -121.5 48.5t-44.5 139.5zM320 570h-18l-68 134h24l56 -100h4l96 100h28z" />
    <glyph glyph-name="cdotaccent" unicode="&#x10b;" horiz-adv-x="428" 
d="M44 176q0 70 22 128t58 99.5t81.5 64t92.5 22.5q41 0 68.5 -15.5t51.5 -42.5l-20 -20q-23 27 -45 39.5t-57 12.5q-42 0 -82.5 -22.5t-72 -61.5t-50.5 -90t-19 -108q0 -83 34.5 -125.5t105.5 -42.5q38 0 70.5 15.5t59.5 36.5l16 -22q-26 -20 -62 -38t-86 -18
q-77 0 -121.5 48.5t-44.5 139.5zM318 600q-12 0 -20 8t-8 20q0 18 11 29t25 11q12 0 20 -8t8 -22q0 -17 -11 -27.5t-25 -10.5z" />
    <glyph glyph-name="dcaron" unicode="&#x10f;" horiz-adv-x="520" 
d="M456 506l44 216h28l-146 -722h-24l12 78h-4q-38 -39 -83.5 -64.5t-96.5 -25.5q-63 0 -101.5 43.5t-38.5 128.5q0 69 22 129t58.5 105t83 70.5t96.5 25.5q44 0 75 -22t51 -58h4zM188 14q50 0 97.5 28.5t92.5 79.5l52 250q-29 50 -59.5 71t-66.5 21q-45 0 -86.5 -26
t-73.5 -68t-51 -95.5t-19 -108.5q0 -77 30.5 -114.5t83.5 -37.5zM548 548l40 204h28l-8 -48l-38 -156h-22z" />
    <glyph glyph-name="uni1E0D" unicode="&#x1e0d;" horiz-adv-x="526" 
d="M456 506l44 216h28l-146 -722h-24l12 78h-4q-38 -39 -83.5 -64.5t-96.5 -25.5q-63 0 -101.5 43.5t-38.5 128.5q0 69 22 129t58.5 105t83 70.5t96.5 25.5q44 0 75 -22t51 -58h4zM188 14q50 0 97.5 28.5t92.5 79.5l52 250q-29 50 -59.5 71t-66.5 21q-45 0 -86.5 -26
t-73.5 -68t-51 -95.5t-19 -108.5q0 -77 30.5 -114.5t83.5 -37.5zM192 -192q-12 0 -20 8t-8 20q0 18 11 29t25 11q12 0 20 -8t8 -22q0 -17 -11 -27.5t-25 -10.5z" />
    <glyph glyph-name="uni1E0F" unicode="&#x1e0f;" horiz-adv-x="526" 
d="M456 506l44 216h28l-146 -722h-24l12 78h-4q-38 -39 -83.5 -64.5t-96.5 -25.5q-63 0 -101.5 43.5t-38.5 128.5q0 69 22 129t58.5 105t83 70.5t96.5 25.5q44 0 75 -22t51 -58h4zM188 14q50 0 97.5 28.5t92.5 79.5l52 250q-29 50 -59.5 71t-66.5 21q-45 0 -86.5 -26
t-73.5 -68t-51 -95.5t-19 -108.5q0 -77 30.5 -114.5t83.5 -37.5zM96 -128h212l-4 -26h-212z" />
    <glyph glyph-name="dcroat" unicode="&#x111;" horiz-adv-x="522" 
d="M426 352q-27 50 -57.5 71t-66.5 21q-45 0 -86.5 -25t-73 -65t-50 -89.5t-18.5 -98.5q0 -77 30.5 -114.5t83.5 -37.5q50 0 97.5 28.5t92.5 79.5zM574 588l-74 -4l-118 -584h-24l12 78h-4q-38 -39 -83.5 -64.5t-96.5 -25.5q-63 0 -101.5 43.5t-38.5 128.5q0 61 21.5 117.5
t57.5 99t82.5 68t96.5 25.5q44 0 75 -22t49 -58h4l20 96l20 98h-166l6 26h165l23 112h28l-23 -112h75z" />
    <glyph glyph-name="egrave" unicode="&#xe8;" horiz-adv-x="468" 
d="M44 184q0 68 21.5 124.5t56 97t78.5 62.5t90 22q38 0 65 -12.5t44 -35t25 -53t8 -67.5q0 -24 -3.5 -44.5t-8.5 -35.5h-342q-11 -60 -3 -103t29 -71t52.5 -41t69.5 -13q33 0 65 14t59 34l14 -22q-29 -21 -65 -36.5t-75 -15.5q-83 0 -131.5 49.5t-48.5 146.5zM398 268
q3 15 4.5 29t1.5 31q0 25 -6 49.5t-19.5 44t-36 31t-54.5 11.5q-34 0 -66.5 -14.5t-59.5 -40.5t-47.5 -62t-30.5 -79h314zM256 704h34l60 -134h-24z" />
    <glyph glyph-name="eacute" unicode="&#xe9;" horiz-adv-x="468" 
d="M44 184q0 68 21.5 124.5t56 97t78.5 62.5t90 22q38 0 65 -12.5t44 -35t25 -53t8 -67.5q0 -24 -3.5 -44.5t-8.5 -35.5h-342q-11 -60 -3 -103t29 -71t52.5 -41t69.5 -13q33 0 65 14t59 34l14 -22q-29 -21 -65 -36.5t-75 -15.5q-83 0 -131.5 49.5t-48.5 146.5zM398 268
q3 15 4.5 29t1.5 31q0 25 -6 49.5t-19.5 44t-36 31t-54.5 11.5q-34 0 -66.5 -14.5t-59.5 -40.5t-47.5 -62t-30.5 -79h314zM366 704h38l-126 -134h-28z" />
    <glyph glyph-name="ecircumflex" unicode="&#xea;" horiz-adv-x="468" 
d="M44 184q0 68 21.5 124.5t56 97t78.5 62.5t90 22q38 0 65 -12.5t44 -35t25 -53t8 -67.5q0 -24 -3.5 -44.5t-8.5 -35.5h-342q-11 -60 -3 -103t29 -71t52.5 -41t69.5 -13q33 0 65 14t59 34l14 -22q-29 -21 -65 -36.5t-75 -15.5q-83 0 -131.5 49.5t-48.5 146.5zM398 268
q3 15 4.5 29t1.5 31q0 25 -6 49.5t-19.5 44t-36 31t-54.5 11.5q-34 0 -66.5 -14.5t-59.5 -40.5t-47.5 -62t-30.5 -79h314zM320 704h18l68 -134h-24l-56 100h-4l-96 -100h-28z" />
    <glyph glyph-name="ecaron" unicode="&#x11b;" horiz-adv-x="468" 
d="M44 184q0 68 21.5 124.5t56 97t78.5 62.5t90 22q38 0 65 -12.5t44 -35t25 -53t8 -67.5q0 -24 -3.5 -44.5t-8.5 -35.5h-342q-11 -60 -3 -103t29 -71t52.5 -41t69.5 -13q33 0 65 14t59 34l14 -22q-29 -21 -65 -36.5t-75 -15.5q-83 0 -131.5 49.5t-48.5 146.5zM398 268
q3 15 4.5 29t1.5 31q0 25 -6 49.5t-19.5 44t-36 31t-54.5 11.5q-34 0 -66.5 -14.5t-59.5 -40.5t-47.5 -62t-30.5 -79h314zM312 570h-18l-68 134h24l56 -100h4l96 100h28z" />
    <glyph glyph-name="edieresis" unicode="&#xeb;" horiz-adv-x="468" 
d="M44 184q0 68 21.5 124.5t56 97t78.5 62.5t90 22q38 0 65 -12.5t44 -35t25 -53t8 -67.5q0 -24 -3.5 -44.5t-8.5 -35.5h-342q-11 -60 -3 -103t29 -71t52.5 -41t69.5 -13q33 0 65 14t59 34l14 -22q-29 -21 -65 -36.5t-75 -15.5q-83 0 -131.5 49.5t-48.5 146.5zM398 268
q3 15 4.5 29t1.5 31q0 25 -6 49.5t-19.5 44t-36 31t-54.5 11.5q-34 0 -66.5 -14.5t-59.5 -40.5t-47.5 -62t-30.5 -79h314zM240 602q-26 0 -26 26q0 17 10 27.5t22 10.5q26 0 26 -28q0 -15 -10 -25.5t-22 -10.5zM386 602q-26 0 -26 26q0 17 10 27.5t22 10.5q26 0 26 -28
q0 -15 -10 -25.5t-22 -10.5z" />
    <glyph glyph-name="emacron" unicode="&#x113;" horiz-adv-x="468" 
d="M44 184q0 68 21.5 124.5t56 97t78.5 62.5t90 22q38 0 65 -12.5t44 -35t25 -53t8 -67.5q0 -24 -3.5 -44.5t-8.5 -35.5h-342q-11 -60 -3 -103t29 -71t52.5 -41t69.5 -13q33 0 65 14t59 34l14 -22q-29 -21 -65 -36.5t-75 -15.5q-83 0 -131.5 49.5t-48.5 146.5zM398 268
q3 15 4.5 29t1.5 31q0 25 -6 49.5t-19.5 44t-36 31t-54.5 11.5q-34 0 -66.5 -14.5t-59.5 -40.5t-47.5 -62t-30.5 -79h314zM208 634h212l-4 -26h-212z" />
    <glyph glyph-name="ebreve" unicode="&#x115;" horiz-adv-x="468" 
d="M44 184q0 68 21.5 124.5t56 97t78.5 62.5t90 22q38 0 65 -12.5t44 -35t25 -53t8 -67.5q0 -24 -3.5 -44.5t-8.5 -35.5h-342q-11 -60 -3 -103t29 -71t52.5 -41t69.5 -13q33 0 65 14t59 34l14 -22q-29 -21 -65 -36.5t-75 -15.5q-83 0 -131.5 49.5t-48.5 146.5zM398 268
q3 15 4.5 29t1.5 31q0 25 -6 49.5t-19.5 44t-36 31t-54.5 11.5q-34 0 -66.5 -14.5t-59.5 -40.5t-47.5 -62t-30.5 -79h314zM304 576q-29 0 -46.5 10.5t-26.5 27t-12 36.5t-1 40h22q-3 -41 12.5 -65.5t53.5 -24.5t65 26t41 64h24q-7 -20 -17.5 -40t-26.5 -36.5t-38 -27
t-50 -10.5z" />
    <glyph glyph-name="edotaccent" unicode="&#x117;" horiz-adv-x="468" 
d="M44 184q0 68 21.5 124.5t56 97t78.5 62.5t90 22q38 0 65 -12.5t44 -35t25 -53t8 -67.5q0 -24 -3.5 -44.5t-8.5 -35.5h-342q-11 -60 -3 -103t29 -71t52.5 -41t69.5 -13q33 0 65 14t59 34l14 -22q-29 -21 -65 -36.5t-75 -15.5q-83 0 -131.5 49.5t-48.5 146.5zM398 268
q3 15 4.5 29t1.5 31q0 25 -6 49.5t-19.5 44t-36 31t-54.5 11.5q-34 0 -66.5 -14.5t-59.5 -40.5t-47.5 -62t-30.5 -79h314zM310 600q-12 0 -20 8t-8 20q0 18 11 29t25 11q12 0 20 -8t8 -22q0 -17 -11 -27.5t-25 -10.5z" />
    <glyph glyph-name="uni1EB9" unicode="&#x1eb9;" horiz-adv-x="468" 
d="M44 184q0 68 21.5 124.5t56 97t78.5 62.5t90 22q38 0 65 -12.5t44 -35t25 -53t8 -67.5q0 -24 -3.5 -44.5t-8.5 -35.5h-342q-11 -60 -3 -103t29 -71t52.5 -41t69.5 -13q33 0 65 14t59 34l14 -22q-29 -21 -65 -36.5t-75 -15.5q-83 0 -131.5 49.5t-48.5 146.5zM398 268
q3 15 4.5 29t1.5 31q0 25 -6 49.5t-19.5 44t-36 31t-54.5 11.5q-34 0 -66.5 -14.5t-59.5 -40.5t-47.5 -62t-30.5 -79h314zM182 -192q-12 0 -20 8t-8 20q0 18 11 29t25 11q12 0 20 -8t8 -22q0 -17 -11 -27.5t-25 -10.5z" />
    <glyph glyph-name="uni1EBB" unicode="&#x1ebb;" horiz-adv-x="468" 
d="M44 184q0 68 21.5 124.5t56 97t78.5 62.5t90 22q38 0 65 -12.5t44 -35t25 -53t8 -67.5q0 -24 -3.5 -44.5t-8.5 -35.5h-342q-11 -60 -3 -103t29 -71t52.5 -41t69.5 -13q33 0 65 14t59 34l14 -22q-29 -21 -65 -36.5t-75 -15.5q-83 0 -131.5 49.5t-48.5 146.5zM398 268
q3 15 4.5 29t1.5 31q0 25 -6 49.5t-19.5 44t-36 31t-54.5 11.5q-34 0 -66.5 -14.5t-59.5 -40.5t-47.5 -62t-30.5 -79h314zM290 706q51 -3 73.5 -20.5t22.5 -41.5q0 -38 -28 -59t-72 -35l-8 20q41 14 61.5 29t20.5 39q0 20 -14.5 30.5t-59.5 15.5z" />
    <glyph glyph-name="uni1EBD" unicode="&#x1ebd;" horiz-adv-x="468" 
d="M44 184q0 68 21.5 124.5t56 97t78.5 62.5t90 22q38 0 65 -12.5t44 -35t25 -53t8 -67.5q0 -24 -3.5 -44.5t-8.5 -35.5h-342q-11 -60 -3 -103t29 -71t52.5 -41t69.5 -13q33 0 65 14t59 34l14 -22q-29 -21 -65 -36.5t-75 -15.5q-83 0 -131.5 49.5t-48.5 146.5zM398 268
q3 15 4.5 29t1.5 31q0 25 -6 49.5t-19.5 44t-36 31t-54.5 11.5q-34 0 -66.5 -14.5t-59.5 -40.5t-47.5 -62t-30.5 -79h314zM188 582q4 15 11 29.5t16 26.5t21 19t26 7q21 0 33.5 -9.5t23 -20.5t20.5 -20.5t27 -9.5q14 0 26.5 17t21.5 41h22q-9 -30 -27.5 -56t-46.5 -26
q-21 0 -33.5 9.5t-23 20.5t-21 20.5t-26.5 9.5q-14 0 -26.5 -17t-21.5 -41h-22z" />
    <glyph glyph-name="uni1EBF" unicode="&#x1ebf;" horiz-adv-x="468" 
d="M44 184q0 68 21.5 124.5t56 97t78.5 62.5t90 22q38 0 65 -12.5t44 -35t25 -53t8 -67.5q0 -24 -3.5 -44.5t-8.5 -35.5h-342q-11 -60 -3 -103t29 -71t52.5 -41t69.5 -13q33 0 65 14t59 34l14 -22q-29 -21 -65 -36.5t-75 -15.5q-83 0 -131.5 49.5t-48.5 146.5zM398 268
q3 15 4.5 29t1.5 31q0 25 -6 49.5t-19.5 44t-36 31t-54.5 11.5q-34 0 -66.5 -14.5t-59.5 -40.5t-47.5 -62t-30.5 -79h314zM312 682h18l60 -112h-24l-48 78h-4l-80 -78h-28zM484 744h36l-102 -110h-28z" />
    <glyph glyph-name="uni1EC1" unicode="&#x1ec1;" horiz-adv-x="468" 
d="M44 184q0 68 21.5 124.5t56 97t78.5 62.5t90 22q38 0 65 -12.5t44 -35t25 -53t8 -67.5q0 -24 -3.5 -44.5t-8.5 -35.5h-342q-11 -60 -3 -103t29 -71t52.5 -41t69.5 -13q33 0 65 14t59 34l14 -22q-29 -21 -65 -36.5t-75 -15.5q-83 0 -131.5 49.5t-48.5 146.5zM398 268
q3 15 4.5 29t1.5 31q0 25 -6 49.5t-19.5 44t-36 31t-54.5 11.5q-34 0 -66.5 -14.5t-59.5 -40.5t-47.5 -62t-30.5 -79h314zM464 634h-24l-60 110h32zM312 682h18l60 -112h-24l-48 78h-4l-80 -78h-28z" />
    <glyph glyph-name="uni1EC3" unicode="&#x1ec3;" horiz-adv-x="468" 
d="M44 184q0 68 21.5 124.5t56 97t78.5 62.5t90 22q38 0 65 -12.5t44 -35t25 -53t8 -67.5q0 -24 -3.5 -44.5t-8.5 -35.5h-342q-11 -60 -3 -103t29 -71t52.5 -41t69.5 -13q33 0 65 14t59 34l14 -22q-29 -21 -65 -36.5t-75 -15.5q-83 0 -131.5 49.5t-48.5 146.5zM398 268
q3 15 4.5 29t1.5 31q0 25 -6 49.5t-19.5 44t-36 31t-54.5 11.5q-34 0 -66.5 -14.5t-59.5 -40.5t-47.5 -62t-30.5 -79h314zM408 774q42 -3 64 -19.5t22 -40.5q0 -35 -23.5 -55.5t-64.5 -32.5l-8 20q38 11 54 26t16 36q0 20 -14 29.5t-50 14.5zM312 682h18l60 -112h-24l-48 78
h-4l-80 -78h-28z" />
    <glyph glyph-name="uni1EC5" unicode="&#x1ec5;" horiz-adv-x="468" 
d="M44 184q0 68 21.5 124.5t56 97t78.5 62.5t90 22q38 0 65 -12.5t44 -35t25 -53t8 -67.5q0 -24 -3.5 -44.5t-8.5 -35.5h-342q-11 -60 -3 -103t29 -71t52.5 -41t69.5 -13q33 0 65 14t59 34l14 -22q-29 -21 -65 -36.5t-75 -15.5q-83 0 -131.5 49.5t-48.5 146.5zM398 268
q3 15 4.5 29t1.5 31q0 25 -6 49.5t-19.5 44t-36 31t-54.5 11.5q-34 0 -66.5 -14.5t-59.5 -40.5t-47.5 -62t-30.5 -79h314zM402 570h-24l-62 64h-4l-86 -64h-30l110 94h24zM216 702q8 27 27 49.5t43 22.5q20 0 32.5 -8t22 -17t19 -17t24.5 -8q12 0 26 14t20 34h22
q-8 -27 -27 -49.5t-43 -22.5q-20 0 -32.5 8t-22 17t-19 17t-24.5 8q-12 0 -26 -14t-20 -34h-22z" />
    <glyph glyph-name="uni1EC7" unicode="&#x1ec7;" horiz-adv-x="468" 
d="M44 184q0 68 21.5 124.5t56 97t78.5 62.5t90 22q38 0 65 -12.5t44 -35t25 -53t8 -67.5q0 -24 -3.5 -44.5t-8.5 -35.5h-342q-11 -60 -3 -103t29 -71t52.5 -41t69.5 -13q33 0 65 14t59 34l14 -22q-29 -21 -65 -36.5t-75 -15.5q-83 0 -131.5 49.5t-48.5 146.5zM398 268
q3 15 4.5 29t1.5 31q0 25 -6 49.5t-19.5 44t-36 31t-54.5 11.5q-34 0 -66.5 -14.5t-59.5 -40.5t-47.5 -62t-30.5 -79h314zM320 704h18l68 -134h-24l-56 100h-4l-96 -100h-28zM182 -192q-12 0 -20 8t-8 20q0 18 11 29t25 11q12 0 20 -8t8 -22q0 -17 -11 -27.5t-25 -10.5z" />
    <glyph glyph-name="eogonek" unicode="&#x119;" horiz-adv-x="468" 
d="M186 -140q0 19 8 38.5t20 37t27 32.5t29 26q-12 -3 -24.5 -4.5t-21.5 -1.5q-83 0 -131.5 49.5t-48.5 146.5q0 68 21.5 124.5t56 97t78.5 62.5t90 22q38 0 65 -12.5t44 -35t25 -53t8 -67.5q0 -24 -3.5 -44.5t-8.5 -35.5h-342q-11 -60 -3 -103t29 -71t52.5 -41t69.5 -13
q33 0 65 14t59 34l14 -22q-80 -54 -114 -96.5t-34 -77.5q0 -20 10.5 -31t27.5 -11q12 0 21.5 3t20.5 9l10 -22q-29 -16 -54 -16q-29 0 -47.5 15t-18.5 47zM398 268q3 15 4.5 29t1.5 31q0 25 -6 49.5t-19.5 44t-36 31t-54.5 11.5q-34 0 -66.5 -14.5t-59.5 -40.5t-47.5 -62
t-30.5 -79h314z" />
    <glyph glyph-name="gcircumflex" unicode="&#x11d;" horiz-adv-x="518" 
d="M472 478l-106 -526q-18 -86 -68.5 -136t-131.5 -50q-53 0 -91.5 20t-68.5 46l18 22q27 -26 63 -44t81 -18q73 0 115 49t59 129l24 112h-4q-38 -36 -82.5 -61t-95.5 -25q-62 0 -100 43.5t-38 126.5q0 67 22 126t58 103t81.5 69.5t92.5 25.5q43 0 74.5 -22t51.5 -58h4
l18 68h24zM186 22q42 0 92 27.5t94 74.5l52 248q-29 50 -59.5 71t-66.5 21q-43 0 -83 -25.5t-71.5 -67t-50.5 -94t-19 -105.5q0 -75 29.5 -112.5t82.5 -37.5zM338 704h18l68 -134h-24l-56 100h-4l-96 -100h-28z" />
    <glyph glyph-name="gbreve" unicode="&#x11f;" horiz-adv-x="518" 
d="M472 478l-106 -526q-18 -86 -68.5 -136t-131.5 -50q-53 0 -91.5 20t-68.5 46l18 22q27 -26 63 -44t81 -18q73 0 115 49t59 129l24 112h-4q-38 -36 -82.5 -61t-95.5 -25q-62 0 -100 43.5t-38 126.5q0 67 22 126t58 103t81.5 69.5t92.5 25.5q43 0 74.5 -22t51.5 -58h4
l18 68h24zM186 22q42 0 92 27.5t94 74.5l52 248q-29 50 -59.5 71t-66.5 21q-43 0 -83 -25.5t-71.5 -67t-50.5 -94t-19 -105.5q0 -75 29.5 -112.5t82.5 -37.5zM322 576q-29 0 -46.5 10.5t-26.5 27t-12 36.5t-1 40h22q-3 -41 12.5 -65.5t53.5 -24.5t65 26t41 64h24
q-7 -20 -17.5 -40t-26.5 -36.5t-38 -27t-50 -10.5z" />
    <glyph glyph-name="gdotaccent" unicode="&#x121;" horiz-adv-x="518" 
d="M472 478l-106 -526q-18 -86 -68.5 -136t-131.5 -50q-53 0 -91.5 20t-68.5 46l18 22q27 -26 63 -44t81 -18q73 0 115 49t59 129l24 112h-4q-38 -36 -82.5 -61t-95.5 -25q-62 0 -100 43.5t-38 126.5q0 67 22 126t58 103t81.5 69.5t92.5 25.5q43 0 74.5 -22t51.5 -58h4
l18 68h24zM186 22q42 0 92 27.5t94 74.5l52 248q-29 50 -59.5 71t-66.5 21q-43 0 -83 -25.5t-71.5 -67t-50.5 -94t-19 -105.5q0 -75 29.5 -112.5t82.5 -37.5zM328 600q-12 0 -20 8t-8 20q0 18 11 29t25 11q12 0 20 -8t8 -22q0 -17 -11 -27.5t-25 -10.5z" />
    <glyph glyph-name="uni0123" unicode="&#x123;" horiz-adv-x="518" 
d="M472 478l-106 -526q-18 -86 -68.5 -136t-131.5 -50q-53 0 -91.5 20t-68.5 46l18 22q27 -26 63 -44t81 -18q73 0 115 49t59 129l24 112h-4q-38 -36 -82.5 -61t-95.5 -25q-62 0 -100 43.5t-38 126.5q0 67 22 126t58 103t81.5 69.5t92.5 25.5q43 0 74.5 -22t51.5 -58h4
l18 68h24zM186 22q42 0 92 27.5t94 74.5l52 248q-29 50 -59.5 71t-66.5 21q-43 0 -83 -25.5t-71.5 -67t-50.5 -94t-19 -105.5q0 -75 29.5 -112.5t82.5 -37.5zM336 542q-23 8 -39.5 20.5t-16.5 35.5q0 21 10.5 37t28 27.5t40 18.5t45.5 11l4 -20q-42 -9 -72 -25t-30 -43
q0 -20 13.5 -27.5t28.5 -12.5z" />
    <glyph glyph-name="gcaron" unicode="&#x1e7;" horiz-adv-x="518" 
d="M472 478l-106 -526q-18 -86 -68.5 -136t-131.5 -50q-53 0 -91.5 20t-68.5 46l18 22q27 -26 63 -44t81 -18q73 0 115 49t59 129l24 112h-4q-38 -36 -82.5 -61t-95.5 -25q-62 0 -100 43.5t-38 126.5q0 67 22 126t58 103t81.5 69.5t92.5 25.5q43 0 74.5 -22t51.5 -58h4
l18 68h24zM186 22q42 0 92 27.5t94 74.5l52 248q-29 50 -59.5 71t-66.5 21q-43 0 -83 -25.5t-71.5 -67t-50.5 -94t-19 -105.5q0 -75 29.5 -112.5t82.5 -37.5zM330 570h-18l-68 134h24l56 -100h4l96 100h28z" />
    <glyph glyph-name="uni1E21" unicode="&#x1e21;" horiz-adv-x="518" 
d="M472 478l-106 -526q-18 -86 -68.5 -136t-131.5 -50q-53 0 -91.5 20t-68.5 46l18 22q27 -26 63 -44t81 -18q73 0 115 49t59 129l24 112h-4q-38 -36 -82.5 -61t-95.5 -25q-62 0 -100 43.5t-38 126.5q0 67 22 126t58 103t81.5 69.5t92.5 25.5q43 0 74.5 -22t51.5 -58h4
l18 68h24zM186 22q42 0 92 27.5t94 74.5l52 248q-29 50 -59.5 71t-66.5 21q-43 0 -83 -25.5t-71.5 -67t-50.5 -94t-19 -105.5q0 -75 29.5 -112.5t82.5 -37.5zM226 634h212l-4 -26h-212z" />
    <glyph glyph-name="uni00670303" horiz-adv-x="518" 
d="M472 478l-106 -526q-18 -86 -68.5 -136t-131.5 -50q-53 0 -91.5 20t-68.5 46l18 22q27 -26 63 -44t81 -18q73 0 115 49t59 129l24 112h-4q-38 -36 -82.5 -61t-95.5 -25q-62 0 -100 43.5t-38 126.5q0 67 22 126t58 103t81.5 69.5t92.5 25.5q43 0 74.5 -22t51.5 -58h4
l18 68h24zM186 22q42 0 92 27.5t94 74.5l52 248q-29 50 -59.5 71t-66.5 21q-43 0 -83 -25.5t-71.5 -67t-50.5 -94t-19 -105.5q0 -75 29.5 -112.5t82.5 -37.5zM206 582q4 15 11 29.5t16 26.5t21 19t26 7q21 0 33.5 -9.5t23 -20.5t20.5 -20.5t27 -9.5q14 0 26.5 17t21.5 41h22
q-9 -30 -27.5 -56t-46.5 -26q-21 0 -33.5 9.5t-23 20.5t-21 20.5t-26.5 9.5q-14 0 -26.5 -17t-21.5 -41h-22z" />
    <glyph glyph-name="hcircumflex" unicode="&#x125;" horiz-adv-x="498" 
d="M188 722h28l-56 -278l-12 -46h4q48 41 90 66.5t86 25.5q62 0 88 -32.5t26 -83.5q0 -18 -1.5 -30.5t-6.5 -33.5l-62 -310h-28l62 306q5 23 6.5 36t1.5 28q0 47 -21 70.5t-69 23.5q-33 0 -78 -25t-102 -81l-72 -358h-28zM210 853h24l72 -102h-26l-58 76h-4l-90 -76h-30z
" />
    <glyph glyph-name="uni1E25" unicode="&#x1e25;" horiz-adv-x="498" 
d="M188 722h28l-56 -278l-12 -46h4q48 41 90 66.5t86 25.5q62 0 88 -32.5t26 -83.5q0 -18 -1.5 -30.5t-6.5 -33.5l-62 -310h-28l62 306q5 23 6.5 36t1.5 28q0 47 -21 70.5t-69 23.5q-33 0 -78 -25t-102 -81l-72 -358h-28zM190 -192q-12 0 -20 8t-8 20q0 18 11 29t25 11
q12 0 20 -8t8 -22q0 -17 -11 -27.5t-25 -10.5z" />
    <glyph glyph-name="uni1E2B" unicode="&#x1e2b;" horiz-adv-x="498" 
d="M188 722h28l-56 -278l-12 -46h4q48 41 90 66.5t86 25.5q62 0 88 -32.5t26 -83.5q0 -18 -1.5 -30.5t-6.5 -33.5l-62 -310h-28l62 306q5 23 6.5 36t1.5 28q0 47 -21 70.5t-69 23.5q-33 0 -78 -25t-102 -81l-72 -358h-28zM180 -206q-29 0 -46.5 10.5t-26.5 27t-12 36.5
t-1 40h22q-3 -41 12.5 -65.5t53.5 -24.5t65 26t41 64h24q-7 -20 -17.5 -40t-26.5 -36.5t-38 -27t-50 -10.5z" />
    <glyph glyph-name="hbar" unicode="&#x127;" horiz-adv-x="498" 
d="M148 378q48 41 90 66.5t86 25.5q62 0 88 -32.5t26 -83.5q0 -18 -1.5 -30.5t-6.5 -33.5l-58 -290h-28l58 286q5 23 6.5 36t1.5 28q0 47 -21 70.5t-69 23.5q-33 0 -78 -25t-102 -81l-68 -338h-28l116 584h-72l4 22l74 4l22 112h28l-23 -112h187l-6 -26h-186l-32 -160
l-12 -46h4z" />
    <glyph glyph-name="igrave" unicode="&#xec;" horiz-adv-x="214" 
d="M140 478h28l-96 -478h-28zM128 704h34l60 -134h-24z" />
    <glyph glyph-name="iacute" unicode="&#xed;" horiz-adv-x="214" 
d="M140 478h28l-96 -478h-28zM238 704h38l-126 -134h-28z" />
    <glyph glyph-name="icircumflex" unicode="&#xee;" horiz-adv-x="214" 
d="M140 478h28l-96 -478h-28zM192 704h18l68 -134h-24l-56 100h-4l-96 -100h-28z" />
    <glyph glyph-name="itilde" unicode="&#x129;" horiz-adv-x="214" 
d="M140 478h28l-96 -478h-28zM60 582q4 15 11 29.5t16 26.5t21 19t26 7q21 0 33.5 -9.5t23 -20.5t20.5 -20.5t27 -9.5q14 0 26.5 17t21.5 41h22q-9 -30 -27.5 -56t-46.5 -26q-21 0 -33.5 9.5t-23 20.5t-21 20.5t-26.5 9.5q-14 0 -26.5 -17t-21.5 -41h-22z" />
    <glyph glyph-name="idieresis" unicode="&#xef;" horiz-adv-x="214" 
d="M140 478h28l-96 -478h-28zM112 602q-26 0 -26 26q0 17 10 27.5t22 10.5q26 0 26 -28q0 -15 -10 -25.5t-22 -10.5zM258 602q-26 0 -26 26q0 17 10 27.5t22 10.5q26 0 26 -28q0 -15 -10 -25.5t-22 -10.5z" />
    <glyph glyph-name="imacron" unicode="&#x12b;" horiz-adv-x="214" 
d="M140 478h28l-96 -478h-28zM80 634h212l-4 -26h-212z" />
    <glyph glyph-name="uni01D0" unicode="&#x1d0;" horiz-adv-x="214" 
d="M140 478h28l-96 -478h-28zM184 570h-18l-68 134h24l56 -100h4l96 100h28z" />
    <glyph glyph-name="uni1EC9" unicode="&#x1ec9;" horiz-adv-x="214" 
d="M140 478h28l-96 -478h-28zM162 706q51 -3 73.5 -20.5t22.5 -41.5q0 -38 -28 -59t-72 -35l-8 20q41 14 61.5 29t20.5 39q0 20 -14.5 30.5t-59.5 15.5z" />
    <glyph glyph-name="uni1ECB" unicode="&#x1ecb;" horiz-adv-x="214" 
d="M140 478h28l-96 -478h-28zM180 600q-12 0 -20 8t-8 20q0 18 11 29t25 11q12 0 20 -8t8 -22q0 -17 -11 -27.5t-25 -10.5zM32 -192q-12 0 -20 8t-8 20q0 18 11 29t25 11q12 0 20 -8t8 -22q0 -17 -11 -27.5t-25 -10.5z" />
    <glyph glyph-name="iogonek" unicode="&#x12f;" horiz-adv-x="214" 
d="M140 478h28l-96 -478q-38 -33 -62 -66t-24 -68q0 -20 10.5 -31t27.5 -11q12 0 21.5 3t20.5 9l10 -22q-29 -16 -54 -16q-29 0 -47.5 15t-18.5 47q0 19 8 39.5t21 39t29 34.5t32 27h-2zM180 600q-12 0 -20 8t-8 20q0 18 11 29t25 11q12 0 20 -8t8 -22q0 -17 -11 -27.5
t-25 -10.5z" />
    <glyph glyph-name="iogonek.d" horiz-adv-x="214" 
d="M140 478h28l-96 -478q-38 -33 -62 -66t-24 -68q0 -20 10.5 -31t27.5 -11q12 0 21.5 3t20.5 9l10 -22q-29 -16 -54 -16q-29 0 -47.5 15t-18.5 47q0 19 8 39.5t21 39t29 34.5t32 27h-2z" />
    <glyph glyph-name="dotlessi" unicode="&#x131;" horiz-adv-x="214" 
d="M140 478h28l-96 -478h-28z" />
    <glyph glyph-name="jcircumflex" unicode="&#x135;" horiz-adv-x="214" 
d="M52 -98q-14 -65 -40.5 -100.5t-71.5 -35.5q-21 0 -34 5t-24 11l12 24q9 -6 18.5 -10t29.5 -4q30 0 49.5 28.5t30.5 75.5l118 582h28zM186 704h18l68 -134h-24l-56 100h-4l-96 -100h-28z" />
    <glyph glyph-name="uni0137" unicode="&#x137;" horiz-adv-x="436" 
d="M188 722h28l-108 -546h2l298 302h36l-186 -192l116 -286h-30l-108 266l-138 -140l-26 -126h-28zM176 -50q23 -8 39.5 -20.5t16.5 -35.5q0 -21 -10.5 -37t-28 -27.5t-40 -18.5t-45.5 -11l-4 20q42 9 72 25t30 43q0 20 -13.5 27.5t-28.5 12.5z" />
    <glyph glyph-name="kgreenlandic" unicode="&#x138;" horiz-adv-x="436" 
d="M140 478h28l-60 -302h2l298 302h36l-186 -192l116 -286h-30l-108 266l-138 -140l-26 -126h-28z" />
    <glyph glyph-name="lacute" unicode="&#x13a;" horiz-adv-x="226" 
d="M188 722h28l-134 -674q-2 -8 -2 -12.5v-7.5q0 -14 14 -14q3 0 5.5 0.5t10.5 3.5l4 -24q-8 -3 -13.5 -4.5t-14.5 -1.5q-15 0 -25.5 9t-10.5 27q0 5 1 11.5t3 14.5zM285 862h38l-120 -102h-28z" />
    <glyph glyph-name="lcaron" unicode="&#x13e;" horiz-adv-x="210" 
d="M188 722h28l-134 -674q-2 -8 -2 -12.5v-7.5q0 -14 14 -14q3 0 5.5 0.5t10.5 3.5l4 -24q-8 -3 -13.5 -4.5t-14.5 -1.5q-15 0 -25.5 9t-10.5 27q0 5 1 11.5t3 14.5zM238 548l40 204h28l-8 -48l-38 -156h-22z" />
    <glyph glyph-name="ldot" unicode="&#x140;" horiz-adv-x="258" 
d="M188 722h28l-134 -674q-2 -8 -2 -12.5v-7.5q0 -14 14 -14q3 0 5.5 0.5t10.5 3.5l4 -24q-8 -3 -13.5 -4.5t-14.5 -1.5q-15 0 -25.5 9t-10.5 27q0 5 1 11.5t3 14.5zM246 290q-14 0 -21 9t-7 21q0 17 12.5 31.5t29.5 14.5q14 0 20 -9t6 -23q0 -17 -11.5 -30.5t-28.5 -13.5z
" />
    <glyph glyph-name="uni013C" unicode="&#x13c;" horiz-adv-x="226" 
d="M188 722h28l-134 -674q-2 -8 -2 -12.5v-7.5q0 -14 14 -14q3 0 5.5 0.5t10.5 3.5l4 -24q-8 -3 -13.5 -4.5t-14.5 -1.5q-15 0 -25.5 9t-10.5 27q0 5 1 11.5t3 14.5zM32 -50q23 -8 39.5 -20.5t16.5 -35.5q0 -21 -10.5 -37t-28 -27.5t-40 -18.5t-45.5 -11l-4 20q42 9 72 25
t30 43q0 20 -13.5 27.5t-28.5 12.5z" />
    <glyph glyph-name="uni1E37" unicode="&#x1e37;" horiz-adv-x="226" 
d="M188 722h28l-134 -674q-2 -8 -2 -12.5v-7.5q0 -14 14 -14q3 0 5.5 0.5t10.5 3.5l4 -24q-8 -3 -13.5 -4.5t-14.5 -1.5q-15 0 -25.5 9t-10.5 27q0 5 1 11.5t3 14.5zM30 -192q-12 0 -20 8t-8 20q0 18 11 29t25 11q12 0 20 -8t8 -22q0 -17 -11 -27.5t-25 -10.5z" />
    <glyph glyph-name="uni1E39" unicode="&#x1e39;" horiz-adv-x="226" 
d="M188 722h28l-134 -674q-2 -8 -2 -12.5v-7.5q0 -14 14 -14q3 0 5.5 0.5t10.5 3.5l4 -24q-8 -3 -13.5 -4.5t-14.5 -1.5q-15 0 -25.5 9t-10.5 27q0 5 1 11.5t3 14.5zM120 862h212l-4 -26h-212zM30 -192q-12 0 -20 8t-8 20q0 18 11 29t25 11q12 0 20 -8t8 -22
q0 -17 -11 -27.5t-25 -10.5z" />
    <glyph glyph-name="uni1E3B" unicode="&#x1e3b;" horiz-adv-x="226" 
d="M188 722h28l-134 -674q-2 -8 -2 -12.5v-7.5q0 -14 14 -14q3 0 5.5 0.5t10.5 3.5l4 -24q-8 -3 -13.5 -4.5t-14.5 -1.5q-15 0 -25.5 9t-10.5 27q0 5 1 11.5t3 14.5zM-66 -128h212l-4 -26h-212z" />
    <glyph glyph-name="lslash" unicode="&#x142;" horiz-adv-x="226" 
d="M82 48q-2 -8 -2 -12.5v-7.5q0 -14 14 -14q3 0 5.5 0.5t10.5 3.5l4 -24q-8 -3 -13.5 -4.5t-14.5 -1.5q-15 0 -25.5 9t-10.5 27q0 5 1 11.5t3 14.5l64 322l-72 -42l6 34l73 43l63 315h28l-59 -295l83 50l-6 -34l-83 -50z" />
    <glyph glyph-name="uni1E43" unicode="&#x1e43;" horiz-adv-x="776" 
d="M140 478h24l-12 -78h4q41 39 83 64.5t77 25.5q30 0 50.5 -8.5t33.5 -22.5t19 -32.5t7 -38.5q51 50 96 76t80 26q60 0 86 -32.5t26 -83.5q0 -18 -1.5 -30.5t-6.5 -33.5l-62 -310h-28l62 306q5 23 6.5 36t1.5 28q0 47 -20.5 70.5t-67.5 23.5q-24 0 -69.5 -25t-98.5 -81
l-72 -358h-28l62 306q5 23 6.5 36t1.5 28q0 47 -20.5 70.5t-67.5 23.5q-24 0 -69.5 -25t-98.5 -81l-72 -358h-28zM322 -192q-12 0 -20 8t-8 20q0 18 11 29t25 11q12 0 20 -8t8 -22q0 -17 -11 -27.5t-25 -10.5z" />
    <glyph glyph-name="nacute" unicode="&#x144;" horiz-adv-x="504" 
d="M140 478h24l-12 -78h4q45 39 86.5 64.5t85.5 25.5q62 0 88 -32.5t26 -83.5q0 -18 -1.5 -30.5t-6.5 -33.5l-62 -310h-28l62 306q5 23 6.5 36t1.5 28q0 47 -21 70.5t-69 23.5q-33 0 -78 -25t-102 -81l-72 -358h-28zM392 704h38l-126 -134h-28z" />
    <glyph glyph-name="ncaron" unicode="&#x148;" horiz-adv-x="504" 
d="M140 478h24l-12 -78h4q45 39 86.5 64.5t85.5 25.5q62 0 88 -32.5t26 -83.5q0 -18 -1.5 -30.5t-6.5 -33.5l-62 -310h-28l62 306q5 23 6.5 36t1.5 28q0 47 -21 70.5t-69 23.5q-33 0 -78 -25t-102 -81l-72 -358h-28zM338 570h-18l-68 134h24l56 -100h4l96 100h28z" />
    <glyph glyph-name="ntilde" unicode="&#xf1;" horiz-adv-x="504" 
d="M140 478h24l-12 -78h4q45 39 86.5 64.5t85.5 25.5q62 0 88 -32.5t26 -83.5q0 -18 -1.5 -30.5t-6.5 -33.5l-62 -310h-28l62 306q5 23 6.5 36t1.5 28q0 47 -21 70.5t-69 23.5q-33 0 -78 -25t-102 -81l-72 -358h-28zM214 582q4 15 11 29.5t16 26.5t21 19t26 7
q21 0 33.5 -9.5t23 -20.5t20.5 -20.5t27 -9.5q14 0 26.5 17t21.5 41h22q-9 -30 -27.5 -56t-46.5 -26q-21 0 -33.5 9.5t-23 20.5t-21 20.5t-26.5 9.5q-14 0 -26.5 -17t-21.5 -41h-22z" />
    <glyph glyph-name="uni0146" unicode="&#x146;" horiz-adv-x="504" 
d="M140 478h24l-12 -78h4q45 39 86.5 64.5t85.5 25.5q62 0 88 -32.5t26 -83.5q0 -18 -1.5 -30.5t-6.5 -33.5l-62 -310h-28l62 306q5 23 6.5 36t1.5 28q0 47 -21 70.5t-69 23.5q-33 0 -78 -25t-102 -81l-72 -358h-28zM190 -50q23 -8 39.5 -20.5t16.5 -35.5q0 -21 -10.5 -37
t-28 -27.5t-40 -18.5t-45.5 -11l-4 20q42 9 72 25t30 43q0 20 -13.5 27.5t-28.5 12.5z" />
    <glyph glyph-name="uni1E45" unicode="&#x1e45;" horiz-adv-x="504" 
d="M140 478h24l-12 -78h4q45 39 86.5 64.5t85.5 25.5q62 0 88 -32.5t26 -83.5q0 -18 -1.5 -30.5t-6.5 -33.5l-62 -310h-28l62 306q5 23 6.5 36t1.5 28q0 47 -21 70.5t-69 23.5q-33 0 -78 -25t-102 -81l-72 -358h-28zM336 600q-12 0 -20 8t-8 20q0 18 11 29t25 11q12 0 20 -8
t8 -22q0 -17 -11 -27.5t-25 -10.5z" />
    <glyph glyph-name="uni1E47" unicode="&#x1e47;" horiz-adv-x="504" 
d="M140 478h24l-12 -78h4q45 39 86.5 64.5t85.5 25.5q62 0 88 -32.5t26 -83.5q0 -18 -1.5 -30.5t-6.5 -33.5l-62 -310h-28l62 306q5 23 6.5 36t1.5 28q0 47 -21 70.5t-69 23.5q-33 0 -78 -25t-102 -81l-72 -358h-28zM188 -192q-12 0 -20 8t-8 20q0 18 11 29t25 11
q12 0 20 -8t8 -22q0 -17 -11 -27.5t-25 -10.5z" />
    <glyph glyph-name="uni1E49" unicode="&#x1e49;" horiz-adv-x="504" 
d="M140 478h24l-12 -78h4q45 39 86.5 64.5t85.5 25.5q62 0 88 -32.5t26 -83.5q0 -18 -1.5 -30.5t-6.5 -33.5l-62 -310h-28l62 306q5 23 6.5 36t1.5 28q0 47 -21 70.5t-69 23.5q-33 0 -78 -25t-102 -81l-72 -358h-28zM92 -128h212l-4 -26h-212z" />
    <glyph glyph-name="napostrophe" unicode="&#x149;" horiz-adv-x="672" 
d="M114 518q38 24 58.5 55t21.5 63h-4q-14 0 -23 7.5t-9 22.5t9 25.5t23 10.5q15 0 25.5 -11.5t10.5 -32.5q0 -53 -27.5 -93.5t-72.5 -66.5zM310 478h24l-12 -78h4q45 39 86.5 64.5t85.5 25.5q62 0 88 -32.5t26 -83.5q0 -18 -1.5 -30.5t-6.5 -33.5l-62 -310h-28l62 306
q5 23 6.5 36t1.5 28q0 47 -21 70.5t-69 23.5q-33 0 -78 -25t-102 -81l-72 -358h-28z" />
    <glyph glyph-name="ograve" unicode="&#xf2;" horiz-adv-x="500" 
d="M204 -12q-72 0 -115 48.5t-43 139.5q0 67 21 124.5t55.5 99.5t79.5 66t94 24q72 0 115 -48.5t43 -139.5q0 -67 -21 -124.5t-55.5 -99.5t-79.5 -66t-94 -24zM294 464q-41 0 -80 -22.5t-70.5 -61.5t-50.5 -90t-19 -108q0 -83 34.5 -125.5t97.5 -42.5q40 0 79.5 22.5
t71 61.5t50.5 90t19 108q0 83 -34.5 125.5t-97.5 42.5zM280 704h34l60 -134h-24z" />
    <glyph glyph-name="oacute" unicode="&#xf3;" horiz-adv-x="500" 
d="M204 -12q-72 0 -115 48.5t-43 139.5q0 67 21 124.5t55.5 99.5t79.5 66t94 24q72 0 115 -48.5t43 -139.5q0 -67 -21 -124.5t-55.5 -99.5t-79.5 -66t-94 -24zM294 464q-41 0 -80 -22.5t-70.5 -61.5t-50.5 -90t-19 -108q0 -83 34.5 -125.5t97.5 -42.5q40 0 79.5 22.5
t71 61.5t50.5 90t19 108q0 83 -34.5 125.5t-97.5 42.5zM390 704h38l-126 -134h-28z" />
    <glyph glyph-name="ocircumflex" unicode="&#xf4;" horiz-adv-x="500" 
d="M204 -12q-72 0 -115 48.5t-43 139.5q0 67 21 124.5t55.5 99.5t79.5 66t94 24q72 0 115 -48.5t43 -139.5q0 -67 -21 -124.5t-55.5 -99.5t-79.5 -66t-94 -24zM294 464q-41 0 -80 -22.5t-70.5 -61.5t-50.5 -90t-19 -108q0 -83 34.5 -125.5t97.5 -42.5q40 0 79.5 22.5
t71 61.5t50.5 90t19 108q0 83 -34.5 125.5t-97.5 42.5zM344 704h18l68 -134h-24l-56 100h-4l-96 -100h-28z" />
    <glyph glyph-name="otilde" unicode="&#xf5;" horiz-adv-x="500" 
d="M204 -12q-72 0 -115 48.5t-43 139.5q0 67 21 124.5t55.5 99.5t79.5 66t94 24q72 0 115 -48.5t43 -139.5q0 -67 -21 -124.5t-55.5 -99.5t-79.5 -66t-94 -24zM294 464q-41 0 -80 -22.5t-70.5 -61.5t-50.5 -90t-19 -108q0 -83 34.5 -125.5t97.5 -42.5q40 0 79.5 22.5
t71 61.5t50.5 90t19 108q0 83 -34.5 125.5t-97.5 42.5zM212 582q4 15 11 29.5t16 26.5t21 19t26 7q21 0 33.5 -9.5t23 -20.5t20.5 -20.5t27 -9.5q14 0 26.5 17t21.5 41h22q-9 -30 -27.5 -56t-46.5 -26q-21 0 -33.5 9.5t-23 20.5t-21 20.5t-26.5 9.5q-14 0 -26.5 -17
t-21.5 -41h-22z" />
    <glyph glyph-name="odieresis" unicode="&#xf6;" horiz-adv-x="500" 
d="M204 -12q-72 0 -115 48.5t-43 139.5q0 67 21 124.5t55.5 99.5t79.5 66t94 24q72 0 115 -48.5t43 -139.5q0 -67 -21 -124.5t-55.5 -99.5t-79.5 -66t-94 -24zM294 464q-41 0 -80 -22.5t-70.5 -61.5t-50.5 -90t-19 -108q0 -83 34.5 -125.5t97.5 -42.5q40 0 79.5 22.5
t71 61.5t50.5 90t19 108q0 83 -34.5 125.5t-97.5 42.5zM264 602q-26 0 -26 26q0 17 10 27.5t22 10.5q26 0 26 -28q0 -15 -10 -25.5t-22 -10.5zM410 602q-26 0 -26 26q0 17 10 27.5t22 10.5q26 0 26 -28q0 -15 -10 -25.5t-22 -10.5z" />
    <glyph glyph-name="omacron" unicode="&#x14d;" horiz-adv-x="500" 
d="M204 -12q-72 0 -115 48.5t-43 139.5q0 67 21 124.5t55.5 99.5t79.5 66t94 24q72 0 115 -48.5t43 -139.5q0 -67 -21 -124.5t-55.5 -99.5t-79.5 -66t-94 -24zM294 464q-41 0 -80 -22.5t-70.5 -61.5t-50.5 -90t-19 -108q0 -83 34.5 -125.5t97.5 -42.5q40 0 79.5 22.5
t71 61.5t50.5 90t19 108q0 83 -34.5 125.5t-97.5 42.5zM232 634h212l-4 -26h-212z" />
    <glyph glyph-name="ohungarumlaut" unicode="&#x151;" horiz-adv-x="500" 
d="M204 -12q-72 0 -115 48.5t-43 139.5q0 67 21 124.5t55.5 99.5t79.5 66t94 24q72 0 115 -48.5t43 -139.5q0 -67 -21 -124.5t-55.5 -99.5t-79.5 -66t-94 -24zM294 464q-41 0 -80 -22.5t-70.5 -61.5t-50.5 -90t-19 -108q0 -83 34.5 -125.5t97.5 -42.5q40 0 79.5 22.5
t71 61.5t50.5 90t19 108q0 83 -34.5 125.5t-97.5 42.5zM350 706h38l-116 -136h-26zM474 706h38l-116 -136h-26z" />
    <glyph glyph-name="uni01D2" unicode="&#x1d2;" horiz-adv-x="500" 
d="M204 -12q-72 0 -115 48.5t-43 139.5q0 67 21 124.5t55.5 99.5t79.5 66t94 24q72 0 115 -48.5t43 -139.5q0 -67 -21 -124.5t-55.5 -99.5t-79.5 -66t-94 -24zM294 464q-41 0 -80 -22.5t-70.5 -61.5t-50.5 -90t-19 -108q0 -83 34.5 -125.5t97.5 -42.5q40 0 79.5 22.5
t71 61.5t50.5 90t19 108q0 83 -34.5 125.5t-97.5 42.5zM336 570h-18l-68 134h24l56 -100h4l96 100h28z" />
    <glyph glyph-name="uni1ECD" unicode="&#x1ecd;" horiz-adv-x="500" 
d="M204 -12q-72 0 -115 48.5t-43 139.5q0 67 21 124.5t55.5 99.5t79.5 66t94 24q72 0 115 -48.5t43 -139.5q0 -67 -21 -124.5t-55.5 -99.5t-79.5 -66t-94 -24zM294 464q-41 0 -80 -22.5t-70.5 -61.5t-50.5 -90t-19 -108q0 -83 34.5 -125.5t97.5 -42.5q40 0 79.5 22.5
t71 61.5t50.5 90t19 108q0 83 -34.5 125.5t-97.5 42.5zM158 -192q-12 0 -20 8t-8 20q0 18 11 29t25 11q12 0 20 -8t8 -22q0 -17 -11 -27.5t-25 -10.5z" />
    <glyph glyph-name="uni1ECF" unicode="&#x1ecf;" horiz-adv-x="500" 
d="M204 -12q-72 0 -115 48.5t-43 139.5q0 67 21 124.5t55.5 99.5t79.5 66t94 24q72 0 115 -48.5t43 -139.5q0 -67 -21 -124.5t-55.5 -99.5t-79.5 -66t-94 -24zM294 464q-41 0 -80 -22.5t-70.5 -61.5t-50.5 -90t-19 -108q0 -83 34.5 -125.5t97.5 -42.5q40 0 79.5 22.5
t71 61.5t50.5 90t19 108q0 83 -34.5 125.5t-97.5 42.5zM312 706q51 -3 73.5 -20.5t22.5 -41.5q0 -38 -28 -59t-72 -35l-8 20q41 14 61.5 29t20.5 39q0 20 -14.5 30.5t-59.5 15.5z" />
    <glyph glyph-name="uni1ED1" unicode="&#x1ed1;" horiz-adv-x="500" 
d="M204 -12q-72 0 -115 48.5t-43 139.5q0 67 21 124.5t55.5 99.5t79.5 66t94 24q72 0 115 -48.5t43 -139.5q0 -67 -21 -124.5t-55.5 -99.5t-79.5 -66t-94 -24zM294 464q-41 0 -80 -22.5t-70.5 -61.5t-50.5 -90t-19 -108q0 -83 34.5 -125.5t97.5 -42.5q40 0 79.5 22.5
t71 61.5t50.5 90t19 108q0 83 -34.5 125.5t-97.5 42.5zM338 682h18l60 -112h-24l-48 78h-4l-80 -78h-28zM510 744h36l-102 -110h-28z" />
    <glyph glyph-name="uni1ED3" unicode="&#x1ed3;" horiz-adv-x="500" 
d="M204 -12q-72 0 -115 48.5t-43 139.5q0 67 21 124.5t55.5 99.5t79.5 66t94 24q72 0 115 -48.5t43 -139.5q0 -67 -21 -124.5t-55.5 -99.5t-79.5 -66t-94 -24zM294 464q-41 0 -80 -22.5t-70.5 -61.5t-50.5 -90t-19 -108q0 -83 34.5 -125.5t97.5 -42.5q40 0 79.5 22.5
t71 61.5t50.5 90t19 108q0 83 -34.5 125.5t-97.5 42.5zM490 634h-24l-60 110h32zM338 682h18l60 -112h-24l-48 78h-4l-80 -78h-28z" />
    <glyph glyph-name="uni1ED5" unicode="&#x1ed5;" horiz-adv-x="500" 
d="M204 -12q-72 0 -115 48.5t-43 139.5q0 67 21 124.5t55.5 99.5t79.5 66t94 24q72 0 115 -48.5t43 -139.5q0 -67 -21 -124.5t-55.5 -99.5t-79.5 -66t-94 -24zM294 464q-41 0 -80 -22.5t-70.5 -61.5t-50.5 -90t-19 -108q0 -83 34.5 -125.5t97.5 -42.5q40 0 79.5 22.5
t71 61.5t50.5 90t19 108q0 83 -34.5 125.5t-97.5 42.5zM434 774q42 -3 64 -19.5t22 -40.5q0 -35 -23.5 -55.5t-64.5 -32.5l-8 20q38 11 54 26t16 36q0 20 -14 29.5t-50 14.5zM338 682h18l60 -112h-24l-48 78h-4l-80 -78h-28z" />
    <glyph glyph-name="uni1ED7" unicode="&#x1ed7;" horiz-adv-x="500" 
d="M204 -12q-72 0 -115 48.5t-43 139.5q0 67 21 124.5t55.5 99.5t79.5 66t94 24q72 0 115 -48.5t43 -139.5q0 -67 -21 -124.5t-55.5 -99.5t-79.5 -66t-94 -24zM294 464q-41 0 -80 -22.5t-70.5 -61.5t-50.5 -90t-19 -108q0 -83 34.5 -125.5t97.5 -42.5q40 0 79.5 22.5
t71 61.5t50.5 90t19 108q0 83 -34.5 125.5t-97.5 42.5zM428 570h-24l-62 64h-4l-86 -64h-30l110 94h24zM242 702q8 27 27 49.5t43 22.5q20 0 32.5 -8t22 -17t19 -17t24.5 -8q12 0 26 14t20 34h22q-8 -27 -27 -49.5t-43 -22.5q-20 0 -32.5 8t-22 17t-19 17t-24.5 8
q-12 0 -26 -14t-20 -34h-22z" />
    <glyph glyph-name="uni1ED9" unicode="&#x1ed9;" horiz-adv-x="500" 
d="M204 -12q-72 0 -115 48.5t-43 139.5q0 67 21 124.5t55.5 99.5t79.5 66t94 24q72 0 115 -48.5t43 -139.5q0 -67 -21 -124.5t-55.5 -99.5t-79.5 -66t-94 -24zM294 464q-41 0 -80 -22.5t-70.5 -61.5t-50.5 -90t-19 -108q0 -83 34.5 -125.5t97.5 -42.5q40 0 79.5 22.5
t71 61.5t50.5 90t19 108q0 83 -34.5 125.5t-97.5 42.5zM344 704h18l68 -134h-24l-56 100h-4l-96 -100h-28zM158 -192q-12 0 -20 8t-8 20q0 18 11 29t25 11q12 0 20 -8t8 -22q0 -17 -11 -27.5t-25 -10.5z" />
    <glyph glyph-name="oslash" unicode="&#xf8;" horiz-adv-x="500" 
d="M103 65q33 -51 103 -51q40 0 79.5 22.5t71 61.5t50.5 90t19 108q0 51 -14 88zM401 408q-35 56 -107 56q-41 0 -80 -22.5t-70.5 -61.5t-50.5 -90t-19 -108t16 -93zM434 406q20 -45 20 -104q0 -67 -21 -124.5t-55.5 -99.5t-79.5 -66t-94 -24q-79 0 -121 57l-65 -67l-18 18
l69 71q-23 44 -23 109q0 67 21 124.5t55.5 99.5t79.5 66t94 24q82 0 125 -61l67 69l18 -18z" />
    <glyph glyph-name="oe" unicode="&#x153;" horiz-adv-x="824" 
d="M204 -12q-72 0 -115 48.5t-43 139.5q0 67 21 124.5t55.5 99.5t79.5 66t94 24q65 0 106 -39t50 -111q32 71 85 110.5t109 39.5q38 0 65 -12.5t44 -35t25 -53t8 -67.5q0 -24 -3.5 -44.5t-8.5 -35.5h-324q-9 -60 -2 -103t25.5 -71t46.5 -41t60 -13q33 0 65 14t59 34l14 -22
q-29 -21 -65 -36.5t-75 -15.5q-66 0 -108.5 41t-51.5 119q-17 -37 -40 -66.5t-51.5 -50.5t-60 -32t-64.5 -11zM294 464q-41 0 -80 -22.5t-70.5 -61.5t-50.5 -90t-19 -108q0 -83 34.5 -125.5t97.5 -42.5q40 0 79.5 22.5t71 61.5t50.5 90t19 108q0 83 -34.5 125.5t-97.5 42.5z
M754 268q3 15 4.5 29t1.5 31q0 25 -6 49.5t-19.5 44t-36 31t-54.5 11.5q-31 0 -60.5 -14.5t-54.5 -40.5t-43.5 -62t-27.5 -79h296z" />
    <glyph glyph-name="ohorn" unicode="&#x1a1;" horiz-adv-x="500" 
d="M206 14q40 0 79.5 22.5t71 61.5t50.5 90t19 108q0 83 -34.5 125.5t-97.5 42.5q-41 0 -80 -22.5t-70.5 -61.5t-50.5 -90t-19 -108q0 -83 34.5 -125.5t97.5 -42.5zM510 586q8 -19 8 -36q0 -38 -28 -67t-83 -37q23 -24 35 -60t12 -84q0 -67 -21 -124.5t-55.5 -99.5
t-79.5 -66t-94 -24q-72 0 -115 48.5t-43 139.5q0 67 21 124.5t55.5 99.5t79.5 66t94 24q47 0 83 -22q45 1 77 20.5t32 55.5q0 8 -0.5 13.5t-3.5 16.5z" />
    <glyph glyph-name="uni1EDB" unicode="&#x1edb;" horiz-adv-x="500" 
d="M206 14q40 0 79.5 22.5t71 61.5t50.5 90t19 108q0 83 -34.5 125.5t-97.5 42.5q-41 0 -80 -22.5t-70.5 -61.5t-50.5 -90t-19 -108q0 -83 34.5 -125.5t97.5 -42.5zM510 586q8 -19 8 -36q0 -38 -28 -67t-83 -37q23 -24 35 -60t12 -84q0 -67 -21 -124.5t-55.5 -99.5
t-79.5 -66t-94 -24q-72 0 -115 48.5t-43 139.5q0 67 21 124.5t55.5 99.5t79.5 66t94 24q47 0 83 -22q45 1 77 20.5t32 55.5q0 8 -0.5 13.5t-3.5 16.5zM385 704h38l-126 -134h-28z" />
    <glyph glyph-name="uni1EDD" unicode="&#x1edd;" horiz-adv-x="500" 
d="M206 14q40 0 79.5 22.5t71 61.5t50.5 90t19 108q0 83 -34.5 125.5t-97.5 42.5q-41 0 -80 -22.5t-70.5 -61.5t-50.5 -90t-19 -108q0 -83 34.5 -125.5t97.5 -42.5zM510 586q8 -19 8 -36q0 -38 -28 -67t-83 -37q23 -24 35 -60t12 -84q0 -67 -21 -124.5t-55.5 -99.5
t-79.5 -66t-94 -24q-72 0 -115 48.5t-43 139.5q0 67 21 124.5t55.5 99.5t79.5 66t94 24q47 0 83 -22q45 1 77 20.5t32 55.5q0 8 -0.5 13.5t-3.5 16.5zM275 704h34l60 -134h-24z" />
    <glyph glyph-name="uni1EDF" unicode="&#x1edf;" horiz-adv-x="500" 
d="M206 14q40 0 79.5 22.5t71 61.5t50.5 90t19 108q0 83 -34.5 125.5t-97.5 42.5q-41 0 -80 -22.5t-70.5 -61.5t-50.5 -90t-19 -108q0 -83 34.5 -125.5t97.5 -42.5zM510 586q8 -19 8 -36q0 -38 -28 -67t-83 -37q23 -24 35 -60t12 -84q0 -67 -21 -124.5t-55.5 -99.5
t-79.5 -66t-94 -24q-72 0 -115 48.5t-43 139.5q0 67 21 124.5t55.5 99.5t79.5 66t94 24q47 0 83 -22q45 1 77 20.5t32 55.5q0 8 -0.5 13.5t-3.5 16.5zM307 706q51 -3 73.5 -20.5t22.5 -41.5q0 -38 -28 -59t-72 -35l-8 20q41 14 61.5 29t20.5 39q0 20 -14.5 30.5t-59.5 15.5z
" />
    <glyph glyph-name="uni1EE1" unicode="&#x1ee1;" horiz-adv-x="500" 
d="M206 14q40 0 79.5 22.5t71 61.5t50.5 90t19 108q0 83 -34.5 125.5t-97.5 42.5q-41 0 -80 -22.5t-70.5 -61.5t-50.5 -90t-19 -108q0 -83 34.5 -125.5t97.5 -42.5zM510 586q8 -19 8 -36q0 -38 -28 -67t-83 -37q23 -24 35 -60t12 -84q0 -67 -21 -124.5t-55.5 -99.5
t-79.5 -66t-94 -24q-72 0 -115 48.5t-43 139.5q0 67 21 124.5t55.5 99.5t79.5 66t94 24q47 0 83 -22q45 1 77 20.5t32 55.5q0 8 -0.5 13.5t-3.5 16.5zM207 582q4 15 11 29.5t16 26.5t21 19t26 7q21 0 33.5 -9.5t23 -20.5t20.5 -20.5t27 -9.5q14 0 26.5 17t21.5 41h22
q-9 -30 -27.5 -56t-46.5 -26q-21 0 -33.5 9.5t-23 20.5t-21 20.5t-26.5 9.5q-14 0 -26.5 -17t-21.5 -41h-22z" />
    <glyph glyph-name="uni1EE3" unicode="&#x1ee3;" horiz-adv-x="500" 
d="M206 14q40 0 79.5 22.5t71 61.5t50.5 90t19 108q0 83 -34.5 125.5t-97.5 42.5q-41 0 -80 -22.5t-70.5 -61.5t-50.5 -90t-19 -108q0 -83 34.5 -125.5t97.5 -42.5zM510 586q8 -19 8 -36q0 -38 -28 -67t-83 -37q23 -24 35 -60t12 -84q0 -67 -21 -124.5t-55.5 -99.5
t-79.5 -66t-94 -24q-72 0 -115 48.5t-43 139.5q0 67 21 124.5t55.5 99.5t79.5 66t94 24q47 0 83 -22q45 1 77 20.5t32 55.5q0 8 -0.5 13.5t-3.5 16.5zM153 -192q-12 0 -20 8t-8 20q0 18 11 29t25 11q12 0 20 -8t8 -22q0 -17 -11 -27.5t-25 -10.5z" />
    <glyph glyph-name="uni01EB" unicode="&#x1eb;" horiz-adv-x="500" 
d="M118 -140q0 19 8 39t20 37t27 30.5t29 21.5q-74 3 -115 50t-41 138q0 67 21 124.5t55.5 99.5t79.5 66t94 24q72 0 115 -48.5t43 -139.5q0 -112 -52.5 -190.5t-141.5 -117.5q-27 -12 -47.5 -27.5t-35 -33t-22 -35t-7.5 -32.5q0 -20 10.5 -31t27.5 -11q12 0 21.5 3t20.5 9
l10 -22q-29 -16 -54 -16q-29 0 -47.5 15t-18.5 47zM294 464q-41 0 -80 -22.5t-70.5 -61.5t-50.5 -90t-19 -108q0 -83 34.5 -125.5t97.5 -42.5q40 0 79.5 22.5t71 61.5t50.5 90t19 108q0 83 -34.5 125.5t-97.5 42.5z" />
    <glyph glyph-name="racute" unicode="&#x155;" horiz-adv-x="308" 
d="M140 478h24l-16 -90h4q30 42 66.5 72t83.5 30q9 0 19.5 -1.5t22.5 -6.5l-12 -28q-6 3 -14 5.5t-22 2.5q-39 0 -83 -37t-77 -103l-64 -322h-28zM308 704h38l-126 -134h-28z" />
    <glyph glyph-name="uni0157" unicode="&#x157;" horiz-adv-x="308" 
d="M140 478h24l-16 -90h4q30 42 66.5 72t83.5 30q9 0 19.5 -1.5t22.5 -6.5l-12 -28q-6 3 -14 5.5t-22 2.5q-39 0 -83 -37t-77 -103l-64 -322h-28zM36 -50q23 -8 39.5 -20.5t16.5 -35.5q0 -21 -10.5 -37t-28 -27.5t-40 -18.5t-45.5 -11l-4 20q42 9 72 25t30 43
q0 20 -13.5 27.5t-28.5 12.5z" />
    <glyph glyph-name="rcaron" unicode="&#x159;" horiz-adv-x="308" 
d="M140 478h24l-16 -90h4q30 42 66.5 72t83.5 30q9 0 19.5 -1.5t22.5 -6.5l-12 -28q-6 3 -14 5.5t-22 2.5q-39 0 -83 -37t-77 -103l-64 -322h-28zM254 570h-18l-68 134h24l56 -100h4l96 100h28z" />
    <glyph glyph-name="uni1E5B" unicode="&#x1e5b;" horiz-adv-x="308" 
d="M140 478h24l-16 -90h4q30 42 66.5 72t83.5 30q9 0 19.5 -1.5t22.5 -6.5l-12 -28q-6 3 -14 5.5t-22 2.5q-39 0 -83 -37t-77 -103l-64 -322h-28zM34 -192q-12 0 -20 8t-8 20q0 18 11 29t25 11q12 0 20 -8t8 -22q0 -17 -11 -27.5t-25 -10.5z" />
    <glyph glyph-name="uni1E5D" unicode="&#x1e5d;" horiz-adv-x="308" 
d="M140 478h24l-16 -90h4q30 42 66.5 72t83.5 30q9 0 19.5 -1.5t22.5 -6.5l-12 -28q-6 3 -14 5.5t-22 2.5q-39 0 -83 -37t-77 -103l-64 -322h-28zM150 634h212l-4 -26h-212zM34 -192q-12 0 -20 8t-8 20q0 18 11 29t25 11q12 0 20 -8t8 -22q0 -17 -11 -27.5t-25 -10.5z" />
    <glyph glyph-name="uni1E5F" unicode="&#x1e5f;" horiz-adv-x="308" 
d="M140 478h24l-16 -90h4q30 42 66.5 72t83.5 30q9 0 19.5 -1.5t22.5 -6.5l-12 -28q-6 3 -14 5.5t-22 2.5q-39 0 -83 -37t-77 -103l-64 -322h-28zM-62 -128h212l-4 -26h-212z" />
    <glyph glyph-name="sacute" unicode="&#x15b;" horiz-adv-x="384" 
d="M22 92q20 -32 56 -55t84 -23q26 0 49.5 8.5t41.5 23.5t28.5 34.5t10.5 41.5q0 15 -3.5 28t-13.5 25.5t-28 26t-47 28.5q-34 18 -57 33.5t-37 30.5t-20 30.5t-6 33.5q0 30 12 54.5t32 41.5t46.5 26.5t55.5 9.5q39 0 71.5 -15t56.5 -41l-20 -20q-20 21 -46 35.5t-64 14.5
q-24 0 -45 -8t-37 -21.5t-25 -32t-9 -38.5q0 -36 27 -58.5t63 -41.5q41 -23 65.5 -41t37 -34.5t16 -31t3.5 -29.5q0 -32 -12.5 -58t-34 -44t-51.5 -28t-64 -10q-26 0 -50.5 8t-45 20.5t-36.5 28t-26 31.5zM320 704h38l-126 -134h-28z" />
    <glyph glyph-name="scircumflex" unicode="&#x15d;" horiz-adv-x="384" 
d="M22 92q20 -32 56 -55t84 -23q26 0 49.5 8.5t41.5 23.5t28.5 34.5t10.5 41.5q0 15 -3.5 28t-13.5 25.5t-28 26t-47 28.5q-34 18 -57 33.5t-37 30.5t-20 30.5t-6 33.5q0 30 12 54.5t32 41.5t46.5 26.5t55.5 9.5q39 0 71.5 -15t56.5 -41l-20 -20q-20 21 -46 35.5t-64 14.5
q-24 0 -45 -8t-37 -21.5t-25 -32t-9 -38.5q0 -36 27 -58.5t63 -41.5q41 -23 65.5 -41t37 -34.5t16 -31t3.5 -29.5q0 -32 -12.5 -58t-34 -44t-51.5 -28t-64 -10q-26 0 -50.5 8t-45 20.5t-36.5 28t-26 31.5zM274 704h18l68 -134h-24l-56 100h-4l-96 -100h-28z" />
    <glyph glyph-name="scaron" unicode="&#x161;" horiz-adv-x="384" 
d="M22 92q20 -32 56 -55t84 -23q26 0 49.5 8.5t41.5 23.5t28.5 34.5t10.5 41.5q0 15 -3.5 28t-13.5 25.5t-28 26t-47 28.5q-34 18 -57 33.5t-37 30.5t-20 30.5t-6 33.5q0 30 12 54.5t32 41.5t46.5 26.5t55.5 9.5q39 0 71.5 -15t56.5 -41l-20 -20q-20 21 -46 35.5t-64 14.5
q-24 0 -45 -8t-37 -21.5t-25 -32t-9 -38.5q0 -36 27 -58.5t63 -41.5q41 -23 65.5 -41t37 -34.5t16 -31t3.5 -29.5q0 -32 -12.5 -58t-34 -44t-51.5 -28t-64 -10q-26 0 -50.5 8t-45 20.5t-36.5 28t-26 31.5zM266 570h-18l-68 134h24l56 -100h4l96 100h28z" />
    <glyph glyph-name="uni015F" unicode="&#x15f;" horiz-adv-x="384" 
d="M22 92q20 -32 56 -55t84 -23q26 0 49.5 8.5t41.5 23.5t28.5 34.5t10.5 41.5q0 15 -3.5 28t-13.5 25.5t-28 26t-47 28.5q-34 18 -57 33.5t-37 30.5t-20 30.5t-6 33.5q0 30 12 54.5t32 41.5t46.5 26.5t55.5 9.5q39 0 71.5 -15t56.5 -41l-20 -20q-20 21 -46 35.5t-64 14.5
q-24 0 -45 -8t-37 -21.5t-25 -32t-9 -38.5q0 -36 27 -58.5t63 -41.5q41 -23 65.5 -41t37 -34.5t16 -31t3.5 -29.5q0 -32 -12.5 -58t-34 -44t-51.5 -28t-64 -10q-26 0 -50.5 8t-45 20.5t-36.5 28t-26 31.5zM162 2h28l-44 -62q18 -6 32 -18.5t14 -35.5q0 -21 -10 -37
t-26.5 -27.5t-38.5 -18.5t-45 -11l-4 20q42 9 70 25t28 43q0 20 -14 29t-44 17z" />
    <glyph glyph-name="uni0219" unicode="&#x219;" horiz-adv-x="384" 
d="M22 92q20 -32 56 -55t84 -23q26 0 49.5 8.5t41.5 23.5t28.5 34.5t10.5 41.5q0 15 -3.5 28t-13.5 25.5t-28 26t-47 28.5q-34 18 -57 33.5t-37 30.5t-20 30.5t-6 33.5q0 30 12 54.5t32 41.5t46.5 26.5t55.5 9.5q39 0 71.5 -15t56.5 -41l-20 -20q-20 21 -46 35.5t-64 14.5
q-24 0 -45 -8t-37 -21.5t-25 -32t-9 -38.5q0 -36 27 -58.5t63 -41.5q41 -23 65.5 -41t37 -34.5t16 -31t3.5 -29.5q0 -32 -12.5 -58t-34 -44t-51.5 -28t-64 -10q-26 0 -50.5 8t-45 20.5t-36.5 28t-26 31.5zM138 -50q23 -8 39.5 -20.5t16.5 -35.5q0 -21 -10.5 -37t-28 -27.5
t-40 -18.5t-45.5 -11l-4 20q42 9 72 25t30 43q0 20 -13.5 27.5t-28.5 12.5z" />
    <glyph glyph-name="uni1E61" unicode="&#x1e61;" horiz-adv-x="384" 
d="M22 92q20 -32 56 -55t84 -23q26 0 49.5 8.5t41.5 23.5t28.5 34.5t10.5 41.5q0 15 -3.5 28t-13.5 25.5t-28 26t-47 28.5q-34 18 -57 33.5t-37 30.5t-20 30.5t-6 33.5q0 30 12 54.5t32 41.5t46.5 26.5t55.5 9.5q39 0 71.5 -15t56.5 -41l-20 -20q-20 21 -46 35.5t-64 14.5
q-24 0 -45 -8t-37 -21.5t-25 -32t-9 -38.5q0 -36 27 -58.5t63 -41.5q41 -23 65.5 -41t37 -34.5t16 -31t3.5 -29.5q0 -32 -12.5 -58t-34 -44t-51.5 -28t-64 -10q-26 0 -50.5 8t-45 20.5t-36.5 28t-26 31.5zM264 600q-12 0 -20 8t-8 20q0 18 11 29t25 11q12 0 20 -8t8 -22
q0 -17 -11 -27.5t-25 -10.5z" />
    <glyph glyph-name="uni1E63" unicode="&#x1e63;" horiz-adv-x="384" 
d="M22 92q20 -32 56 -55t84 -23q26 0 49.5 8.5t41.5 23.5t28.5 34.5t10.5 41.5q0 15 -3.5 28t-13.5 25.5t-28 26t-47 28.5q-34 18 -57 33.5t-37 30.5t-20 30.5t-6 33.5q0 30 12 54.5t32 41.5t46.5 26.5t55.5 9.5q39 0 71.5 -15t56.5 -41l-20 -20q-20 21 -46 35.5t-64 14.5
q-24 0 -45 -8t-37 -21.5t-25 -32t-9 -38.5q0 -36 27 -58.5t63 -41.5q41 -23 65.5 -41t37 -34.5t16 -31t3.5 -29.5q0 -32 -12.5 -58t-34 -44t-51.5 -28t-64 -10q-26 0 -50.5 8t-45 20.5t-36.5 28t-26 31.5zM136 -192q-12 0 -20 8t-8 20q0 18 11 29t25 11q12 0 20 -8t8 -22
q0 -17 -11 -27.5t-25 -10.5z" />
    <glyph glyph-name="germandbls" unicode="&#xdf;" horiz-adv-x="512" 
d="M152 540q8 39 24.5 74t40 62t53.5 42.5t66 15.5q51 0 80.5 -30.5t29.5 -87.5q0 -50 -23 -83t-51 -59t-51 -51.5t-23 -60.5q0 -24 12 -41.5t30 -32.5t39 -30t39 -32.5t30 -40.5t12 -55q0 -29 -11 -55t-31 -45.5t-47.5 -30.5t-60.5 -11q-35 0 -70 14t-64 40l18 20
q27 -23 55 -35.5t63 -12.5q24 0 45.5 8t38 23t26.5 35t10 44q0 29 -12 51t-30 39t-39 32t-39 31t-30 34.5t-12 44.5q0 29 11 51t27.5 41t35.5 36.5t35.5 36.5t27.5 42t11 53q0 39 -19.5 65.5t-64.5 26.5q-29 0 -54.5 -14t-45.5 -38t-34.5 -56.5t-21.5 -69.5l-106 -530h-28z
" />
    <glyph glyph-name="tcaron" unicode="&#x165;" horiz-adv-x="290" 
d="M146 452h-76l4 22l78 4l32 138h24l-28 -138h132l-6 -26h-132l-68 -330q-2 -9 -3 -18t-1 -20q0 -35 14.5 -52.5t55.5 -17.5q18 0 33 6t27 12l10 -22q-14 -8 -32.5 -15t-39.5 -7q-54 0 -75 27t-21 63q0 14 1 24t3 22zM300 548l40 204h28l-8 -48l-38 -156h-22z" />
    <glyph glyph-name="uni0163" unicode="&#x163;" horiz-adv-x="290" 
d="M146 452h-76l4 22l78 4l32 138h24l-28 -138h132l-6 -26h-132l-68 -330q-2 -9 -3 -18t-1 -20q0 -35 14.5 -52.5t55.5 -17.5q18 0 33 6t27 12l10 -22q-14 -8 -32.5 -15t-39.5 -7q-54 0 -75 27t-21 63q0 14 1 24t3 22zM154 2h28l-44 -62q18 -6 32 -18.5t14 -35.5
q0 -21 -10 -37t-26.5 -27.5t-38.5 -18.5t-45 -11l-4 20q42 9 70 25t28 43q0 20 -14 29t-44 17z" />
    <glyph glyph-name="uni021B" unicode="&#x21b;" horiz-adv-x="290" 
d="M146 452h-76l4 22l78 4l32 138h24l-28 -138h132l-6 -26h-132l-68 -330q-2 -9 -3 -18t-1 -20q0 -35 14.5 -52.5t55.5 -17.5q18 0 33 6t27 12l10 -22q-14 -8 -32.5 -15t-39.5 -7q-54 0 -75 27t-21 63q0 14 1 24t3 22zM120 -50q23 -8 39.5 -20.5t16.5 -35.5q0 -21 -10.5 -37
t-28 -27.5t-40 -18.5t-45.5 -11l-4 20q42 9 72 25t30 43q0 20 -13.5 27.5t-28.5 12.5z" />
    <glyph glyph-name="uni1E6D" unicode="&#x1e6d;" horiz-adv-x="290" 
d="M146 452h-76l4 22l78 4l32 138h24l-28 -138h132l-6 -26h-132l-68 -330q-2 -9 -3 -18t-1 -20q0 -35 14.5 -52.5t55.5 -17.5q18 0 33 6t27 12l10 -22q-14 -8 -32.5 -15t-39.5 -7q-54 0 -75 27t-21 63q0 14 1 24t3 22zM118 -192q-12 0 -20 8t-8 20q0 18 11 29t25 11
q12 0 20 -8t8 -22q0 -17 -11 -27.5t-25 -10.5z" />
    <glyph glyph-name="uni1E6F" unicode="&#x1e6f;" horiz-adv-x="290" 
d="M146 452h-76l4 22l78 4l32 138h24l-28 -138h132l-6 -26h-132l-68 -330q-2 -9 -3 -18t-1 -20q0 -35 14.5 -52.5t55.5 -17.5q18 0 33 6t27 12l10 -22q-14 -8 -32.5 -15t-39.5 -7q-54 0 -75 27t-21 63q0 14 1 24t3 22zM22 -128h212l-4 -26h-212z" />
    <glyph glyph-name="uni1E97" unicode="&#x1e97;" horiz-adv-x="290" 
d="M146 452h-76l4 22l78 4l32 138h24l-28 -138h132l-6 -26h-132l-68 -330q-2 -9 -3 -18t-1 -20q0 -35 14.5 -52.5t55.5 -17.5q18 0 33 6t27 12l10 -22q-14 -8 -32.5 -15t-39.5 -7q-54 0 -75 27t-21 63q0 14 1 24t3 22zM140 734q-26 0 -26 26q0 17 10 27.5t22 10.5
q26 0 26 -28q0 -15 -10 -25.5t-22 -10.5zM286 734q-26 0 -26 26q0 17 10 27.5t22 10.5q26 0 26 -28q0 -15 -10 -25.5t-22 -10.5z" />
    <glyph glyph-name="ugrave" unicode="&#xf9;" horiz-adv-x="514" 
d="M372 0h-24l12 80h-4q-45 -39 -86.5 -65.5t-85.5 -26.5q-62 0 -88 32.5t-26 83.5q0 18 1.5 30.5t6.5 33.5l62 310h28l-62 -306q-5 -23 -6.5 -36t-1.5 -28q0 -47 21 -70.5t69 -23.5q33 0 78 25t102 81l72 358h28zM270 704h34l60 -134h-24z" />
    <glyph glyph-name="uacute" unicode="&#xfa;" horiz-adv-x="514" 
d="M372 0h-24l12 80h-4q-45 -39 -86.5 -65.5t-85.5 -26.5q-62 0 -88 32.5t-26 83.5q0 18 1.5 30.5t6.5 33.5l62 310h28l-62 -306q-5 -23 -6.5 -36t-1.5 -28q0 -47 21 -70.5t69 -23.5q33 0 78 25t102 81l72 358h28zM380 704h38l-126 -134h-28z" />
    <glyph glyph-name="ucircumflex" unicode="&#xfb;" horiz-adv-x="514" 
d="M372 0h-24l12 80h-4q-45 -39 -86.5 -65.5t-85.5 -26.5q-62 0 -88 32.5t-26 83.5q0 18 1.5 30.5t6.5 33.5l62 310h28l-62 -306q-5 -23 -6.5 -36t-1.5 -28q0 -47 21 -70.5t69 -23.5q33 0 78 25t102 81l72 358h28zM334 704h18l68 -134h-24l-56 100h-4l-96 -100h-28z" />
    <glyph glyph-name="utilde" unicode="&#x169;" horiz-adv-x="514" 
d="M372 0h-24l12 80h-4q-45 -39 -86.5 -65.5t-85.5 -26.5q-62 0 -88 32.5t-26 83.5q0 18 1.5 30.5t6.5 33.5l62 310h28l-62 -306q-5 -23 -6.5 -36t-1.5 -28q0 -47 21 -70.5t69 -23.5q33 0 78 25t102 81l72 358h28zM202 582q4 15 11 29.5t16 26.5t21 19t26 7q21 0 33.5 -9.5
t23 -20.5t20.5 -20.5t27 -9.5q14 0 26.5 17t21.5 41h22q-9 -30 -27.5 -56t-46.5 -26q-21 0 -33.5 9.5t-23 20.5t-21 20.5t-26.5 9.5q-14 0 -26.5 -17t-21.5 -41h-22z" />
    <glyph glyph-name="udieresis" unicode="&#xfc;" horiz-adv-x="514" 
d="M372 0h-24l12 80h-4q-45 -39 -86.5 -65.5t-85.5 -26.5q-62 0 -88 32.5t-26 83.5q0 18 1.5 30.5t6.5 33.5l62 310h28l-62 -306q-5 -23 -6.5 -36t-1.5 -28q0 -47 21 -70.5t69 -23.5q33 0 78 25t102 81l72 358h28zM254 602q-26 0 -26 26q0 17 10 27.5t22 10.5q26 0 26 -28
q0 -15 -10 -25.5t-22 -10.5zM400 602q-26 0 -26 26q0 17 10 27.5t22 10.5q26 0 26 -28q0 -15 -10 -25.5t-22 -10.5z" />
    <glyph glyph-name="umacron" unicode="&#x16b;" horiz-adv-x="514" 
d="M372 0h-24l12 80h-4q-45 -39 -86.5 -65.5t-85.5 -26.5q-62 0 -88 32.5t-26 83.5q0 18 1.5 30.5t6.5 33.5l62 310h28l-62 -306q-5 -23 -6.5 -36t-1.5 -28q0 -47 21 -70.5t69 -23.5q33 0 78 25t102 81l72 358h28zM222 634h212l-4 -26h-212z" />
    <glyph glyph-name="ubreve" unicode="&#x16d;" horiz-adv-x="514" 
d="M372 0h-24l12 80h-4q-45 -39 -86.5 -65.5t-85.5 -26.5q-62 0 -88 32.5t-26 83.5q0 18 1.5 30.5t6.5 33.5l62 310h28l-62 -306q-5 -23 -6.5 -36t-1.5 -28q0 -47 21 -70.5t69 -23.5q33 0 78 25t102 81l72 358h28zM318 576q-29 0 -46.5 10.5t-26.5 27t-12 36.5t-1 40h22
q-3 -41 12.5 -65.5t53.5 -24.5t65 26t41 64h24q-7 -20 -17.5 -40t-26.5 -36.5t-38 -27t-50 -10.5z" />
    <glyph glyph-name="uring" unicode="&#x16f;" horiz-adv-x="514" 
d="M372 0h-24l12 80h-4q-45 -39 -86.5 -65.5t-85.5 -26.5q-62 0 -88 32.5t-26 83.5q0 18 1.5 30.5t6.5 33.5l62 310h28l-62 -306q-5 -23 -6.5 -36t-1.5 -28q0 -47 21 -70.5t69 -23.5q33 0 78 25t102 81l72 358h28zM318 534q-30 0 -50 19t-20 57q0 19 7 36t19 30t27.5 20.5
t32.5 7.5q30 0 50 -19t20 -57q0 -19 -7 -36t-19 -30t-27.5 -20.5t-32.5 -7.5zM332 682q-24 0 -42 -20.5t-18 -49.5q0 -26 12.5 -41t35.5 -15q24 0 42 20.5t18 49.5q0 26 -12.5 41t-35.5 15z" />
    <glyph glyph-name="uhungarumlaut" unicode="&#x171;" horiz-adv-x="514" 
d="M372 0h-24l12 80h-4q-45 -39 -86.5 -65.5t-85.5 -26.5q-62 0 -88 32.5t-26 83.5q0 18 1.5 30.5t6.5 33.5l62 310h28l-62 -306q-5 -23 -6.5 -36t-1.5 -28q0 -47 21 -70.5t69 -23.5q33 0 78 25t102 81l72 358h28zM340 706h38l-116 -136h-26zM464 706h38l-116 -136h-26z" />
    <glyph glyph-name="uni01D4" unicode="&#x1d4;" horiz-adv-x="514" 
d="M372 0h-24l12 80h-4q-45 -39 -86.5 -65.5t-85.5 -26.5q-62 0 -88 32.5t-26 83.5q0 18 1.5 30.5t6.5 33.5l62 310h28l-62 -306q-5 -23 -6.5 -36t-1.5 -28q0 -47 21 -70.5t69 -23.5q33 0 78 25t102 81l72 358h28zM326 570h-18l-68 134h24l56 -100h4l96 100h28z" />
    <glyph glyph-name="uni01D6" unicode="&#x1d6;" horiz-adv-x="514" 
d="M372 0h-24l12 80h-4q-45 -39 -86.5 -65.5t-85.5 -26.5q-62 0 -88 32.5t-26 83.5q0 18 1.5 30.5t6.5 33.5l62 310h28l-62 -306q-5 -23 -6.5 -36t-1.5 -28q0 -47 21 -70.5t69 -23.5q33 0 78 25t102 81l72 358h28zM254 770h210l-6 -26h-210zM254 602q-26 0 -26 26
q0 17 10 27.5t22 10.5q26 0 26 -28q0 -15 -10 -25.5t-22 -10.5zM400 602q-26 0 -26 26q0 17 10 27.5t22 10.5q26 0 26 -28q0 -15 -10 -25.5t-22 -10.5z" />
    <glyph glyph-name="uni01D8" unicode="&#x1d8;" horiz-adv-x="514" 
d="M372 0h-24l12 80h-4q-45 -39 -86.5 -65.5t-85.5 -26.5q-62 0 -88 32.5t-26 83.5q0 18 1.5 30.5t6.5 33.5l62 310h28l-62 -306q-5 -23 -6.5 -36t-1.5 -28q0 -47 21 -70.5t69 -23.5q33 0 78 25t102 81l72 358h28zM398 800h38l-96 -94h-28zM254 602q-26 0 -26 26
q0 17 10 27.5t22 10.5q26 0 26 -28q0 -15 -10 -25.5t-22 -10.5zM400 602q-26 0 -26 26q0 17 10 27.5t22 10.5q26 0 26 -28q0 -15 -10 -25.5t-22 -10.5z" />
    <glyph glyph-name="uni01DA" unicode="&#x1da;" horiz-adv-x="514" 
d="M372 0h-24l12 80h-4q-45 -39 -86.5 -65.5t-85.5 -26.5q-62 0 -88 32.5t-26 83.5q0 18 1.5 30.5t6.5 33.5l62 310h28l-62 -306q-5 -23 -6.5 -36t-1.5 -28q0 -47 21 -70.5t69 -23.5q33 0 78 25t102 81l72 358h28zM262 800h24l64 -66h4l82 66h28l-106 -94h-18zM254 602
q-26 0 -26 26q0 17 10 27.5t22 10.5q26 0 26 -28q0 -15 -10 -25.5t-22 -10.5zM400 602q-26 0 -26 26q0 17 10 27.5t22 10.5q26 0 26 -28q0 -15 -10 -25.5t-22 -10.5z" />
    <glyph glyph-name="uni01DC" unicode="&#x1dc;" horiz-adv-x="514" 
d="M372 0h-24l12 80h-4q-45 -39 -86.5 -65.5t-85.5 -26.5q-62 0 -88 32.5t-26 83.5q0 18 1.5 30.5t6.5 33.5l62 310h28l-62 -306q-5 -23 -6.5 -36t-1.5 -28q0 -47 21 -70.5t69 -23.5q33 0 78 25t102 81l72 358h28zM280 800h34l60 -94h-24zM254 602q-26 0 -26 26
q0 17 10 27.5t22 10.5q26 0 26 -28q0 -15 -10 -25.5t-22 -10.5zM400 602q-26 0 -26 26q0 17 10 27.5t22 10.5q26 0 26 -28q0 -15 -10 -25.5t-22 -10.5z" />
    <glyph glyph-name="uni1EE5" unicode="&#x1ee5;" horiz-adv-x="514" 
d="M372 0h-24l12 80h-4q-45 -39 -86.5 -65.5t-85.5 -26.5q-62 0 -88 32.5t-26 83.5q0 18 1.5 30.5t6.5 33.5l62 310h28l-62 -306q-5 -23 -6.5 -36t-1.5 -28q0 -47 21 -70.5t69 -23.5q33 0 78 25t102 81l72 358h28zM210 -192q-12 0 -20 8t-8 20q0 18 11 29t25 11q12 0 20 -8
t8 -22q0 -17 -11 -27.5t-25 -10.5z" />
    <glyph glyph-name="uni1EE7" unicode="&#x1ee7;" horiz-adv-x="514" 
d="M372 0h-24l12 80h-4q-45 -39 -86.5 -65.5t-85.5 -26.5q-62 0 -88 32.5t-26 83.5q0 18 1.5 30.5t6.5 33.5l62 310h28l-62 -306q-5 -23 -6.5 -36t-1.5 -28q0 -47 21 -70.5t69 -23.5q33 0 78 25t102 81l72 358h28zM302 706q51 -3 73.5 -20.5t22.5 -41.5q0 -38 -28 -59
t-72 -35l-8 20q41 14 61.5 29t20.5 39q0 20 -14.5 30.5t-59.5 15.5z" />
    <glyph glyph-name="uogonek" unicode="&#x173;" horiz-adv-x="514" 
d="M372 0q-53 -30 -83.5 -64.5t-30.5 -69.5q0 -20 10.5 -31t27.5 -11q12 0 21.5 3t20.5 9l10 -22q-29 -16 -54 -16q-29 0 -47.5 15t-18.5 47q0 21 10 42.5t26.5 41t38.5 36.5t47 30l10 70h-4q-45 -39 -86.5 -65.5t-85.5 -26.5q-62 0 -88 32.5t-26 83.5q0 18 1.5 30.5
t6.5 33.5l62 310h28l-62 -306q-5 -23 -6.5 -36t-1.5 -28q0 -47 21 -70.5t69 -23.5q33 0 78 25t102 81l72 358h28z" />
    <glyph glyph-name="uhorn" unicode="&#x1b0;" horiz-adv-x="524" 
d="M560 596q8 -19 8 -36q0 -19 -8 -36.5t-22.5 -31t-33.5 -23t-40 -13.5l-92 -456h-24l12 80h-4q-45 -39 -86.5 -65.5t-85.5 -26.5q-62 0 -88 32.5t-26 83.5q0 18 1.5 30.5t6.5 33.5l62 310h28l-62 -306q-5 -23 -6.5 -36t-1.5 -28q0 -47 21 -70.5t69 -23.5q33 0 78 25
t102 81l72 358h2q17 2 34.5 8t31 15t22 22.5t8.5 30.5q0 8 -0.5 13.5t-3.5 16.5z" />
    <glyph glyph-name="uni1EE9" unicode="&#x1ee9;" horiz-adv-x="524" 
d="M560 596q8 -19 8 -36q0 -19 -8 -36.5t-22.5 -31t-33.5 -23t-40 -13.5l-92 -456h-24l12 80h-4q-45 -39 -86.5 -65.5t-85.5 -26.5q-62 0 -88 32.5t-26 83.5q0 18 1.5 30.5t6.5 33.5l62 310h28l-62 -306q-5 -23 -6.5 -36t-1.5 -28q0 -47 21 -70.5t69 -23.5q33 0 78 25
t102 81l72 358h2q17 2 34.5 8t31 15t22 22.5t8.5 30.5q0 8 -0.5 13.5t-3.5 16.5zM380 704h38l-126 -134h-28z" />
    <glyph glyph-name="uni1EEB" unicode="&#x1eeb;" horiz-adv-x="524" 
d="M560 596q8 -19 8 -36q0 -19 -8 -36.5t-22.5 -31t-33.5 -23t-40 -13.5l-92 -456h-24l12 80h-4q-45 -39 -86.5 -65.5t-85.5 -26.5q-62 0 -88 32.5t-26 83.5q0 18 1.5 30.5t6.5 33.5l62 310h28l-62 -306q-5 -23 -6.5 -36t-1.5 -28q0 -47 21 -70.5t69 -23.5q33 0 78 25
t102 81l72 358h2q17 2 34.5 8t31 15t22 22.5t8.5 30.5q0 8 -0.5 13.5t-3.5 16.5zM270 704h34l60 -134h-24z" />
    <glyph glyph-name="uni1EED" unicode="&#x1eed;" horiz-adv-x="524" 
d="M560 596q8 -19 8 -36q0 -19 -8 -36.5t-22.5 -31t-33.5 -23t-40 -13.5l-92 -456h-24l12 80h-4q-45 -39 -86.5 -65.5t-85.5 -26.5q-62 0 -88 32.5t-26 83.5q0 18 1.5 30.5t6.5 33.5l62 310h28l-62 -306q-5 -23 -6.5 -36t-1.5 -28q0 -47 21 -70.5t69 -23.5q33 0 78 25
t102 81l72 358h2q17 2 34.5 8t31 15t22 22.5t8.5 30.5q0 8 -0.5 13.5t-3.5 16.5zM302 706q51 -3 73.5 -20.5t22.5 -41.5q0 -38 -28 -59t-72 -35l-8 20q41 14 61.5 29t20.5 39q0 20 -14.5 30.5t-59.5 15.5z" />
    <glyph glyph-name="uni1EEF" unicode="&#x1eef;" horiz-adv-x="524" 
d="M560 596q8 -19 8 -36q0 -19 -8 -36.5t-22.5 -31t-33.5 -23t-40 -13.5l-92 -456h-24l12 80h-4q-45 -39 -86.5 -65.5t-85.5 -26.5q-62 0 -88 32.5t-26 83.5q0 18 1.5 30.5t6.5 33.5l62 310h28l-62 -306q-5 -23 -6.5 -36t-1.5 -28q0 -47 21 -70.5t69 -23.5q33 0 78 25
t102 81l72 358h2q17 2 34.5 8t31 15t22 22.5t8.5 30.5q0 8 -0.5 13.5t-3.5 16.5zM202 582q4 15 11 29.5t16 26.5t21 19t26 7q21 0 33.5 -9.5t23 -20.5t20.5 -20.5t27 -9.5q14 0 26.5 17t21.5 41h22q-9 -30 -27.5 -56t-46.5 -26q-21 0 -33.5 9.5t-23 20.5t-21 20.5t-26.5 9.5
q-14 0 -26.5 -17t-21.5 -41h-22z" />
    <glyph glyph-name="uni1EF1" unicode="&#x1ef1;" horiz-adv-x="524" 
d="M560 596q8 -19 8 -36q0 -19 -8 -36.5t-22.5 -31t-33.5 -23t-40 -13.5l-92 -456h-24l12 80h-4q-45 -39 -86.5 -65.5t-85.5 -26.5q-62 0 -88 32.5t-26 83.5q0 18 1.5 30.5t6.5 33.5l62 310h28l-62 -306q-5 -23 -6.5 -36t-1.5 -28q0 -47 21 -70.5t69 -23.5q33 0 78 25
t102 81l72 358h2q17 2 34.5 8t31 15t22 22.5t8.5 30.5q0 8 -0.5 13.5t-3.5 16.5zM210 -192q-12 0 -20 8t-8 20q0 18 11 29t25 11q12 0 20 -8t8 -22q0 -17 -11 -27.5t-25 -10.5z" />
    <glyph glyph-name="wgrave" unicode="&#x1e81;" horiz-adv-x="674" 
d="M68 478h28l28 -324q3 -33 6 -64.5t6 -63.5h4q15 32 29 63.5t29 64.5l150 324h40l24 -324q2 -33 4 -64.5t4 -63.5h4q15 32 29 63.5t31 64.5l154 324h28l-228 -478h-42l-22 312q-3 35 -4 72t-4 70h-4q-15 -33 -31 -70t-33 -72l-144 -312h-42zM354 704h34l60 -134h-24z" />
    <glyph glyph-name="wacute" unicode="&#x1e83;" horiz-adv-x="674" 
d="M68 478h28l28 -324q3 -33 6 -64.5t6 -63.5h4q15 32 29 63.5t29 64.5l150 324h40l24 -324q2 -33 4 -64.5t4 -63.5h4q15 32 29 63.5t31 64.5l154 324h28l-228 -478h-42l-22 312q-3 35 -4 72t-4 70h-4q-15 -33 -31 -70t-33 -72l-144 -312h-42zM464 704h38l-126 -134h-28z
" />
    <glyph glyph-name="wcircumflex" unicode="&#x175;" horiz-adv-x="674" 
d="M68 478h28l28 -324q3 -33 6 -64.5t6 -63.5h4q15 32 29 63.5t29 64.5l150 324h40l24 -324q2 -33 4 -64.5t4 -63.5h4q15 32 29 63.5t31 64.5l154 324h28l-228 -478h-42l-22 312q-3 35 -4 72t-4 70h-4q-15 -33 -31 -70t-33 -72l-144 -312h-42zM418 704h18l68 -134h-24
l-56 100h-4l-96 -100h-28z" />
    <glyph glyph-name="wdieresis" unicode="&#x1e85;" horiz-adv-x="674" 
d="M68 478h28l28 -324q3 -33 6 -64.5t6 -63.5h4q15 32 29 63.5t29 64.5l150 324h40l24 -324q2 -33 4 -64.5t4 -63.5h4q15 32 29 63.5t31 64.5l154 324h28l-228 -478h-42l-22 312q-3 35 -4 72t-4 70h-4q-15 -33 -31 -70t-33 -72l-144 -312h-42zM338 602q-26 0 -26 26
q0 17 10 27.5t22 10.5q26 0 26 -28q0 -15 -10 -25.5t-22 -10.5zM484 602q-26 0 -26 26q0 17 10 27.5t22 10.5q26 0 26 -28q0 -15 -10 -25.5t-22 -10.5z" />
    <glyph glyph-name="ygrave" unicode="&#x1ef3;" horiz-adv-x="408" 
d="M-72 -188q16 -8 34 -8q45 0 83.5 38.5t70.5 103.5l22 44l-80 488h28l50 -312q6 -35 11.5 -72t10.5 -70h4q18 35 37 70.5t39 71.5l170 312h30l-300 -544q-14 -28 -31.5 -55.5t-39.5 -50t-48.5 -36.5t-58.5 -14q-8 0 -19 2t-25 8l12 24v0zM210 704h34l60 -134h-24z" />
    <glyph glyph-name="yacute" unicode="&#xfd;" horiz-adv-x="408" 
d="M-72 -188q16 -8 34 -8q45 0 83.5 38.5t70.5 103.5l22 44l-80 488h28l50 -312q6 -35 11.5 -72t10.5 -70h4q18 35 37 70.5t39 71.5l170 312h30l-300 -544q-14 -28 -31.5 -55.5t-39.5 -50t-48.5 -36.5t-58.5 -14q-8 0 -19 2t-25 8l12 24v0zM320 704h38l-126 -134h-28z" />
    <glyph glyph-name="ycircumflex" unicode="&#x177;" horiz-adv-x="408" 
d="M-72 -188q16 -8 34 -8q45 0 83.5 38.5t70.5 103.5l22 44l-80 488h28l50 -312q6 -35 11.5 -72t10.5 -70h4q18 35 37 70.5t39 71.5l170 312h30l-300 -544q-14 -28 -31.5 -55.5t-39.5 -50t-48.5 -36.5t-58.5 -14q-8 0 -19 2t-25 8l12 24v0zM274 704h18l68 -134h-24l-56 100
h-4l-96 -100h-28z" />
    <glyph glyph-name="ydieresis" unicode="&#xff;" horiz-adv-x="408" 
d="M-72 -188q16 -8 34 -8q45 0 83.5 38.5t70.5 103.5l22 44l-80 488h28l50 -312q6 -35 11.5 -72t10.5 -70h4q18 35 37 70.5t39 71.5l170 312h30l-300 -544q-14 -28 -31.5 -55.5t-39.5 -50t-48.5 -36.5t-58.5 -14q-8 0 -19 2t-25 8l12 24v0zM194 602q-26 0 -26 26
q0 17 10 27.5t22 10.5q26 0 26 -28q0 -15 -10 -25.5t-22 -10.5zM340 602q-26 0 -26 26q0 17 10 27.5t22 10.5q26 0 26 -28q0 -15 -10 -25.5t-22 -10.5z" />
    <glyph glyph-name="uni1E8F" unicode="&#x1e8f;" horiz-adv-x="408" 
d="M-72 -188q16 -8 34 -8q45 0 83.5 38.5t70.5 103.5l22 44l-80 488h28l50 -312q6 -35 11.5 -72t10.5 -70h4q18 35 37 70.5t39 71.5l170 312h30l-300 -544q-14 -28 -31.5 -55.5t-39.5 -50t-48.5 -36.5t-58.5 -14q-8 0 -19 2t-25 8l12 24v0zM264 600q-12 0 -20 8t-8 20
q0 18 11 29t25 11q12 0 20 -8t8 -22q0 -17 -11 -27.5t-25 -10.5z" />
    <glyph glyph-name="uni1EF5" unicode="&#x1ef5;" horiz-adv-x="408" 
d="M-72 -188q16 -8 34 -8q45 0 83.5 38.5t70.5 103.5l22 44l-80 488h28l50 -312q6 -35 11.5 -72t10.5 -70h4q18 35 37 70.5t39 71.5l170 312h30l-300 -544q-14 -28 -31.5 -55.5t-39.5 -50t-48.5 -36.5t-58.5 -14q-8 0 -19 2t-25 8l12 24v0zM240 -200q-12 0 -20 8t-8 20
q0 18 11 29t25 11q12 0 20 -8t8 -22q0 -17 -11 -27.5t-25 -10.5z" />
    <glyph glyph-name="uni1EF7" unicode="&#x1ef7;" horiz-adv-x="408" 
d="M-72 -188q16 -8 34 -8q45 0 83.5 38.5t70.5 103.5l22 44l-80 488h28l50 -312q6 -35 11.5 -72t10.5 -70h4q18 35 37 70.5t39 71.5l170 312h30l-300 -544q-14 -28 -31.5 -55.5t-39.5 -50t-48.5 -36.5t-58.5 -14q-8 0 -19 2t-25 8l12 24v0zM242 706q51 -3 73.5 -20.5
t22.5 -41.5q0 -38 -28 -59t-72 -35l-8 20q41 14 61.5 29t20.5 39q0 20 -14.5 30.5t-59.5 15.5z" />
    <glyph glyph-name="uni1EF9" unicode="&#x1ef9;" horiz-adv-x="408" 
d="M-72 -188q16 -8 34 -8q45 0 83.5 38.5t70.5 103.5l22 44l-80 488h28l50 -312q6 -35 11.5 -72t10.5 -70h4q18 35 37 70.5t39 71.5l170 312h30l-300 -544q-14 -28 -31.5 -55.5t-39.5 -50t-48.5 -36.5t-58.5 -14q-8 0 -19 2t-25 8l12 24v0zM142 582q4 15 11 29.5t16 26.5
t21 19t26 7q21 0 33.5 -9.5t23 -20.5t20.5 -20.5t27 -9.5q14 0 26.5 17t21.5 41h22q-9 -30 -27.5 -56t-46.5 -26q-21 0 -33.5 9.5t-23 20.5t-21 20.5t-26.5 9.5q-14 0 -26.5 -17t-21.5 -41h-22z" />
    <glyph glyph-name="zacute" unicode="&#x17a;" horiz-adv-x="384" 
d="M-8 18l372 434h-254l6 26h290l-2 -18l-372 -434h292l-6 -26h-328zM334 704h38l-126 -134h-28z" />
    <glyph glyph-name="zcaron" unicode="&#x17e;" horiz-adv-x="384" 
d="M-8 18l372 434h-254l6 26h290l-2 -18l-372 -434h292l-6 -26h-328zM280 570h-18l-68 134h24l56 -100h4l96 100h28z" />
    <glyph glyph-name="zdotaccent" unicode="&#x17c;" horiz-adv-x="384" 
d="M-8 18l372 434h-254l6 26h290l-2 -18l-372 -434h292l-6 -26h-328zM278 600q-12 0 -20 8t-8 20q0 18 11 29t25 11q12 0 20 -8t8 -22q0 -17 -11 -27.5t-25 -10.5z" />
    <glyph glyph-name="uni1E93" unicode="&#x1e93;" horiz-adv-x="384" 
d="M-8 18l372 434h-254l6 26h290l-2 -18l-372 -434h292l-6 -26h-328zM134 -192q-12 0 -20 8t-8 20q0 18 11 29t25 11q12 0 20 -8t8 -22q0 -17 -11 -27.5t-25 -10.5z" />
    <glyph glyph-name="eth" unicode="&#xf0;" horiz-adv-x="514" 
d="M216 14q44 0 80.5 25t63.5 67t42.5 96.5t17.5 114.5q-12 18 -26 35.5t-31 31t-37 22t-44 8.5q-46 0 -83.5 -21t-64.5 -55.5t-41.5 -79t-14.5 -90.5q0 -31 9 -59t27 -49t43.5 -33.5t58.5 -12.5zM372 600q35 -50 55.5 -113.5t20.5 -146.5q0 -74 -17 -138t-48.5 -111.5
t-75.5 -75t-97 -27.5q-35 0 -64.5 14t-50.5 38t-33 56t-12 68q0 53 16.5 103t47 88.5t74 61.5t96.5 23q40 0 74.5 -22.5t61.5 -58.5q-3 74 -22 130t-51 101l-149 -64l-8 22l143 61q-23 27 -49.5 50t-57.5 43l16 20q67 -43 116 -102l146 62l8 -22z" />
    <glyph glyph-name="thorn" unicode="&#xfe;" horiz-adv-x="520" 
d="M216 -12q-44 0 -76 22.5t-54 57.5h-2l-22 -110l-34 -180h-28l188 944h28l-44 -216l-20 -98h2q39 32 85 57t97 25q63 0 101.5 -44t38.5 -128q0 -69 -22 -129t-58.5 -105t-83.5 -70.5t-96 -25.5zM334 464q-21 0 -45 -7t-48.5 -19.5t-48.5 -29.5t-46 -36l-54 -270
q29 -48 59.5 -68t66.5 -20q45 0 86.5 25.5t73.5 67.5t51 95.5t19 109.5q0 76 -30.5 114t-83.5 38z" />
    <glyph glyph-name="uni0237" unicode="&#x237;" horiz-adv-x="214" 
d="M52 -98q-14 -65 -40.5 -100.5t-71.5 -35.5q-21 0 -34 5t-24 11l12 24q9 -6 18.5 -10t29.5 -4q30 0 49.5 28.5t30.5 75.5l118 582h28z" />
    <glyph glyph-name="uni0251" unicode="&#x251;" horiz-adv-x="524" 
d="M46 160q0 69 22 129t58.5 105t83 70.5t96.5 25.5q44 0 75 -22t51 -58h4l18 68h24l-96 -478h-24l12 78h-4q-38 -39 -83.5 -64.5t-96.5 -25.5q-63 0 -101.5 43.5t-38.5 128.5zM188 14q50 0 97.5 28.5t92.5 79.5l52 250q-29 50 -59.5 71t-66.5 21q-45 0 -86.5 -26t-73.5 -68
t-51 -95.5t-19 -108.5q0 -77 30.5 -114.5t83.5 -37.5z" />
    <glyph glyph-name="uni0259" unicode="&#x259;" horiz-adv-x="466" 
d="M420 294q0 -68 -21.5 -124.5t-56.5 -97t-79 -62.5t-89 -22q-38 0 -65 12.5t-44 35t-25 53t-8 67.5q0 26 4 48.5t10 43.5h342q7 48 1.5 87.5t-22 68t-44 44.5t-63.5 16q-38 0 -68.5 -12.5t-59.5 -27.5l-12 24q29 15 63 28.5t79 13.5q72 0 115 -50.5t43 -145.5zM68 222
q-5 -17 -6.5 -36t-1.5 -36q0 -26 5.5 -50t19 -43.5t35.5 -31t56 -11.5t66.5 14.5t60 41.5t48 65.5t31.5 86.5h-314z" />
    <glyph glyph-name="uni0261" unicode="&#x261;" horiz-adv-x="518" 
d="M472 478l-106 -526q-18 -86 -68.5 -136t-131.5 -50q-53 0 -91.5 20t-68.5 46l18 22q27 -26 63 -44t81 -18q73 0 115 49t59 129l24 112h-4q-38 -36 -82.5 -61t-95.5 -25q-62 0 -100 43.5t-38 126.5q0 67 22 126t58 103t81.5 69.5t92.5 25.5q43 0 74.5 -22t51.5 -58h4
l18 68h24zM186 22q42 0 92 27.5t94 74.5l52 248q-29 50 -59.5 71t-66.5 21q-43 0 -83 -25.5t-71.5 -67t-50.5 -94t-19 -105.5q0 -75 29.5 -112.5t82.5 -37.5z" />
    <glyph glyph-name="fi" unicode="&#xfb01;" horiz-adv-x="460" 
d="M80 474l64 4l24 120q15 71 48.5 103.5t75.5 32.5q24 0 40 -6.5t30 -15.5l-14 -22q-12 8 -25 13t-33 5q-19 0 -34 -9t-27 -24t-20.5 -35t-12.5 -42l-24 -120h108l-6 -26h-108l-90 -452h-28l90 452h-62zM386 478h28l-96 -478h-28zM426 600q-12 0 -20 8t-8 20q0 18 11 29
t25 11q12 0 20 -8t8 -22q0 -17 -11 -27.5t-25 -10.5z" />
    <glyph glyph-name="fl" unicode="&#xfb02;" horiz-adv-x="472" 
d="M80 474l64 4l24 120q15 71 48.5 103.5t75.5 32.5q24 0 40 -6.5t30 -15.5l-14 -22q-12 8 -25 13t-33 5q-19 0 -34 -9t-27 -24t-20.5 -35t-12.5 -42l-24 -120h108l-6 -26h-108l-90 -452h-28l90 452h-62zM434 722h28l-134 -674q-2 -8 -2 -12.5v-7.5q0 -14 14 -14
q3 0 5.5 0.5t10.5 3.5l4 -24q-8 -3 -13.5 -4.5t-14.5 -1.5q-15 0 -25.5 9t-10.5 27q0 5 1 11.5t3 14.5z" />
    <glyph glyph-name="I.a" horiz-adv-x="290" 
d="M-2 26h86l122 608h-88l6 26h208l-6 -26h-90l-122 -608h90l-6 -26h-206z" />
    <glyph glyph-name="Igrave.a" horiz-adv-x="290" 
d="M-2 26h86l122 608h-88l6 26h208l-6 -26h-90l-122 -608h90l-6 -26h-206zM144 812h34l78 -102h-26z" />
    <glyph glyph-name="Iacute.a" horiz-adv-x="290" 
d="M-2 26h86l122 608h-88l6 26h208l-6 -26h-90l-122 -608h90l-6 -26h-206zM304 812h38l-120 -102h-28z" />
    <glyph glyph-name="Icircumflex.a" horiz-adv-x="290" 
d="M-2 26h86l122 608h-88l6 26h208l-6 -26h-90l-122 -608h90l-6 -26h-206zM232 812h24l72 -102h-26l-58 76h-4l-90 -76h-30z" />
    <glyph glyph-name="Itilde.a" horiz-adv-x="290" 
d="M-2 26h86l122 608h-88l6 26h208l-6 -26h-90l-122 -608h90l-6 -26h-206zM105 718q3 14 10 29t17.5 27t24 20t29.5 8t28 -9.5t22.5 -21.5t21 -21.5t25.5 -9.5q19 0 32.5 17t21.5 43h22q-3 -14 -10 -29t-17.5 -27t-24 -20t-29.5 -8q-17 0 -28.5 9.5t-22 21.5t-21 21.5
t-25.5 9.5q-19 0 -32.5 -17t-21.5 -43h-22z" />
    <glyph glyph-name="Idieresis.a" horiz-adv-x="290" 
d="M-2 26h86l122 608h-88l6 26h208l-6 -26h-90l-122 -608h90l-6 -26h-206zM158 726q-26 0 -26 26q0 17 10 27.5t22 10.5q26 0 26 -28q0 -15 -10 -25.5t-22 -10.5zM304 726q-26 0 -26 26q0 17 10 27.5t22 10.5q26 0 26 -28q0 -15 -10 -25.5t-22 -10.5z" />
    <glyph glyph-name="Imacron.a" horiz-adv-x="290" 
d="M-2 26h86l122 608h-88l6 26h208l-6 -26h-90l-122 -608h90l-6 -26h-206zM130 762h210l-6 -26h-210z" />
    <glyph glyph-name="Idotaccent.a" horiz-adv-x="290" 
d="M-2 26h86l122 608h-88l6 26h208l-6 -26h-90l-122 -608h90l-6 -26h-206zM230 726q-12 0 -20 8t-8 20q0 18 11 29t25 11q12 0 20 -8t8 -22q0 -17 -11 -27.5t-25 -10.5z" />
    <glyph glyph-name="uni01CF.a" horiz-adv-x="290" 
d="M-2 26h86l122 608h-88l6 26h208l-6 -26h-90l-122 -608h90l-6 -26h-206zM238 710h-24l-72 102h26l58 -76h4l90 76h30z" />
    <glyph glyph-name="uni1EC8.a" horiz-adv-x="290" 
d="M-2 26h86l122 608h-88l6 26h208l-6 -26h-90l-122 -608h90l-6 -26h-206zM188 858q51 -3 73.5 -20.5t22.5 -41.5q0 -38 -28 -59t-72 -35l-8 20q41 14 61.5 29t20.5 39q0 20 -14.5 30.5t-59.5 15.5z" />
    <glyph glyph-name="uni1ECA.a" horiz-adv-x="290" 
d="M-2 26h86l122 608h-88l6 26h208l-6 -26h-90l-122 -608h90l-6 -26h-206zM66 -201q-12 0 -20 8t-8 20q0 18 11 29t25 11q12 0 20 -8t8 -22q0 -17 -11 -27.5t-25 -10.5z" />
    <glyph glyph-name="Iogonek.a" horiz-adv-x="290" 
d="M-2 26h86l122 608h-88l6 26h208l-6 -26h-90l-122 -608h90l-6 -26h-88q-15 -14 -29.5 -30t-26.5 -33.5t-19 -35.5t-7 -35q0 -20 10.5 -31t27.5 -11q12 0 21.5 3t20.5 9l10 -18q-12 -9 -28.5 -14.5t-27.5 -5.5q-27 0 -45.5 15t-18.5 47q0 19 8 39.5t20.5 39t27 34.5
t28.5 27h-90z" />
    <glyph glyph-name="a.a" horiz-adv-x="474" 
d="M40 102q0 49 23.5 84.5t67.5 58.5t106.5 35t140.5 14q5 20 6.5 33.5t1.5 28.5q0 60 -25 84t-81 24q-35 0 -72 -13.5t-72 -34.5l-12 24q33 20 75 35t83 15q31 0 55.5 -7t41.5 -22.5t26 -40.5t9 -62q0 -14 -2.5 -32t-5.5 -30l-58 -296h-24l8 62h-2q-36 -32 -82 -53t-90 -21
q-23 0 -44.5 7t-38 21.5t-26 35.5t-9.5 50zM374 268q-70 -2 -126.5 -12t-96.5 -29.5t-61.5 -49t-21.5 -69.5q0 -50 27.5 -72t68.5 -22q78 0 176 86z" />
    <glyph glyph-name="agrave.a" horiz-adv-x="474" 
d="M40 102q0 49 23.5 84.5t67.5 58.5t106.5 35t140.5 14q5 20 6.5 33.5t1.5 28.5q0 60 -25 84t-81 24q-35 0 -72 -13.5t-72 -34.5l-12 24q33 20 75 35t83 15q31 0 55.5 -7t41.5 -22.5t26 -40.5t9 -62q0 -14 -2.5 -32t-5.5 -30l-58 -296h-24l8 62h-2q-36 -32 -82 -53t-90 -21
q-23 0 -44.5 7t-38 21.5t-26 35.5t-9.5 50zM374 268q-70 -2 -126.5 -12t-96.5 -29.5t-61.5 -49t-21.5 -69.5q0 -50 27.5 -72t68.5 -22q78 0 176 86zM254 704h34l60 -134h-24z" />
    <glyph glyph-name="aacute.a" horiz-adv-x="474" 
d="M40 102q0 49 23.5 84.5t67.5 58.5t106.5 35t140.5 14q5 20 6.5 33.5t1.5 28.5q0 60 -25 84t-81 24q-35 0 -72 -13.5t-72 -34.5l-12 24q33 20 75 35t83 15q31 0 55.5 -7t41.5 -22.5t26 -40.5t9 -62q0 -14 -2.5 -32t-5.5 -30l-58 -296h-24l8 62h-2q-36 -32 -82 -53t-90 -21
q-23 0 -44.5 7t-38 21.5t-26 35.5t-9.5 50zM374 268q-70 -2 -126.5 -12t-96.5 -29.5t-61.5 -49t-21.5 -69.5q0 -50 27.5 -72t68.5 -22q78 0 176 86zM364 704h38l-126 -134h-28z" />
    <glyph glyph-name="acircumflex.a" horiz-adv-x="474" 
d="M40 102q0 49 23.5 84.5t67.5 58.5t106.5 35t140.5 14q5 20 6.5 33.5t1.5 28.5q0 60 -25 84t-81 24q-35 0 -72 -13.5t-72 -34.5l-12 24q33 20 75 35t83 15q31 0 55.5 -7t41.5 -22.5t26 -40.5t9 -62q0 -14 -2.5 -32t-5.5 -30l-58 -296h-24l8 62h-2q-36 -32 -82 -53t-90 -21
q-23 0 -44.5 7t-38 21.5t-26 35.5t-9.5 50zM374 268q-70 -2 -126.5 -12t-96.5 -29.5t-61.5 -49t-21.5 -69.5q0 -50 27.5 -72t68.5 -22q78 0 176 86zM318 704h18l68 -134h-24l-56 100h-4l-96 -100h-28z" />
    <glyph glyph-name="atilde.a" horiz-adv-x="474" 
d="M40 102q0 49 23.5 84.5t67.5 58.5t106.5 35t140.5 14q5 20 6.5 33.5t1.5 28.5q0 60 -25 84t-81 24q-35 0 -72 -13.5t-72 -34.5l-12 24q33 20 75 35t83 15q31 0 55.5 -7t41.5 -22.5t26 -40.5t9 -62q0 -14 -2.5 -32t-5.5 -30l-58 -296h-24l8 62h-2q-36 -32 -82 -53t-90 -21
q-23 0 -44.5 7t-38 21.5t-26 35.5t-9.5 50zM374 268q-70 -2 -126.5 -12t-96.5 -29.5t-61.5 -49t-21.5 -69.5q0 -50 27.5 -72t68.5 -22q78 0 176 86zM186 582q4 15 11 29.5t16 26.5t21 19t26 7q21 0 33.5 -9.5t23 -20.5t20.5 -20.5t27 -9.5q14 0 26.5 17t21.5 41h22
q-9 -30 -27.5 -56t-46.5 -26q-21 0 -33.5 9.5t-23 20.5t-21 20.5t-26.5 9.5q-14 0 -26.5 -17t-21.5 -41h-22z" />
    <glyph glyph-name="adieresis.a" horiz-adv-x="474" 
d="M40 102q0 49 23.5 84.5t67.5 58.5t106.5 35t140.5 14q5 20 6.5 33.5t1.5 28.5q0 60 -25 84t-81 24q-35 0 -72 -13.5t-72 -34.5l-12 24q33 20 75 35t83 15q31 0 55.5 -7t41.5 -22.5t26 -40.5t9 -62q0 -14 -2.5 -32t-5.5 -30l-58 -296h-24l8 62h-2q-36 -32 -82 -53t-90 -21
q-23 0 -44.5 7t-38 21.5t-26 35.5t-9.5 50zM374 268q-70 -2 -126.5 -12t-96.5 -29.5t-61.5 -49t-21.5 -69.5q0 -50 27.5 -72t68.5 -22q78 0 176 86zM238 602q-26 0 -26 26q0 17 10 27.5t22 10.5q26 0 26 -28q0 -15 -10 -25.5t-22 -10.5zM384 602q-26 0 -26 26q0 17 10 27.5
t22 10.5q26 0 26 -28q0 -15 -10 -25.5t-22 -10.5z" />
    <glyph glyph-name="amacron.a" horiz-adv-x="474" 
d="M40 102q0 49 23.5 84.5t67.5 58.5t106.5 35t140.5 14q5 20 6.5 33.5t1.5 28.5q0 60 -25 84t-81 24q-35 0 -72 -13.5t-72 -34.5l-12 24q33 20 75 35t83 15q31 0 55.5 -7t41.5 -22.5t26 -40.5t9 -62q0 -14 -2.5 -32t-5.5 -30l-58 -296h-24l8 62h-2q-36 -32 -82 -53t-90 -21
q-23 0 -44.5 7t-38 21.5t-26 35.5t-9.5 50zM374 268q-70 -2 -126.5 -12t-96.5 -29.5t-61.5 -49t-21.5 -69.5q0 -50 27.5 -72t68.5 -22q78 0 176 86zM206 634h212l-4 -26h-212z" />
    <glyph glyph-name="abreve.a" horiz-adv-x="474" 
d="M40 102q0 49 23.5 84.5t67.5 58.5t106.5 35t140.5 14q5 20 6.5 33.5t1.5 28.5q0 60 -25 84t-81 24q-35 0 -72 -13.5t-72 -34.5l-12 24q33 20 75 35t83 15q31 0 55.5 -7t41.5 -22.5t26 -40.5t9 -62q0 -14 -2.5 -32t-5.5 -30l-58 -296h-24l8 62h-2q-36 -32 -82 -53t-90 -21
q-23 0 -44.5 7t-38 21.5t-26 35.5t-9.5 50zM374 268q-70 -2 -126.5 -12t-96.5 -29.5t-61.5 -49t-21.5 -69.5q0 -50 27.5 -72t68.5 -22q78 0 176 86zM302 576q-29 0 -46.5 10.5t-26.5 27t-12 36.5t-1 40h22q-3 -41 12.5 -65.5t53.5 -24.5t65 26t41 64h24q-7 -20 -17.5 -40
t-26.5 -36.5t-38 -27t-50 -10.5z" />
    <glyph glyph-name="aring.a" horiz-adv-x="474" 
d="M40 102q0 49 23.5 84.5t67.5 58.5t106.5 35t140.5 14q5 20 6.5 33.5t1.5 28.5q0 60 -25 84t-81 24q-35 0 -72 -13.5t-72 -34.5l-12 24q33 20 75 35t83 15q31 0 55.5 -7t41.5 -22.5t26 -40.5t9 -62q0 -14 -2.5 -32t-5.5 -30l-58 -296h-24l8 62h-2q-36 -32 -82 -53t-90 -21
q-23 0 -44.5 7t-38 21.5t-26 35.5t-9.5 50zM374 268q-70 -2 -126.5 -12t-96.5 -29.5t-61.5 -49t-21.5 -69.5q0 -50 27.5 -72t68.5 -22q78 0 176 86zM302 534q-30 0 -50 19t-20 57q0 19 7 36t19 30t27.5 20.5t32.5 7.5q30 0 50 -19t20 -57q0 -19 -7 -36t-19 -30t-27.5 -20.5
t-32.5 -7.5zM316 682q-24 0 -42 -20.5t-18 -49.5q0 -26 12.5 -41t35.5 -15q24 0 42 20.5t18 49.5q0 26 -12.5 41t-35.5 15z" />
    <glyph glyph-name="uni01CE.a" horiz-adv-x="474" 
d="M40 102q0 49 23.5 84.5t67.5 58.5t106.5 35t140.5 14q5 20 6.5 33.5t1.5 28.5q0 60 -25 84t-81 24q-35 0 -72 -13.5t-72 -34.5l-12 24q33 20 75 35t83 15q31 0 55.5 -7t41.5 -22.5t26 -40.5t9 -62q0 -14 -2.5 -32t-5.5 -30l-58 -296h-24l8 62h-2q-36 -32 -82 -53t-90 -21
q-23 0 -44.5 7t-38 21.5t-26 35.5t-9.5 50zM374 268q-70 -2 -126.5 -12t-96.5 -29.5t-61.5 -49t-21.5 -69.5q0 -50 27.5 -72t68.5 -22q78 0 176 86zM310 570h-18l-68 134h24l56 -100h4l96 100h28z" />
    <glyph glyph-name="uni1EA1.a" horiz-adv-x="474" 
d="M40 102q0 49 23.5 84.5t67.5 58.5t106.5 35t140.5 14q5 20 6.5 33.5t1.5 28.5q0 60 -25 84t-81 24q-35 0 -72 -13.5t-72 -34.5l-12 24q33 20 75 35t83 15q31 0 55.5 -7t41.5 -22.5t26 -40.5t9 -62q0 -14 -2.5 -32t-5.5 -30l-58 -296h-24l8 62h-2q-36 -32 -82 -53t-90 -21
q-23 0 -44.5 7t-38 21.5t-26 35.5t-9.5 50zM374 268q-70 -2 -126.5 -12t-96.5 -29.5t-61.5 -49t-21.5 -69.5q0 -50 27.5 -72t68.5 -22q78 0 176 86zM162 -192q-12 0 -20 8t-8 20q0 18 11 29t25 11q12 0 20 -8t8 -22q0 -17 -11 -27.5t-25 -10.5z" />
    <glyph glyph-name="uni1EA3.a" horiz-adv-x="474" 
d="M40 102q0 49 23.5 84.5t67.5 58.5t106.5 35t140.5 14q5 20 6.5 33.5t1.5 28.5q0 60 -25 84t-81 24q-35 0 -72 -13.5t-72 -34.5l-12 24q33 20 75 35t83 15q31 0 55.5 -7t41.5 -22.5t26 -40.5t9 -62q0 -14 -2.5 -32t-5.5 -30l-58 -296h-24l8 62h-2q-36 -32 -82 -53t-90 -21
q-23 0 -44.5 7t-38 21.5t-26 35.5t-9.5 50zM374 268q-70 -2 -126.5 -12t-96.5 -29.5t-61.5 -49t-21.5 -69.5q0 -50 27.5 -72t68.5 -22q78 0 176 86zM288 706q51 -3 73.5 -20.5t22.5 -41.5q0 -38 -28 -59t-72 -35l-8 20q41 14 61.5 29t20.5 39q0 20 -14.5 30.5t-59.5 15.5z
" />
    <glyph glyph-name="uni1EA5.a" horiz-adv-x="474" 
d="M40 102q0 49 23.5 84.5t67.5 58.5t106.5 35t140.5 14q5 20 6.5 33.5t1.5 28.5q0 60 -25 84t-81 24q-35 0 -72 -13.5t-72 -34.5l-12 24q33 20 75 35t83 15q31 0 55.5 -7t41.5 -22.5t26 -40.5t9 -62q0 -14 -2.5 -32t-5.5 -30l-58 -296h-24l8 62h-2q-36 -32 -82 -53t-90 -21
q-23 0 -44.5 7t-38 21.5t-26 35.5t-9.5 50zM374 268q-70 -2 -126.5 -12t-96.5 -29.5t-61.5 -49t-21.5 -69.5q0 -50 27.5 -72t68.5 -22q78 0 176 86zM310 682h18l60 -112h-24l-48 78h-4l-80 -78h-28zM482 744h36l-102 -110h-28z" />
    <glyph glyph-name="uni1EA7.a" horiz-adv-x="474" 
d="M40 102q0 49 23.5 84.5t67.5 58.5t106.5 35t140.5 14q5 20 6.5 33.5t1.5 28.5q0 60 -25 84t-81 24q-35 0 -72 -13.5t-72 -34.5l-12 24q33 20 75 35t83 15q31 0 55.5 -7t41.5 -22.5t26 -40.5t9 -62q0 -14 -2.5 -32t-5.5 -30l-58 -296h-24l8 62h-2q-36 -32 -82 -53t-90 -21
q-23 0 -44.5 7t-38 21.5t-26 35.5t-9.5 50zM374 268q-70 -2 -126.5 -12t-96.5 -29.5t-61.5 -49t-21.5 -69.5q0 -50 27.5 -72t68.5 -22q78 0 176 86zM462 634h-24l-60 110h32zM310 682h18l60 -112h-24l-48 78h-4l-80 -78h-28z" />
    <glyph glyph-name="uni1EA9.a" horiz-adv-x="474" 
d="M40 102q0 49 23.5 84.5t67.5 58.5t106.5 35t140.5 14q5 20 6.5 33.5t1.5 28.5q0 60 -25 84t-81 24q-35 0 -72 -13.5t-72 -34.5l-12 24q33 20 75 35t83 15q31 0 55.5 -7t41.5 -22.5t26 -40.5t9 -62q0 -14 -2.5 -32t-5.5 -30l-58 -296h-24l8 62h-2q-36 -32 -82 -53t-90 -21
q-23 0 -44.5 7t-38 21.5t-26 35.5t-9.5 50zM374 268q-70 -2 -126.5 -12t-96.5 -29.5t-61.5 -49t-21.5 -69.5q0 -50 27.5 -72t68.5 -22q78 0 176 86zM406 774q42 -3 64 -19.5t22 -40.5q0 -35 -23.5 -55.5t-64.5 -32.5l-8 20q38 11 54 26t16 36q0 20 -14 29.5t-50 14.5z
M310 682h18l60 -112h-24l-48 78h-4l-80 -78h-28z" />
    <glyph glyph-name="uni1EAB.a" horiz-adv-x="474" 
d="M40 102q0 49 23.5 84.5t67.5 58.5t106.5 35t140.5 14q5 20 6.5 33.5t1.5 28.5q0 60 -25 84t-81 24q-35 0 -72 -13.5t-72 -34.5l-12 24q33 20 75 35t83 15q31 0 55.5 -7t41.5 -22.5t26 -40.5t9 -62q0 -14 -2.5 -32t-5.5 -30l-58 -296h-24l8 62h-2q-36 -32 -82 -53t-90 -21
q-23 0 -44.5 7t-38 21.5t-26 35.5t-9.5 50zM374 268q-70 -2 -126.5 -12t-96.5 -29.5t-61.5 -49t-21.5 -69.5q0 -50 27.5 -72t68.5 -22q78 0 176 86zM400 570h-24l-62 64h-4l-86 -64h-30l110 94h24zM214 702q8 27 27 49.5t43 22.5q20 0 32.5 -8t22 -17t19 -17t24.5 -8
q12 0 26 14t20 34h22q-8 -27 -27 -49.5t-43 -22.5q-20 0 -32.5 8t-22 17t-19 17t-24.5 8q-12 0 -26 -14t-20 -34h-22z" />
    <glyph glyph-name="uni1EAD.a" horiz-adv-x="474" 
d="M40 102q0 49 23.5 84.5t67.5 58.5t106.5 35t140.5 14q5 20 6.5 33.5t1.5 28.5q0 60 -25 84t-81 24q-35 0 -72 -13.5t-72 -34.5l-12 24q33 20 75 35t83 15q31 0 55.5 -7t41.5 -22.5t26 -40.5t9 -62q0 -14 -2.5 -32t-5.5 -30l-58 -296h-24l8 62h-2q-36 -32 -82 -53t-90 -21
q-23 0 -44.5 7t-38 21.5t-26 35.5t-9.5 50zM374 268q-70 -2 -126.5 -12t-96.5 -29.5t-61.5 -49t-21.5 -69.5q0 -50 27.5 -72t68.5 -22q78 0 176 86zM318 704h18l68 -134h-24l-56 100h-4l-96 -100h-28zM164 -192q-12 0 -20 8t-8 20q0 18 11 29t25 11q12 0 20 -8t8 -22
q0 -17 -11 -27.5t-25 -10.5z" />
    <glyph glyph-name="uni1EAF.a" horiz-adv-x="474" 
d="M40 102q0 49 23.5 84.5t67.5 58.5t106.5 35t140.5 14q5 20 6.5 33.5t1.5 28.5q0 60 -25 84t-81 24q-35 0 -72 -13.5t-72 -34.5l-12 24q33 20 75 35t83 15q31 0 55.5 -7t41.5 -22.5t26 -40.5t9 -62q0 -14 -2.5 -32t-5.5 -30l-58 -296h-24l8 62h-2q-36 -32 -82 -53t-90 -21
q-23 0 -44.5 7t-38 21.5t-26 35.5t-9.5 50zM374 268q-70 -2 -126.5 -12t-96.5 -29.5t-61.5 -49t-21.5 -69.5q0 -50 27.5 -72t68.5 -22q78 0 176 86zM384 772h36l-106 -108h-28zM300 576q-29 0 -46.5 10.5t-26.5 27t-12 36.5t-1 40h22q-3 -41 12.5 -65.5t53.5 -24.5t65 26
t41 64h24q-7 -20 -17.5 -40t-26.5 -36.5t-38 -27t-50 -10.5z" />
    <glyph glyph-name="uni1EB1.a" horiz-adv-x="474" 
d="M40 102q0 49 23.5 84.5t67.5 58.5t106.5 35t140.5 14q5 20 6.5 33.5t1.5 28.5q0 60 -25 84t-81 24q-35 0 -72 -13.5t-72 -34.5l-12 24q33 20 75 35t83 15q31 0 55.5 -7t41.5 -22.5t26 -40.5t9 -62q0 -14 -2.5 -32t-5.5 -30l-58 -296h-24l8 62h-2q-36 -32 -82 -53t-90 -21
q-23 0 -44.5 7t-38 21.5t-26 35.5t-9.5 50zM374 268q-70 -2 -126.5 -12t-96.5 -29.5t-61.5 -49t-21.5 -69.5q0 -50 27.5 -72t68.5 -22q78 0 176 86zM300 576q-29 0 -46.5 10.5t-26.5 27t-12 36.5t-1 40h22q-3 -41 12.5 -65.5t53.5 -24.5t65 26t41 64h24q-7 -20 -17.5 -40
t-26.5 -36.5t-38 -27t-50 -10.5zM346 664h-24l-60 108h30z" />
    <glyph glyph-name="uni1EB3.a" horiz-adv-x="474" 
d="M40 102q0 49 23.5 84.5t67.5 58.5t106.5 35t140.5 14q5 20 6.5 33.5t1.5 28.5q0 60 -25 84t-81 24q-35 0 -72 -13.5t-72 -34.5l-12 24q33 20 75 35t83 15q31 0 55.5 -7t41.5 -22.5t26 -40.5t9 -62q0 -14 -2.5 -32t-5.5 -30l-58 -296h-24l8 62h-2q-36 -32 -82 -53t-90 -21
q-23 0 -44.5 7t-38 21.5t-26 35.5t-9.5 50zM374 268q-70 -2 -126.5 -12t-96.5 -29.5t-61.5 -49t-21.5 -69.5q0 -50 27.5 -72t68.5 -22q78 0 176 86zM302 814q41 -3 61.5 -18.5t20.5 -39.5q0 -34 -22 -53t-60 -33l-8 20q35 12 49.5 26t14.5 34t-12.5 28.5t-47.5 13.5z
M300 576q-29 0 -46.5 10.5t-26.5 27t-12 36.5t-1 40h22q-3 -41 12.5 -65.5t53.5 -24.5t65 26t41 64h24q-7 -20 -17.5 -40t-26.5 -36.5t-38 -27t-50 -10.5z" />
    <glyph glyph-name="uni1EB5.a" horiz-adv-x="474" 
d="M40 102q0 49 23.5 84.5t67.5 58.5t106.5 35t140.5 14q5 20 6.5 33.5t1.5 28.5q0 60 -25 84t-81 24q-35 0 -72 -13.5t-72 -34.5l-12 24q33 20 75 35t83 15q31 0 55.5 -7t41.5 -22.5t26 -40.5t9 -62q0 -14 -2.5 -32t-5.5 -30l-58 -296h-24l8 62h-2q-36 -32 -82 -53t-90 -21
q-23 0 -44.5 7t-38 21.5t-26 35.5t-9.5 50zM374 268q-70 -2 -126.5 -12t-96.5 -29.5t-61.5 -49t-21.5 -69.5q0 -50 27.5 -72t68.5 -22q78 0 176 86zM298 576q-27 0 -44 9.5t-26.5 24t-13 31.5t-2.5 33h22q-2 -32 14.5 -53t51.5 -21t63.5 22.5t42.5 51.5h24q-7 -16 -18 -33
t-27.5 -31.5t-38 -24t-48.5 -9.5zM214 702q8 27 27 49.5t43 22.5q20 0 32.5 -8t22 -17t19 -17t24.5 -8q12 0 26 14t20 34h22q-8 -27 -27 -49.5t-43 -22.5q-20 0 -32.5 8t-22 17t-19 17t-24.5 8q-12 0 -26 -14t-20 -34h-22z" />
    <glyph glyph-name="uni1EB7.a" horiz-adv-x="474" 
d="M40 102q0 49 23.5 84.5t67.5 58.5t106.5 35t140.5 14q5 20 6.5 33.5t1.5 28.5q0 60 -25 84t-81 24q-35 0 -72 -13.5t-72 -34.5l-12 24q33 20 75 35t83 15q31 0 55.5 -7t41.5 -22.5t26 -40.5t9 -62q0 -14 -2.5 -32t-5.5 -30l-58 -296h-24l8 62h-2q-36 -32 -82 -53t-90 -21
q-23 0 -44.5 7t-38 21.5t-26 35.5t-9.5 50zM374 268q-70 -2 -126.5 -12t-96.5 -29.5t-61.5 -49t-21.5 -69.5q0 -50 27.5 -72t68.5 -22q78 0 176 86zM302 576q-29 0 -46.5 10.5t-26.5 27t-12 36.5t-1 40h22q-3 -41 12.5 -65.5t53.5 -24.5t65 26t41 64h24q-7 -20 -17.5 -40
t-26.5 -36.5t-38 -27t-50 -10.5zM164 -192q-12 0 -20 8t-8 20q0 18 11 29t25 11q12 0 20 -8t8 -22q0 -17 -11 -27.5t-25 -10.5z" />
    <glyph glyph-name="aogonek.a" horiz-adv-x="474" 
d="M332 62h-2q-36 -32 -82 -53t-90 -21q-23 0 -44.5 7t-38 21.5t-26 35.5t-9.5 50q0 49 23.5 84.5t67.5 58.5t106.5 35t140.5 14q5 20 6.5 33.5t1.5 28.5q0 60 -25 84t-81 24q-35 0 -72 -13.5t-72 -34.5l-12 24q33 20 75 35t83 15q31 0 55.5 -7t41.5 -22.5t26 -40.5t9 -62
q0 -14 -2.5 -32t-5.5 -30l-58 -296q-53 -30 -83.5 -64.5t-30.5 -69.5q0 -20 10.5 -31t27.5 -11q12 0 21.5 3t20.5 9l10 -22q-29 -16 -54 -16q-29 0 -47.5 15t-18.5 47q0 21 10 42.5t26.5 41t38.5 36.5t47 30zM374 268q-70 -2 -126.5 -12t-96.5 -29.5t-61.5 -49t-21.5 -69.5
q0 -50 27.5 -72t68.5 -22q78 0 176 86z" />
    <glyph glyph-name="g.a" 
d="M90 280q0 44 14 82.5t39.5 67t61 44.5t77.5 16q17 0 28.5 -3t23.5 -9h152l-6 -26h-114q17 -18 26.5 -42.5t9.5 -47.5q0 -44 -14.5 -82.5t-40 -67t-60.5 -44.5t-77 -16q-28 0 -52 12q-15 -12 -28.5 -30.5t-13.5 -39.5q0 -30 23.5 -45t80.5 -21q83 -9 118.5 -33.5
t35.5 -72.5q0 -38 -18 -67.5t-48 -49t-69.5 -29.5t-82.5 -10q-31 0 -60 7t-51.5 21.5t-36.5 36.5t-14 51q0 26 12.5 48t32 39.5t41.5 31t42 23.5v2q-17 9 -25.5 26.5t-8.5 35.5q0 44 48 86v4q-20 17 -33 43.5t-13 58.5zM144 10q-20 -8 -41.5 -21t-39.5 -29t-29.5 -34.5
t-11.5 -37.5q0 -26 11.5 -44t30.5 -29.5t43.5 -17t50.5 -5.5q40 0 74 10t59.5 26.5t40 39t14.5 48.5q0 38 -32.5 57t-109.5 27q-14 2 -29.5 4.5t-30.5 5.5zM278 464q-34 0 -63 -14.5t-50.5 -38.5t-34 -55.5t-12.5 -65.5q0 -50 25.5 -81t70.5 -31q34 0 63 14.5t50.5 38.5
t34 55.5t12.5 65.5q0 50 -25.5 81t-70.5 31z" />
    <glyph glyph-name="gcircumflex.a" 
d="M90 280q0 44 14 82.5t39.5 67t61 44.5t77.5 16q17 0 28.5 -3t23.5 -9h152l-6 -26h-114q17 -18 26.5 -42.5t9.5 -47.5q0 -44 -14.5 -82.5t-40 -67t-60.5 -44.5t-77 -16q-28 0 -52 12q-15 -12 -28.5 -30.5t-13.5 -39.5q0 -30 23.5 -45t80.5 -21q83 -9 118.5 -33.5
t35.5 -72.5q0 -38 -18 -67.5t-48 -49t-69.5 -29.5t-82.5 -10q-31 0 -60 7t-51.5 21.5t-36.5 36.5t-14 51q0 26 12.5 48t32 39.5t41.5 31t42 23.5v2q-17 9 -25.5 26.5t-8.5 35.5q0 44 48 86v4q-20 17 -33 43.5t-13 58.5zM144 10q-20 -8 -41.5 -21t-39.5 -29t-29.5 -34.5
t-11.5 -37.5q0 -26 11.5 -44t30.5 -29.5t43.5 -17t50.5 -5.5q40 0 74 10t59.5 26.5t40 39t14.5 48.5q0 38 -32.5 57t-109.5 27q-14 2 -29.5 4.5t-30.5 5.5zM278 464q-34 0 -63 -14.5t-50.5 -38.5t-34 -55.5t-12.5 -65.5q0 -50 25.5 -81t70.5 -31q34 0 63 14.5t50.5 38.5
t34 55.5t12.5 65.5q0 50 -25.5 81t-70.5 31zM302 704h18l68 -134h-24l-56 100h-4l-96 -100h-28z" />
    <glyph glyph-name="gbreve.a" 
d="M90 280q0 44 14 82.5t39.5 67t61 44.5t77.5 16q17 0 28.5 -3t23.5 -9h152l-6 -26h-114q17 -18 26.5 -42.5t9.5 -47.5q0 -44 -14.5 -82.5t-40 -67t-60.5 -44.5t-77 -16q-28 0 -52 12q-15 -12 -28.5 -30.5t-13.5 -39.5q0 -30 23.5 -45t80.5 -21q83 -9 118.5 -33.5
t35.5 -72.5q0 -38 -18 -67.5t-48 -49t-69.5 -29.5t-82.5 -10q-31 0 -60 7t-51.5 21.5t-36.5 36.5t-14 51q0 26 12.5 48t32 39.5t41.5 31t42 23.5v2q-17 9 -25.5 26.5t-8.5 35.5q0 44 48 86v4q-20 17 -33 43.5t-13 58.5zM144 10q-20 -8 -41.5 -21t-39.5 -29t-29.5 -34.5
t-11.5 -37.5q0 -26 11.5 -44t30.5 -29.5t43.5 -17t50.5 -5.5q40 0 74 10t59.5 26.5t40 39t14.5 48.5q0 38 -32.5 57t-109.5 27q-14 2 -29.5 4.5t-30.5 5.5zM278 464q-34 0 -63 -14.5t-50.5 -38.5t-34 -55.5t-12.5 -65.5q0 -50 25.5 -81t70.5 -31q34 0 63 14.5t50.5 38.5
t34 55.5t12.5 65.5q0 50 -25.5 81t-70.5 31zM286 576q-29 0 -46.5 10.5t-26.5 27t-12 36.5t-1 40h22q-3 -41 12.5 -65.5t53.5 -24.5t65 26t41 64h24q-7 -20 -17.5 -40t-26.5 -36.5t-38 -27t-50 -10.5z" />
    <glyph glyph-name="gdotaccent.a" 
d="M90 280q0 44 14 82.5t39.5 67t61 44.5t77.5 16q17 0 28.5 -3t23.5 -9h152l-6 -26h-114q17 -18 26.5 -42.5t9.5 -47.5q0 -44 -14.5 -82.5t-40 -67t-60.5 -44.5t-77 -16q-28 0 -52 12q-15 -12 -28.5 -30.5t-13.5 -39.5q0 -30 23.5 -45t80.5 -21q83 -9 118.5 -33.5
t35.5 -72.5q0 -38 -18 -67.5t-48 -49t-69.5 -29.5t-82.5 -10q-31 0 -60 7t-51.5 21.5t-36.5 36.5t-14 51q0 26 12.5 48t32 39.5t41.5 31t42 23.5v2q-17 9 -25.5 26.5t-8.5 35.5q0 44 48 86v4q-20 17 -33 43.5t-13 58.5zM144 10q-20 -8 -41.5 -21t-39.5 -29t-29.5 -34.5
t-11.5 -37.5q0 -26 11.5 -44t30.5 -29.5t43.5 -17t50.5 -5.5q40 0 74 10t59.5 26.5t40 39t14.5 48.5q0 38 -32.5 57t-109.5 27q-14 2 -29.5 4.5t-30.5 5.5zM278 464q-34 0 -63 -14.5t-50.5 -38.5t-34 -55.5t-12.5 -65.5q0 -50 25.5 -81t70.5 -31q34 0 63 14.5t50.5 38.5
t34 55.5t12.5 65.5q0 50 -25.5 81t-70.5 31zM292 600q-12 0 -20 8t-8 20q0 18 11 29t25 11q12 0 20 -8t8 -22q0 -17 -11 -27.5t-25 -10.5z" />
    <glyph glyph-name="uni0123.a" 
d="M90 280q0 44 14 82.5t39.5 67t61 44.5t77.5 16q17 0 28.5 -3t23.5 -9h152l-6 -26h-114q17 -18 26.5 -42.5t9.5 -47.5q0 -44 -14.5 -82.5t-40 -67t-60.5 -44.5t-77 -16q-28 0 -52 12q-15 -12 -28.5 -30.5t-13.5 -39.5q0 -30 23.5 -45t80.5 -21q83 -9 118.5 -33.5
t35.5 -72.5q0 -38 -18 -67.5t-48 -49t-69.5 -29.5t-82.5 -10q-31 0 -60 7t-51.5 21.5t-36.5 36.5t-14 51q0 26 12.5 48t32 39.5t41.5 31t42 23.5v2q-17 9 -25.5 26.5t-8.5 35.5q0 44 48 86v4q-20 17 -33 43.5t-13 58.5zM144 10q-20 -8 -41.5 -21t-39.5 -29t-29.5 -34.5
t-11.5 -37.5q0 -26 11.5 -44t30.5 -29.5t43.5 -17t50.5 -5.5q40 0 74 10t59.5 26.5t40 39t14.5 48.5q0 38 -32.5 57t-109.5 27q-14 2 -29.5 4.5t-30.5 5.5zM278 464q-34 0 -63 -14.5t-50.5 -38.5t-34 -55.5t-12.5 -65.5q0 -50 25.5 -81t70.5 -31q34 0 63 14.5t50.5 38.5
t34 55.5t12.5 65.5q0 50 -25.5 81t-70.5 31zM288 542q-23 8 -39.5 20.5t-16.5 35.5q0 21 10.5 37t28 27.5t40 18.5t45.5 11l4 -20q-42 -9 -72 -25t-30 -43q0 -20 13.5 -27.5t28.5 -12.5z" />
    <glyph glyph-name="gcaron.a" 
d="M90 280q0 44 14 82.5t39.5 67t61 44.5t77.5 16q17 0 28.5 -3t23.5 -9h152l-6 -26h-114q17 -18 26.5 -42.5t9.5 -47.5q0 -44 -14.5 -82.5t-40 -67t-60.5 -44.5t-77 -16q-28 0 -52 12q-15 -12 -28.5 -30.5t-13.5 -39.5q0 -30 23.5 -45t80.5 -21q83 -9 118.5 -33.5
t35.5 -72.5q0 -38 -18 -67.5t-48 -49t-69.5 -29.5t-82.5 -10q-31 0 -60 7t-51.5 21.5t-36.5 36.5t-14 51q0 26 12.5 48t32 39.5t41.5 31t42 23.5v2q-17 9 -25.5 26.5t-8.5 35.5q0 44 48 86v4q-20 17 -33 43.5t-13 58.5zM144 10q-20 -8 -41.5 -21t-39.5 -29t-29.5 -34.5
t-11.5 -37.5q0 -26 11.5 -44t30.5 -29.5t43.5 -17t50.5 -5.5q40 0 74 10t59.5 26.5t40 39t14.5 48.5q0 38 -32.5 57t-109.5 27q-14 2 -29.5 4.5t-30.5 5.5zM278 464q-34 0 -63 -14.5t-50.5 -38.5t-34 -55.5t-12.5 -65.5q0 -50 25.5 -81t70.5 -31q34 0 63 14.5t50.5 38.5
t34 55.5t12.5 65.5q0 50 -25.5 81t-70.5 31zM294 570h-18l-68 134h24l56 -100h4l96 100h28z" />
    <glyph glyph-name="uni1E21.a" 
d="M90 280q0 44 14 82.5t39.5 67t61 44.5t77.5 16q17 0 28.5 -3t23.5 -9h152l-6 -26h-114q17 -18 26.5 -42.5t9.5 -47.5q0 -44 -14.5 -82.5t-40 -67t-60.5 -44.5t-77 -16q-28 0 -52 12q-15 -12 -28.5 -30.5t-13.5 -39.5q0 -30 23.5 -45t80.5 -21q83 -9 118.5 -33.5
t35.5 -72.5q0 -38 -18 -67.5t-48 -49t-69.5 -29.5t-82.5 -10q-31 0 -60 7t-51.5 21.5t-36.5 36.5t-14 51q0 26 12.5 48t32 39.5t41.5 31t42 23.5v2q-17 9 -25.5 26.5t-8.5 35.5q0 44 48 86v4q-20 17 -33 43.5t-13 58.5zM144 10q-20 -8 -41.5 -21t-39.5 -29t-29.5 -34.5
t-11.5 -37.5q0 -26 11.5 -44t30.5 -29.5t43.5 -17t50.5 -5.5q40 0 74 10t59.5 26.5t40 39t14.5 48.5q0 38 -32.5 57t-109.5 27q-14 2 -29.5 4.5t-30.5 5.5zM278 464q-34 0 -63 -14.5t-50.5 -38.5t-34 -55.5t-12.5 -65.5q0 -50 25.5 -81t70.5 -31q34 0 63 14.5t50.5 38.5
t34 55.5t12.5 65.5q0 50 -25.5 81t-70.5 31zM190 634h212l-4 -26h-212z" />
    <glyph glyph-name="uni00670303.a" 
d="M90 280q0 44 14 82.5t39.5 67t61 44.5t77.5 16q17 0 28.5 -3t23.5 -9h152l-6 -26h-114q17 -18 26.5 -42.5t9.5 -47.5q0 -44 -14.5 -82.5t-40 -67t-60.5 -44.5t-77 -16q-28 0 -52 12q-15 -12 -28.5 -30.5t-13.5 -39.5q0 -30 23.5 -45t80.5 -21q83 -9 118.5 -33.5
t35.5 -72.5q0 -38 -18 -67.5t-48 -49t-69.5 -29.5t-82.5 -10q-31 0 -60 7t-51.5 21.5t-36.5 36.5t-14 51q0 26 12.5 48t32 39.5t41.5 31t42 23.5v2q-17 9 -25.5 26.5t-8.5 35.5q0 44 48 86v4q-20 17 -33 43.5t-13 58.5zM144 10q-20 -8 -41.5 -21t-39.5 -29t-29.5 -34.5
t-11.5 -37.5q0 -26 11.5 -44t30.5 -29.5t43.5 -17t50.5 -5.5q40 0 74 10t59.5 26.5t40 39t14.5 48.5q0 38 -32.5 57t-109.5 27q-14 2 -29.5 4.5t-30.5 5.5zM278 464q-34 0 -63 -14.5t-50.5 -38.5t-34 -55.5t-12.5 -65.5q0 -50 25.5 -81t70.5 -31q34 0 63 14.5t50.5 38.5
t34 55.5t12.5 65.5q0 50 -25.5 81t-70.5 31zM170 582q4 15 11 29.5t16 26.5t21 19t26 7q21 0 33.5 -9.5t23 -20.5t20.5 -20.5t27 -9.5q14 0 26.5 17t21.5 41h22q-9 -30 -27.5 -56t-46.5 -26q-21 0 -33.5 9.5t-23 20.5t-21 20.5t-26.5 9.5q-14 0 -26.5 -17t-21.5 -41h-22z
" />
    <glyph glyph-name="l.a" horiz-adv-x="216" 
d="M188 722h28l-144 -722h-28z" />
    <glyph glyph-name="lacute.a" horiz-adv-x="216" 
d="M188 722h28l-144 -722h-28zM285 862h38l-120 -102h-28z" />
    <glyph glyph-name="lcaron.a" horiz-adv-x="210" 
d="M188 722h28l-144 -722h-28zM238 548l40 204h28l-8 -48l-38 -156h-22z" />
    <glyph glyph-name="ldot.a" horiz-adv-x="258" 
d="M188 722h28l-144 -722h-28zM246 290q-14 0 -21 9t-7 21q0 17 12.5 31.5t29.5 14.5q14 0 20 -9t6 -23q0 -17 -11.5 -30.5t-28.5 -13.5z" />
    <glyph glyph-name="uni013C.a" horiz-adv-x="216" 
d="M188 722h28l-144 -722h-28zM30 -50q23 -8 39.5 -20.5t16.5 -35.5q0 -21 -10.5 -37t-28 -27.5t-40 -18.5t-45.5 -11l-4 20q42 9 72 25t30 43q0 20 -13.5 27.5t-28.5 12.5z" />
    <glyph glyph-name="uni1E37.a" horiz-adv-x="216" 
d="M188 722h28l-144 -722h-28zM28 -192q-12 0 -20 8t-8 20q0 18 11 29t25 11q12 0 20 -8t8 -22q0 -17 -11 -27.5t-25 -10.5z" />
    <glyph glyph-name="uni1E39.a" horiz-adv-x="216" 
d="M188 722h28l-144 -722h-28zM118 862h212l-4 -26h-212zM28 -192q-12 0 -20 8t-8 20q0 18 11 29t25 11q12 0 20 -8t8 -22q0 -17 -11 -27.5t-25 -10.5z" />
    <glyph glyph-name="uni1E3B.a" horiz-adv-x="216" 
d="M188 722h28l-144 -722h-28zM-68 -128h212l-4 -26h-212z" />
    <glyph glyph-name="lslash.a" horiz-adv-x="216" 
d="M234 443l-84 -50l-78 -393h-28l74 372l-72 -42l6 34l73 43l63 315h28l-59 -295l83 50z" />
    <glyph glyph-name="fl.a" horiz-adv-x="462" 
d="M80 474l64 4l24 120q15 71 48.5 103.5t75.5 32.5q24 0 40 -6.5t30 -15.5l-14 -22q-12 8 -25 13t-33 5q-19 0 -34 -9t-27 -24t-20.5 -35t-12.5 -42l-24 -120h108l-6 -26h-108l-90 -452h-28l90 452h-62zM434 722h28l-144 -722h-28z" />
    <glyph glyph-name="ampersand" unicode="&#x26;" horiz-adv-x="542" 
d="M46 140q0 -29 9.5 -52t26 -39.5t39 -25.5t49.5 -9q44 0 86 22t80 56q-42 50 -78.5 115t-57.5 134q-30 -21 -58 -42.5t-49.5 -45.5t-34 -52t-12.5 -61zM204 486q0 -50 14 -104q32 21 62.5 42t54 44t37.5 50t14 59q0 26 -14 47.5t-46 21.5q-27 0 -49 -12t-38.5 -33.5
t-25.5 -51t-9 -63.5zM534 341q-33 -70 -72.5 -133t-87.5 -114q27 -29 52.5 -50t51.5 -32l-14 -24q-26 11 -54 32t-57 53q-42 -39 -89.5 -62t-100.5 -23q-32 0 -58.5 10t-46.5 29t-31 46t-11 61q0 41 15 74t39.5 60.5t56.5 51t66 45.5q-17 62 -17 117q0 43 13 78t34 60
t48.5 38.5t56.5 13.5q45 0 65.5 -26.5t20.5 -61.5q0 -39 -16.5 -70.5t-43.5 -58.5t-61 -51t-69 -47q20 -68 55 -132t78 -113q47 48 82 105t67 124h28z" />
    <glyph glyph-name="zero" unicode="0" 
d="M186 -12q-38 0 -64.5 18t-43 47t-24.5 66.5t-8 76.5q0 51 8.5 104.5t24 104.5t38 95.5t50 78.5t60 53.5t69.5 19.5t63.5 -18.5t43.5 -48.5t25 -67.5t8 -75.5q0 -51 -8.5 -104.5t-24 -104t-38 -95t-50 -78t-60.5 -53t-69 -19.5zM294 626q-32 0 -60.5 -19.5t-53 -52
t-44.5 -75.5t-33.5 -90t-21 -95.5t-7.5 -91.5q0 -36 6 -70t19.5 -60t35 -42t51.5 -16q48 0 88.5 41t70.5 104t46.5 137t16.5 140q0 37 -6.5 71t-20.5 60.5t-35.5 42.5t-51.5 16z" />
    <glyph glyph-name="one" unicode="1" 
d="M38 26h144l112 556h-112l4 20q36 5 68.5 14.5t55.5 23.5h24l-124 -614h140l-4 -26h-314z" />
    <glyph glyph-name="two" unicode="2" 
d="M-6 20q110 95 187.5 163t126.5 122t71.5 99.5t22.5 95.5q0 25 -7.5 48t-23 40.5t-39.5 27.5t-56 10q-36 0 -75 -18t-77 -56l-18 22q42 36 83 57t89 21q37 0 65.5 -11.5t48 -31t29 -46t9.5 -57.5q0 -56 -22.5 -105.5t-70 -103.5t-121 -119t-174.5 -152h324l-4 -26h-370z
" />
    <glyph glyph-name="three" unicode="3" 
d="M18 110q11 -17 26 -34t34.5 -30.5t44 -22.5t55.5 -9q41 0 76 13t60.5 35.5t39.5 53.5t14 66q0 29 -12 54.5t-37.5 44.5t-64.5 30t-94 11l6 26q67 0 112.5 15.5t74 39t41 51t12.5 52.5q0 53 -28.5 86.5t-91.5 33.5q-17 0 -36.5 -4.5t-39 -12t-37.5 -19t-31 -24.5l-18 22
q35 29 77.5 46.5t86.5 17.5q75 0 110.5 -38.5t35.5 -101.5q0 -62 -42 -111t-116 -67v-4q53 -15 86.5 -51.5t33.5 -90.5q0 -44 -16.5 -81t-46 -63.5t-70 -41t-89.5 -14.5q-35 0 -63 10.5t-50 26t-38.5 34t-26.5 35.5z" />
    <glyph glyph-name="four" unicode="4" 
d="M248 0l39 194h-279l2 16l374 430h20l-84 -420h92l-6 -26h-91l-39 -194h-28zM292 220l50 250q5 23 12.5 53.5t15.5 62.5h-4q-21 -27 -41.5 -51t-38.5 -45l-232 -270h238z" />
    <glyph glyph-name="five" unicode="5" 
d="M20 108q10 -16 22.5 -32.5t30.5 -30t43 -22.5t60 -9q38 0 73 15.5t62 43.5t43 67t16 86q0 75 -38 111.5t-100 36.5q-36 0 -62 -9.5t-56 -26.5l-18 14l80 288h266l-6 -26h-240l-66 -240q20 11 45 18.5t57 7.5q72 0 119 -42t47 -126q0 -56 -18.5 -101t-50 -76.5t-72.5 -49
t-87 -17.5q-35 0 -63 10t-49 25t-35.5 33.5t-24.5 35.5z" />
    <glyph glyph-name="six" unicode="6" 
d="M248 350q-13 0 -32.5 -4t-41.5 -15t-46 -29.5t-46 -46.5q-1 -13 -1.5 -26t-0.5 -27q0 -41 9 -75t26.5 -59.5t42 -39.5t56.5 -14q31 0 60.5 15.5t52 41t36 59.5t13.5 72q0 68 -32.5 108t-95.5 40zM434 560q-18 33 -42.5 49.5t-59.5 16.5q-45 0 -85 -25.5t-72.5 -69.5
t-55.5 -104.5t-33 -130.5q38 42 82 62t82 20q37 0 65.5 -12.5t48 -34.5t30 -52.5t10.5 -66.5q0 -47 -15 -88t-41 -71t-61 -47.5t-75 -17.5q-38 0 -67.5 15.5t-50 43.5t-31.5 66t-11 83q0 97 21.5 180.5t59.5 145t89.5 96t111.5 34.5q45 0 74.5 -20.5t49.5 -55.5z" />
    <glyph glyph-name="seven" unicode="7" 
d="M136 0q21 95 47 177.5t62 156.5t86 143t119 137h-336l6 26h372l-4 -20q-76 -73 -128.5 -144.5t-88.5 -146.5t-60 -156.5t-43 -172.5h-32v0z" />
    <glyph glyph-name="eight" unicode="8" 
d="M212 344q-33 -17 -60.5 -36t-47.5 -41.5t-31 -49.5t-11 -61q0 -35 12.5 -61.5t33.5 -44.5t48 -27t56 -9q32 0 63 10t55 29.5t39 48t15 64.5q0 34 -15 60t-39 46.5t-55 37.5t-63 34zM296 330q24 13 46.5 31t40.5 39.5t28.5 47.5t10.5 56t-10 53t-26.5 38t-38.5 23t-45 8
q-27 0 -52.5 -9.5t-45 -27.5t-31 -43.5t-11.5 -57.5q0 -31 9.5 -54t27 -41.5t42 -33.5t55.5 -29zM34 154q0 39 13.5 70.5t35.5 56.5t50.5 44t58.5 33v4q-29 27 -43.5 55t-14.5 69q0 39 14 70t37.5 52t54 32.5t64.5 11.5q29 0 55.5 -9.5t46.5 -27.5t32 -45.5t12 -63.5
q0 -34 -10 -61.5t-27.5 -50t-41 -41.5t-51.5 -35v-4q12 -8 28 -21.5t30 -31.5t24 -40.5t10 -48.5q0 -43 -16 -77t-43.5 -58t-64 -36.5t-76.5 -12.5q-35 0 -67 10.5t-56.5 31.5t-39.5 52t-15 72z" />
    <glyph glyph-name="nine" unicode="9" 
d="M234 290q13 0 32.5 4t41.5 15t46 29t46 47q1 13 1.5 26t0.5 27q0 40 -9 74.5t-26.5 60t-42.5 39.5t-56 14q-32 0 -61 -15.5t-51.5 -41t-36 -60t-13.5 -71.5q0 -68 32.5 -108t95.5 -40zM48 80q18 -33 42.5 -49.5t59.5 -16.5q45 0 85 25.5t72.5 69.5t55.5 104.5t33 130.5
q-38 -42 -82 -62t-82 -20q-37 0 -65.5 12.5t-48 34.5t-30 52.5t-10.5 66.5q0 47 15 88t41 71t61 47.5t75 17.5q37 0 67 -15.5t50.5 -43.5t31.5 -66t11 -83q0 -98 -21.5 -181t-59.5 -144.5t-89.5 -96t-111.5 -34.5q-45 0 -74.5 20.5t-49.5 55.5z" />
    <glyph glyph-name="zero.pnum" horiz-adv-x="474" 
d="M196 -12q-41 0 -69.5 18.5t-46.5 48t-26 66.5t-8 75q0 51 8.5 104.5t25 104.5t39.5 95.5t52 78.5t63 53.5t72 19.5q40 0 68.5 -19t46.5 -49t26.5 -67.5t8.5 -74.5q0 -51 -8.5 -104.5t-25 -104t-39.5 -95t-52 -78t-63 -53t-72 -19.5zM304 626q-34 0 -64 -19.5t-55.5 -52
t-46 -75.5t-35 -90t-22 -95.5t-7.5 -91.5q0 -36 6.5 -70t21.5 -60t38 -42t56 -16t63.5 19t56 51.5t46.5 74.5t35.5 89t22.5 95.5t8 92.5q0 37 -7 71t-22 60.5t-38.5 42.5t-56.5 16z" />
    <glyph glyph-name="one.pnum" horiz-adv-x="310" 
d="M112 0l116 582h-112l4 20q36 5 68.5 14.5t55.5 23.5h24l-128 -640h-28z" />
    <glyph glyph-name="two.pnum" horiz-adv-x="448" 
d="M-6 20q108 95 183.5 163t123.5 122t69.5 99.5t21.5 95.5q0 25 -7 48t-21.5 40.5t-36.5 27.5t-51 10q-36 0 -75 -18t-77 -56l-18 22q42 36 83 57t89 21q34 0 60.5 -11.5t44.5 -31t27.5 -46t9.5 -57.5q0 -56 -22 -105.5t-68.5 -103.5t-118 -119t-169.5 -152h314l-4 -26
h-360z" />
    <glyph glyph-name="three.pnum" horiz-adv-x="438" 
d="M9 110q11 -17 26 -34t34.5 -30.5t44 -22.5t55.5 -9q41 0 76 13t60.5 35.5t39.5 53.5t14 66q0 29 -12 54.5t-37.5 44.5t-64.5 30t-94 11l6 26q67 0 112.5 15.5t74 39t41 51t12.5 52.5q0 53 -28.5 86.5t-91.5 33.5q-17 0 -36.5 -4.5t-39 -12t-37.5 -19t-31 -24.5l-18 22
q35 29 77.5 46.5t86.5 17.5q75 0 110.5 -38.5t35.5 -101.5q0 -62 -42 -111t-116 -67v-4q53 -15 86.5 -51.5t33.5 -90.5q0 -44 -16.5 -81t-46 -63.5t-70 -41t-89.5 -14.5q-35 0 -63 10.5t-50 26t-38.5 34t-26.5 35.5z" />
    <glyph glyph-name="four.pnum" horiz-adv-x="454" 
d="M260 0l39 194h-279l2 16l374 430h20l-84 -420h92l-6 -26h-91l-39 -194h-28zM304 220l50 250q5 23 12.5 53.5t15.5 62.5h-4q-21 -27 -41.5 -51t-38.5 -45l-232 -270h238z" />
    <glyph glyph-name="five.pnum" horiz-adv-x="438" 
d="M17 108q10 -16 22.5 -32.5t30.5 -30t43 -22.5t60 -9q38 0 73 15.5t62 43.5t43 67t16 86q0 75 -38 111.5t-100 36.5q-36 0 -62 -9.5t-56 -26.5l-18 14l80 288h266l-6 -26h-240l-66 -240q20 11 45 18.5t57 7.5q72 0 119 -42t47 -126q0 -56 -18.5 -101t-50 -76.5t-72.5 -49
t-87 -17.5q-35 0 -63 10t-49 25t-35.5 33.5t-24.5 35.5z" />
    <glyph glyph-name="six.pnum" 
d="M248 350q-13 0 -32.5 -4t-41.5 -15t-46 -29.5t-46 -46.5q-1 -13 -1.5 -26t-0.5 -27q0 -41 9 -75t26.5 -59.5t42 -39.5t56.5 -14q31 0 60.5 15.5t52 41t36 59.5t13.5 72q0 68 -32.5 108t-95.5 40zM434 560q-18 33 -42.5 49.5t-59.5 16.5q-45 0 -85 -25.5t-72.5 -69.5
t-55.5 -104.5t-33 -130.5q38 42 82 62t82 20q37 0 65.5 -12.5t48 -34.5t30 -52.5t10.5 -66.5q0 -47 -15 -88t-41 -71t-61 -47.5t-75 -17.5q-38 0 -67.5 15.5t-50 43.5t-31.5 66t-11 83q0 97 21.5 180.5t59.5 145t89.5 96t111.5 34.5q45 0 74.5 -20.5t49.5 -55.5z" />
    <glyph glyph-name="seven.pnum" horiz-adv-x="436" 
d="M120 0q21 95 46.5 177.5t61.5 156.5t85 143t117 137h-326l6 26h362l-4 -20q-74 -73 -126 -144.5t-88 -146.5t-59.5 -156.5t-42.5 -172.5h-32v0z" />
    <glyph glyph-name="eight.pnum" 
d="M212 344q-33 -17 -60.5 -36t-47.5 -41.5t-31 -49.5t-11 -61q0 -35 12.5 -61.5t33.5 -44.5t48 -27t56 -9q32 0 63 10t55 29.5t39 48t15 64.5q0 34 -15 60t-39 46.5t-55 37.5t-63 34zM296 330q24 13 46.5 31t40.5 39.5t28.5 47.5t10.5 56t-10 53t-26.5 38t-38.5 23t-45 8
q-27 0 -52.5 -9.5t-45 -27.5t-31 -43.5t-11.5 -57.5q0 -31 9.5 -54t27 -41.5t42 -33.5t55.5 -29zM34 154q0 39 13.5 70.5t35.5 56.5t50.5 44t58.5 33v4q-29 27 -43.5 55t-14.5 69q0 39 14 70t37.5 52t54 32.5t64.5 11.5q29 0 55.5 -9.5t46.5 -27.5t32 -45.5t12 -63.5
q0 -34 -10 -61.5t-27.5 -50t-41 -41.5t-51.5 -35v-4q12 -8 28 -21.5t30 -31.5t24 -40.5t10 -48.5q0 -43 -16 -77t-43.5 -58t-64 -36.5t-76.5 -12.5q-35 0 -67 10.5t-56.5 31.5t-39.5 52t-15 72z" />
    <glyph glyph-name="nine.pnum" 
d="M234 290q13 0 32.5 4t41.5 15t46 29t46 47q1 13 1.5 26t0.5 27q0 40 -9 74.5t-26.5 60t-42.5 39.5t-56 14q-32 0 -61 -15.5t-51.5 -41t-36 -60t-13.5 -71.5q0 -68 32.5 -108t95.5 -40zM48 80q18 -33 42.5 -49.5t59.5 -16.5q45 0 85 25.5t72.5 69.5t55.5 104.5t33 130.5
q-38 -42 -82 -62t-82 -20q-37 0 -65.5 12.5t-48 34.5t-30 52.5t-10.5 66.5q0 47 15 88t41 71t61 47.5t75 17.5q37 0 67 -15.5t50.5 -43.5t31.5 -66t11 -83q0 -98 -21.5 -181t-59.5 -144.5t-89.5 -96t-111.5 -34.5q-45 0 -74.5 20.5t-49.5 55.5z" />
    <glyph glyph-name="zero.tnum" 
d="M188 -12q-68 0 -107 53.5t-39 144.5q0 68 18 138.5t49.5 127.5t75.5 93.5t96 36.5q67 0 106 -54t39 -144q0 -68 -18 -138.5t-49.5 -127.5t-75 -93.5t-95.5 -36.5zM278 556q-44 0 -82 -34t-66 -87t-44 -117.5t-16 -125.5q0 -86 31.5 -132t88.5 -46q44 0 82 34t66 87
t44 117.5t16 125.5q0 86 -31.5 132t-88.5 46z" />
    <glyph glyph-name="one.tnum" 
d="M38 26h144l98 486h-112l4 20q36 5 68.5 14.5t55.5 23.5h24l-110 -544h140l-4 -26h-314z" />
    <glyph glyph-name="two.tnum" 
d="M-6 20q105 82 179 140.5t121 104t68.5 84t21.5 81.5q0 25 -7.5 48t-23 40.5t-39.5 27.5t-56 10q-36 0 -75 -18t-77 -56l-18 22q42 36 83 57t89 21q37 0 65.5 -11.5t48 -31t29 -46t9.5 -57.5q0 -48 -22.5 -90.5t-68 -89t-114.5 -102t-163 -128.5h322l-4 -26h-370z" />
    <glyph glyph-name="three.tnum" 
d="M4 40q11 -17 26 -34t34.5 -30.5t44 -22.5t55.5 -9q41 0 76 13t60.5 35.5t39.5 53.5t14 66q0 29 -12 54.5t-37.5 44.5t-64.5 30t-94 11l6 26q67 0 112.5 15.5t74 39t41 51t12.5 52.5q0 53 -28.5 86.5t-91.5 33.5q-17 0 -36.5 -4.5t-39 -12t-37.5 -19t-31 -24.5l-18 22
q35 29 77.5 46.5t86.5 17.5q75 0 110.5 -38.5t35.5 -101.5q0 -62 -42 -111t-116 -67v-4q53 -15 86.5 -51.5t33.5 -90.5q0 -44 -16.5 -81t-46 -63.5t-70 -41t-89.5 -14.5q-35 0 -63 10.5t-50 26t-38.5 34t-26.5 35.5z" />
    <glyph glyph-name="four.tnum" 
d="M284 130l54 270q5 23 12.5 53.5t15.5 62.5h-4q-21 -27 -41.5 -51t-38.5 -45l-250 -290h252zM396 104h-89l-35 -174h-28l35 174h-293l2 16l392 450h20l-88 -440h90z" />
    <glyph glyph-name="five.tnum" 
d="M6 36q10 -16 22.5 -32.5t30.5 -30t43 -22.5t60 -9q38 0 73 15t62 42.5t43 66.5t16 86q0 75 -38 113.5t-100 38.5q-36 0 -62 -9.5t-56 -26.5l-18 14l80 288h266l-6 -26h-240l-66 -240q20 11 45 18.5t57 7.5q72 0 119 -44t47 -128q0 -56 -18.5 -100.5t-50 -76t-72.5 -48.5
t-87 -17q-35 0 -63 10t-49 25t-35.5 33.5t-24.5 35.5z" />
    <glyph glyph-name="six.tnum" 
d="M248 350q-13 0 -32.5 -4t-41.5 -15t-46 -29.5t-46 -46.5q-1 -13 -1.5 -26t-0.5 -27q0 -41 9 -75t26.5 -59.5t42 -39.5t56.5 -14q31 0 60.5 15.5t52 41t36 59.5t13.5 72q0 68 -32.5 108t-95.5 40zM434 560q-18 33 -42.5 49.5t-59.5 16.5q-45 0 -85 -25.5t-72.5 -69.5
t-55.5 -104.5t-33 -130.5q38 42 82 62t82 20q37 0 65.5 -12.5t48 -34.5t30 -52.5t10.5 -66.5q0 -47 -15 -88t-41 -71t-61 -47.5t-75 -17.5q-38 0 -67.5 15.5t-50 43.5t-31.5 66t-11 83q0 97 21.5 180.5t59.5 145t89.5 96t111.5 34.5q45 0 74.5 -20.5t49.5 -55.5z" />
    <glyph glyph-name="seven.tnum" 
d="M122 -70q21 95 47 177.5t62 156.5t86 143t119 137h-336l6 26h372l-4 -20q-76 -73 -128.5 -144.5t-88.5 -146.5t-60 -156.5t-43 -172.5h-32v0z" />
    <glyph glyph-name="eight.tnum" 
d="M212 344q-33 -17 -60.5 -36t-47.5 -41.5t-31 -49.5t-11 -61q0 -35 12.5 -61.5t33.5 -44.5t48 -27t56 -9q32 0 63 10t55 29.5t39 48t15 64.5q0 34 -15 60t-39 46.5t-55 37.5t-63 34zM296 330q24 13 46.5 31t40.5 39.5t28.5 47.5t10.5 56t-10 53t-26.5 38t-38.5 23t-45 8
q-27 0 -52.5 -9.5t-45 -27.5t-31 -43.5t-11.5 -57.5q0 -31 9.5 -54t27 -41.5t42 -33.5t55.5 -29zM34 154q0 39 13.5 70.5t35.5 56.5t50.5 44t58.5 33v4q-29 27 -43.5 55t-14.5 69q0 39 14 70t37.5 52t54 32.5t64.5 11.5q29 0 55.5 -9.5t46.5 -27.5t32 -45.5t12 -63.5
q0 -34 -10 -61.5t-27.5 -50t-41 -41.5t-51.5 -35v-4q12 -8 28 -21.5t30 -31.5t24 -40.5t10 -48.5q0 -43 -16 -77t-43.5 -58t-64 -36.5t-76.5 -12.5q-35 0 -67 10.5t-56.5 31.5t-39.5 52t-15 72z" />
    <glyph glyph-name="nine.tnum" 
d="M212 200q14 0 33.5 4t42 14.5t46.5 28.5t48 46q2 18 3 36.5t1 38.5q0 40 -9 74.5t-26.5 60t-42.5 39.5t-56 14q-33 0 -64 -16t-55 -43t-38.5 -63t-14.5 -76q0 -72 34.5 -115t97.5 -43zM32 10q18 -33 42.5 -49.5t59.5 -16.5q43 0 82 23t70.5 64.5t55 97.5t34.5 122
q-39 -41 -83.5 -60t-82.5 -19q-35 0 -64 13t-50 36t-32.5 55.5t-11.5 71.5q0 49 16 92t43 74.5t64 49.5t79 18q37 0 67 -15.5t50.5 -43.5t31.5 -66t11 -83q0 -98 -21.5 -181t-59.5 -144.5t-89.5 -96t-111.5 -34.5q-45 0 -74.5 20.5t-49.5 55.5z" />
    <glyph glyph-name="zero.onum" 
d="M188 -12q-68 0 -107 53.5t-39 144.5q0 68 18 138.5t49.5 127.5t75.5 93.5t96 36.5q67 0 106 -54t39 -144q0 -68 -18 -138.5t-49.5 -127.5t-75 -93.5t-95.5 -36.5zM278 556q-44 0 -82 -34t-66 -87t-44 -117.5t-16 -125.5q0 -86 31.5 -132t88.5 -46q44 0 82 34t66 87
t44 117.5t16 125.5q0 86 -31.5 132t-88.5 46z" />
    <glyph glyph-name="one.onum" horiz-adv-x="316" 
d="M200 512h-112l4 20q36 5 68.5 14.5t55.5 23.5h24l-116 -570h-28z" />
    <glyph glyph-name="two.onum" horiz-adv-x="448" 
d="M-6 20q102 82 174.5 140.5t118 104t66.5 84t21 81.5q0 25 -7 48t-21.5 40.5t-36.5 27.5t-51 10q-36 0 -75 -18t-77 -56l-18 22q42 36 83 57t89 21q34 0 60.5 -11.5t44.5 -31t27.5 -46t9.5 -57.5q0 -48 -22 -90.5t-66 -89t-111.5 -102t-158.5 -128.5h312l-4 -26h-360z" />
    <glyph glyph-name="three.onum" 
d="M4 40q11 -17 26 -34t34.5 -30.5t44 -22.5t55.5 -9q41 0 76 13t60.5 35.5t39.5 53.5t14 66q0 29 -12 54.5t-37.5 44.5t-64.5 30t-94 11l6 26q67 0 112.5 15.5t74 39t41 51t12.5 52.5q0 53 -28.5 86.5t-91.5 33.5q-17 0 -36.5 -4.5t-39 -12t-37.5 -19t-31 -24.5l-18 22
q35 29 77.5 46.5t86.5 17.5q75 0 110.5 -38.5t35.5 -101.5q0 -62 -42 -111t-116 -67v-4q53 -15 86.5 -51.5t33.5 -90.5q0 -44 -16.5 -81t-46 -63.5t-70 -41t-89.5 -14.5q-35 0 -63 10.5t-50 26t-38.5 34t-26.5 35.5z" />
    <glyph glyph-name="four.onum" 
d="M284 130l54 270q5 23 12.5 53.5t15.5 62.5h-4q-21 -27 -41.5 -51t-38.5 -45l-250 -290h252zM396 104h-89l-35 -174h-28l35 174h-293l2 16l392 450h20l-88 -440h90z" />
    <glyph glyph-name="five.onum" 
d="M6 36q10 -16 22.5 -32.5t30.5 -30t43 -22.5t60 -9q38 0 73 15t62 42.5t43 66.5t16 86q0 75 -38 113.5t-100 38.5q-36 0 -62 -9.5t-56 -26.5l-18 14l80 288h266l-6 -26h-240l-66 -240q20 11 45 18.5t57 7.5q72 0 119 -44t47 -128q0 -56 -18.5 -100.5t-50 -76t-72.5 -48.5
t-87 -17q-35 0 -63 10t-49 25t-35.5 33.5t-24.5 35.5z" />
    <glyph glyph-name="six.onum" 
d="M248 350q-13 0 -32.5 -4t-41.5 -15t-46 -29.5t-46 -46.5q-1 -13 -1.5 -26t-0.5 -27q0 -41 9 -75t26.5 -59.5t42 -39.5t56.5 -14q31 0 60.5 15.5t52 41t36 59.5t13.5 72q0 68 -32.5 108t-95.5 40zM434 560q-18 33 -42.5 49.5t-59.5 16.5q-45 0 -85 -25.5t-72.5 -69.5
t-55.5 -104.5t-33 -130.5q38 42 82 62t82 20q37 0 65.5 -12.5t48 -34.5t30 -52.5t10.5 -66.5q0 -47 -15 -88t-41 -71t-61 -47.5t-75 -17.5q-38 0 -67.5 15.5t-50 43.5t-31.5 66t-11 83q0 97 21.5 180.5t59.5 145t89.5 96t111.5 34.5q45 0 74.5 -20.5t49.5 -55.5z" />
    <glyph glyph-name="seven.onum" horiz-adv-x="436" 
d="M98 -70q21 95 46.5 177.5t61.5 156.5t85 143t117 137h-326l6 26h362l-4 -20q-75 -73 -126.5 -144.5t-87.5 -146.5t-59.5 -156.5t-42.5 -172.5h-32v0z" />
    </font>
</defs>
</svg>
